<svg width="28" height="28" fill="none" xmlns="http://www.w3.org/2000/svg"><ellipse class="sel" cx="3.072" cy="3.003" rx="3.003" ry="3" transform="rotate(90 3.072 3.003)"/><ellipse class="1" cx="13.779" cy="3.003" rx="3.003" ry="3" transform="rotate(90 13.78 3.003)"/><ellipse class="sel" cx="24.487" cy="3.003" rx="3.003" ry="3" transform="rotate(90 24.487 3.003)"/><ellipse class="1" cx="3.072" cy="13.714" rx="3.003" ry="3" transform="rotate(90 3.072 13.714)"/><ellipse class="sel" cx="13.779" cy="13.714" rx="3.003" ry="3" transform="rotate(90 13.78 13.714)"/><ellipse class="1" cx="24.487" cy="13.714" rx="3.003" ry="3" transform="rotate(90 24.487 13.714)"/><ellipse class="sel" cx="3.072" cy="24.425" rx="3.003" ry="3" transform="rotate(90 3.072 24.425)"/><ellipse class="1" cx="13.779" cy="24.425" rx="3.003" ry="3" transform="rotate(90 13.78 24.425)"/><ellipse class="sel" cx="24.487" cy="24.425" rx="3.003" ry="3" transform="rotate(90 24.487 24.425)"/></svg>