<svg width="34" height="123" fill="none" xmlns="http://www.w3.org/2000/svg"><path fill-rule="evenodd" clip-rule="evenodd" d="M31.807 63.26a8.482 8.482 0 01-1.293 4.502c-1.317 2.775-4.38 9.784-4.474 15.102-.124 7.043 1.92 14.157 6.046 23.33a10.393 10.393 0 011.817 5.864c0 6.009-5.164 10.88-11.534 10.88-6.37 0-11.534-4.871-11.534-10.88 0-2.051.602-3.969 1.647-5.606 3.488-9.246 5.626-16.425 5.69-23.588.05-5.53-3.033-12.948-4.147-15.445a8.465 8.465 0 01-1.09-4.159c0-4.916 4.224-8.902 9.436-8.902s9.436 3.986 9.436 8.902z" fill="#1D82F9"/><circle cx="22.329" cy="40.397" r="9.404" fill="#2F8FFF"/><circle cx="6.754" cy="13.644" r="6.269" fill="#07EAF2"/><circle cx="29.847" cy="3.443" r="3.135" fill="#07EAF2"/></svg>