<svg width="31" height="31" fill="none" xmlns="http://www.w3.org/2000/svg"><g clip-path="url(#clip0_421_2565)"><path d="M15.5.62C7.282.62.62 7.28.62 15.5c0 8.218 6.662 14.88 14.88 14.88s14.88-6.662 14.88-14.88C30.38 7.28 23.718.62 15.5.62zm3.525 10.282h-2.237c-.265 0-.56.349-.56.812v1.615h2.798l-.423 2.304H16.23v6.914h-2.64v-6.914h-2.395v-2.304h2.395v-1.354c0-1.944 1.348-3.523 3.2-3.523h2.236v2.45z" fill="#2F8FFF"/></g><defs><clipPath id="clip0_421_2565"><path fill="#fff" d="M0 0h31v31H0z"/></clipPath></defs></svg>