<svg width="18" height="18" fill="none" xmlns="http://www.w3.org/2000/svg"><g clip-path="url(#clip0_421_2552)" fill="#2F8FFF" stroke="#2F8FFF" stroke-width=".2"><path d="M9.61 6.623v-.1H4.314v.879h5.294v-.78zM11.307 9v-.1H4.316v.88h6.991V9zm0 2.377v-.1H4.316v.88h6.991v-.78z"/><path d="M14.504 8.859h0v7.173H3.496V5.561c0-.054.027-.1.08-.137a.367.367 0 01.205-.06h10.523c.075 0 .122.022.15.05.028.027.05.074.05.147V8.86zm2.717-.003h0v.1a.92.92 0 01-1.838.003V5.364h.68v-.879H1.937v.88h.68v3.593a.92.92 0 01-1.838-.003v-6.11c0-.497.444-.878.962-.878h14.603a.85.85 0 01.877.878v6.01zm-.877-7.767H1.74c-.984 0-1.84.758-1.84 1.757v6.11a1.801 1.801 0 002.717 1.547v5.926c0 .127.065.247.15.332a.48.48 0 00.332.15h11.887c.133 0 .235-.07.3-.163a.562.562 0 00.097-.319v-5.944c.29.167.57.27.919.27a1.8 1.8 0 001.798-1.8V2.847a1.73 1.73 0 00-1.756-1.757z"/></g><defs><clipPath id="clip0_421_2552"><path fill="#fff" d="M0 0h18v18H0z"/></clipPath></defs></svg>