<svg width="20" height="20" fill="none" xmlns="http://www.w3.org/2000/svg"><path d="M18.964 14.476v2.71a1.807 1.807 0 01-1.97 1.807A17.875 17.875 0 019.2 16.22a17.613 17.613 0 01-5.42-5.42 17.876 17.876 0 01-2.773-7.83A1.807 1.807 0 012.805 1h2.71A1.807 1.807 0 017.32 2.554c.114.867.326 1.718.632 2.538a1.806 1.806 0 01-.406 1.906L6.4 8.145a14.452 14.452 0 005.42 5.42l1.146-1.148a1.806 1.806 0 011.906-.406c.82.305 1.671.518 2.538.632a1.806 1.806 0 011.554 1.833z" stroke="#2F8FFF" stroke-width="1.2" stroke-linecap="round" stroke-linejoin="round"/></svg>