<svg width="214" height="171" fill="none" xmlns="http://www.w3.org/2000/svg"><path d="M62.4 124.24c5.84 0 8.76 2.36 8.76 7.08 0 4.8-2.92 7.2-8.76 7.2h-4.44v6.84c0 3.04-.84 5.36-2.52 6.96-1.68 1.6-3.88 2.4-6.6 2.4-2.72 0-4.92-.8-6.6-2.4-1.68-1.6-2.52-3.92-2.52-6.96v-6.84H10.56c-2.48 0-4.44-.72-5.88-2.16-1.44-1.52-2.16-3.4-2.16-5.64 0-2.24.76-4.48 2.28-6.72l35.76-51.12c.96-1.36 2.16-2.36 3.6-3 1.44-.72 2.96-1.08 4.56-1.08 2.48 0 4.64.84 6.48 2.52 1.84 1.6 2.76 3.84 2.76 6.72v46.2h4.44zm-41.04 0h18.36v-26.4l-18.36 26.4zm183.04 0c5.84 0 8.76 2.36 8.76 7.08 0 4.8-2.92 7.2-8.76 7.2h-4.44v6.84c0 3.04-.84 5.36-2.52 6.96-1.68 1.6-3.88 2.4-6.6 2.4-2.72 0-4.92-.8-6.6-2.4-1.68-1.6-2.52-3.92-2.52-6.96v-6.84h-29.16c-2.48 0-4.44-.72-5.88-2.16-1.44-1.52-2.16-3.4-2.16-5.64 0-2.24.76-4.48 2.28-6.72l35.76-51.12c.96-1.36 2.16-2.36 3.6-3 1.44-.72 2.96-1.08 4.56-1.08 2.48 0 4.64.84 6.48 2.52 1.84 1.6 2.76 3.84 2.76 6.72v46.2h4.44zm-41.04 0h18.36v-26.4l-18.36 26.4z" fill="#2F8FFF"/><path fill-rule="evenodd" clip-rule="evenodd" d="M118.366 79.485a10.66 10.66 0 01-1.622 5.652c-1.653 3.482-5.508 12.299-5.626 18.987-.156 8.853 2.414 17.795 7.601 29.326a13.055 13.055 0 012.281 7.367c0 7.553-6.49 13.675-14.496 13.675s-14.496-6.122-14.496-13.675c0-2.578.756-4.989 2.07-7.047 4.384-11.62 7.07-20.643 7.151-29.646.062-6.943-3.804-16.255-5.208-19.403a10.64 10.64 0 01-1.376-5.236c0-6.18 5.31-11.189 11.861-11.189 6.55 0 11.86 5.01 11.86 11.19z" fill="#2F8FFF"/><circle cx="106.455" cy="50.749" r="11.819" fill="#07EAF2"/><circle cx="86.879" cy="17.125" r="7.879" fill="#08F8FF"/><circle cx="115.904" cy="4.303" r="3.94" fill="#08F8FF"/></svg>