<svg width="31" height="31" fill="none" xmlns="http://www.w3.org/2000/svg"><g clip-path="url(#clip0_421_2567)"><path d="M15.5 0C6.94 0 0 6.94 0 15.5 0 24.058 6.94 31 15.5 31 24.06 31 31 24.059 31 15.5 31 6.94 24.06 0 15.5 0zm-4.504 23.43H7.22V12.074h3.775v11.357zM9.109 10.523h-.025c-1.267 0-2.086-.872-2.086-1.962 0-1.114.844-1.962 2.136-1.962 1.29 0 2.086.848 2.11 1.962 0 1.09-.82 1.962-2.135 1.962zm15.499 12.908h-3.775v-6.076c0-1.527-.546-2.568-1.912-2.568-1.043 0-1.664.703-1.937 1.38-.1.243-.124.582-.124.922v6.342h-3.775s.05-10.291 0-11.357h3.775v1.608c.501-.774 1.399-1.874 3.402-1.874 2.483 0 4.346 1.623 4.346 5.111v6.512z" fill="#2F8FFF"/></g><defs><clipPath id="clip0_421_2567"><path fill="#fff" d="M0 0h31v31H0z"/></clipPath></defs></svg>