<svg width="204" height="81" fill="none" xmlns="http://www.w3.org/2000/svg"><path d="M10.775 57.16c-1.853 0-3.629-.29-5.328-.874C3.75 55.704 2.267 54.83 1 53.664l1.158-1.486c1.297 1.107 2.64 1.923 4.03 2.448 1.39.524 2.92.786 4.587.786 2.1 0 3.783-.408 5.05-1.223 1.297-.845 1.945-2.01 1.945-3.497 0-.7-.17-1.282-.51-1.748-.308-.495-.787-.903-1.435-1.224-.649-.35-1.452-.655-2.41-.917a80.947 80.947 0 00-3.335-.83 55.444 55.444 0 01-3.567-.875c-.988-.291-1.807-.641-2.455-1.049-.649-.408-1.143-.903-1.483-1.486-.309-.583-.463-1.326-.463-2.229 0-1.136.231-2.127.695-2.972a6.051 6.051 0 011.9-2.098 9.01 9.01 0 012.825-1.223 13.12 13.12 0 013.428-.437c1.884 0 3.552.306 5.004.917 1.451.583 2.579 1.34 3.382 2.273l-1.298 1.18c-.803-.874-1.853-1.53-3.15-1.967-1.266-.437-2.625-.655-4.077-.655-.895 0-1.745.087-2.548.262a6.281 6.281 0 00-2.038.83 4.125 4.125 0 00-1.39 1.486c-.34.583-.51 1.282-.51 2.098 0 .67.109 1.21.325 1.617.247.408.618.758 1.112 1.05.525.29 1.189.553 1.992.786.803.204 1.76.437 2.872.7 1.513.349 2.857.684 4.03 1.004 1.174.32 2.147.714 2.92 1.18.802.467 1.404 1.02 1.806 1.661.432.641.649 1.457.649 2.448 0 2.04-.85 3.67-2.549 4.895-1.667 1.194-3.906 1.791-6.717 1.791zm20.868-11.887c0-1.603.293-3.118.88-4.546a11.212 11.212 0 012.455-3.714c1.05-1.05 2.301-1.88 3.753-2.492 1.452-.611 3.042-.917 4.772-.917 2.193 0 4.123.466 5.79 1.398 1.668.933 2.92 2.23 3.753 3.89l-2.27.7c-.71-1.254-1.73-2.23-3.058-2.929-1.297-.728-2.733-1.093-4.308-1.093-1.328 0-2.563.248-3.706.743a9.522 9.522 0 00-3.011 2.054 9.962 9.962 0 00-1.992 3.104c-.495 1.165-.742 2.432-.742 3.802s.247 2.666.741 3.89a11.298 11.298 0 002.039 3.146 10.156 10.156 0 003.011 2.098 8.984 8.984 0 003.706.787c.834 0 1.653-.117 2.456-.35a10.38 10.38 0 002.27-.918 7.536 7.536 0 001.806-1.31c.526-.525.88-1.064 1.066-1.618l2.27.612c-.309.787-.788 1.53-1.436 2.229a9.24 9.24 0 01-2.224 1.748 11.21 11.21 0 01-2.872 1.136c-1.05.292-2.131.438-3.243.438-1.699 0-3.274-.306-4.725-.918a12.438 12.438 0 01-3.8-2.579 12.95 12.95 0 01-2.5-3.802c-.588-1.428-.881-2.958-.881-4.59zM103.939 1h2.363v51.222c0 .845.247 1.515.741 2.01.525.496 1.235.743 2.131.743.34 0 .741-.029 1.205-.087a8.041 8.041 0 001.343-.35l.463 1.748c-.525.204-1.173.365-1.945.481-.772.146-1.437.219-1.992.219-1.298 0-2.348-.364-3.151-1.093-.772-.758-1.158-1.763-1.158-3.016V1zm62.385 55.723h-2.316V44.05c0-2.943-.448-5.084-1.344-6.425-.864-1.34-2.254-2.01-4.169-2.01a9.375 9.375 0 00-3.058.525c-.988.35-1.915.844-2.779 1.485a10.866 10.866 0 00-2.27 2.273 8.788 8.788 0 00-1.437 2.754v14.072h-2.316V33.997h2.177v5.42a10.685 10.685 0 011.807-2.36 11.23 11.23 0 012.456-1.836 11.934 11.934 0 012.918-1.18 11.406 11.406 0 013.15-.437c2.626 0 4.479.874 5.56 2.622 1.081 1.719 1.621 4.196 1.621 7.43v13.067zm25.118.437c-1.699 0-3.274-.305-4.726-.917a12.446 12.446 0 01-3.799-2.579 12.936 12.936 0 01-2.501-3.802c-.587-1.428-.881-2.958-.881-4.59 0-1.602.294-3.102.881-4.5a11.819 11.819 0 012.501-3.716 11.425 11.425 0 013.707-2.535c1.451-.611 3.011-.917 4.679-.917 1.698 0 3.273.32 4.725.961a11.292 11.292 0 013.752 2.535 11.203 11.203 0 012.456 3.715 11.4 11.4 0 01.88 4.458v.568c0 .204-.015.335-.046.393h-21.126a9.857 9.857 0 00.973 3.672 10.734 10.734 0 002.085 2.884 9.813 9.813 0 002.965 1.923c1.112.466 2.301.7 3.567.7.834 0 1.653-.103 2.456-.307a10.63 10.63 0 002.223-.917 7.763 7.763 0 001.853-1.355 6.512 6.512 0 001.297-1.792l2.039.524c-.34.816-.849 1.574-1.529 2.273a9.78 9.78 0 01-2.316 1.748 11.21 11.21 0 01-2.873 1.136c-1.05.292-2.131.438-3.242.438zm9.45-12.674c-.092-1.34-.417-2.564-.973-3.671a9.024 9.024 0 00-2.084-2.84 8.655 8.655 0 00-2.919-1.88 9.131 9.131 0 00-3.567-.7 9.131 9.131 0 00-3.567.7 9.17 9.17 0 00-2.965 1.88c-.834.786-1.514 1.747-2.039 2.884-.494 1.107-.787 2.316-.88 3.627h18.994z" fill="#2F8FFF"/><path d="M10.775 57.16c-1.853 0-3.629-.29-5.328-.874C3.75 55.704 2.267 54.83 1 53.664l1.158-1.486c1.297 1.107 2.64 1.923 4.03 2.448 1.39.524 2.92.786 4.587.786 2.1 0 3.783-.408 5.05-1.223 1.297-.845 1.945-2.01 1.945-3.497 0-.7-.17-1.282-.51-1.748-.308-.495-.787-.903-1.435-1.224-.649-.35-1.452-.655-2.41-.917a80.947 80.947 0 00-3.335-.83 55.444 55.444 0 01-3.567-.875c-.988-.291-1.807-.641-2.455-1.049-.649-.408-1.143-.903-1.483-1.486-.309-.583-.463-1.326-.463-2.229 0-1.136.231-2.127.695-2.972a6.051 6.051 0 011.9-2.098 9.01 9.01 0 012.825-1.223 13.12 13.12 0 013.428-.437c1.884 0 3.552.306 5.004.917 1.451.583 2.579 1.34 3.382 2.273l-1.298 1.18c-.803-.874-1.853-1.53-3.15-1.967-1.266-.437-2.625-.655-4.077-.655-.895 0-1.745.087-2.548.262a6.281 6.281 0 00-2.038.83 4.125 4.125 0 00-1.39 1.486c-.34.583-.51 1.282-.51 2.098 0 .67.109 1.21.325 1.617.247.408.618.758 1.112 1.05.525.29 1.189.553 1.992.786.803.204 1.76.437 2.872.7 1.513.349 2.857.684 4.03 1.004 1.174.32 2.147.714 2.92 1.18.802.467 1.404 1.02 1.806 1.661.432.641.649 1.457.649 2.448 0 2.04-.85 3.67-2.549 4.895-1.667 1.194-3.906 1.791-6.717 1.791zm20.868-11.887c0-1.603.293-3.118.88-4.546a11.212 11.212 0 012.455-3.714c1.05-1.05 2.301-1.88 3.753-2.492 1.452-.611 3.042-.917 4.772-.917 2.193 0 4.123.466 5.79 1.398 1.668.933 2.92 2.23 3.753 3.89l-2.27.7c-.71-1.254-1.73-2.23-3.058-2.929-1.297-.728-2.733-1.093-4.308-1.093-1.328 0-2.563.248-3.706.743a9.522 9.522 0 00-3.011 2.054 9.962 9.962 0 00-1.992 3.104c-.495 1.165-.742 2.432-.742 3.802s.247 2.666.741 3.89a11.298 11.298 0 002.039 3.146 10.156 10.156 0 003.011 2.098 8.984 8.984 0 003.706.787c.834 0 1.653-.117 2.456-.35a10.38 10.38 0 002.27-.918 7.536 7.536 0 001.806-1.31c.526-.525.88-1.064 1.066-1.618l2.27.612c-.309.787-.788 1.53-1.436 2.229a9.24 9.24 0 01-2.224 1.748 11.21 11.21 0 01-2.872 1.136c-1.05.292-2.131.438-3.243.438-1.699 0-3.274-.306-4.725-.918a12.438 12.438 0 01-3.8-2.579 12.95 12.95 0 01-2.5-3.802c-.588-1.428-.881-2.958-.881-4.59zM103.939 1h2.363v51.222c0 .845.247 1.515.741 2.01.525.496 1.235.743 2.131.743.34 0 .741-.029 1.205-.087a8.041 8.041 0 001.343-.35l.463 1.748c-.525.204-1.173.365-1.945.481-.772.146-1.437.219-1.992.219-1.298 0-2.348-.364-3.151-1.093-.772-.758-1.158-1.763-1.158-3.016V1zm62.385 55.723h-2.316V44.05c0-2.943-.448-5.084-1.344-6.425-.864-1.34-2.254-2.01-4.169-2.01a9.375 9.375 0 00-3.058.525c-.988.35-1.915.844-2.779 1.485a10.866 10.866 0 00-2.27 2.273 8.788 8.788 0 00-1.437 2.754v14.072h-2.316V33.997h2.177v5.42a10.685 10.685 0 011.807-2.36 11.23 11.23 0 012.456-1.836 11.934 11.934 0 012.918-1.18 11.406 11.406 0 013.15-.437c2.626 0 4.479.874 5.56 2.622 1.081 1.719 1.621 4.196 1.621 7.43v13.067zm25.118.437c-1.699 0-3.274-.305-4.726-.917a12.446 12.446 0 01-3.799-2.579 12.936 12.936 0 01-2.501-3.802c-.587-1.428-.881-2.958-.881-4.59 0-1.602.294-3.102.881-4.5a11.819 11.819 0 012.501-3.716 11.425 11.425 0 013.707-2.535c1.451-.611 3.011-.917 4.679-.917 1.698 0 3.273.32 4.725.961a11.292 11.292 0 013.752 2.535 11.203 11.203 0 012.456 3.715 11.4 11.4 0 01.88 4.458v.568c0 .204-.015.335-.046.393h-21.126a9.857 9.857 0 00.973 3.672 10.734 10.734 0 002.085 2.884 9.813 9.813 0 002.965 1.923c1.112.466 2.301.7 3.567.7.834 0 1.653-.103 2.456-.307a10.63 10.63 0 002.223-.917 7.763 7.763 0 001.853-1.355 6.512 6.512 0 001.297-1.792l2.039.524c-.34.816-.849 1.574-1.529 2.273a9.78 9.78 0 01-2.316 1.748 11.21 11.21 0 01-2.873 1.136c-1.05.292-2.131.438-3.242.438zm9.45-12.674c-.092-1.34-.417-2.564-.973-3.671a9.024 9.024 0 00-2.084-2.84 8.655 8.655 0 00-2.919-1.88 9.131 9.131 0 00-3.567-.7 9.131 9.131 0 00-3.567.7 9.17 9.17 0 00-2.965 1.88c-.834.786-1.514 1.747-2.039 2.884-.494 1.107-.787 2.316-.88 3.627h18.994z" stroke="#2F8FFF"/><path d="M128.219 56.864V40.072h1.711v16.792h-1.711zm0-20.602v-2.97h1.711v2.97h-1.711z" fill="#2F8FFF" stroke="#2F8FFF"/><path fill-rule="evenodd" clip-rule="evenodd" d="M69.501 41.44a11.652 11.652 0 00-.624 3.833c0 .473.025.938.074 1.393.353-1.617.549-3.159.563-4.7a8.586 8.586 0 00-.013-.526zm8.256 15.366c.96.236 1.97.355 3.026.355 1.112 0 2.193-.146 3.243-.438a11.21 11.21 0 002.872-1.136 9.78 9.78 0 002.317-1.748c.68-.7 1.189-1.457 1.528-2.273l-2.038-.524a6.531 6.531 0 01-1.297 1.792 7.78 7.78 0 01-1.853 1.355c-.68.378-1.42.684-2.224.917a9.939 9.939 0 01-2.455.306 9.13 9.13 0 01-3.817-.807c.38.665.624 1.41.698 2.2zM74.06 46.234h18.35c.031-.058.046-.189.046-.393v-.568c0-1.574-.293-3.06-.88-4.458a11.214 11.214 0 00-2.455-3.715 11.3 11.3 0 00-3.752-2.535c-1.452-.64-3.027-.961-4.726-.961-1.668 0-3.227.306-4.679.918-.081.035-.161.07-.241.107a32.87 32.87 0 00-1.187 3.007 9.165 9.165 0 012.586-1.541 9.13 9.13 0 013.567-.7 9.13 9.13 0 013.568.7 8.654 8.654 0 012.918 1.88 9.014 9.014 0 012.085 2.84c.556 1.107.88 2.33.973 3.671H73.778c.069.575.163 1.157.283 1.748z" fill="#2F8FFF"/><path d="M69.501 41.44l.5-.026-.972-.137.472.163zm-.55 5.226l-.497.054.986.053-.49-.107zm.563-4.7l-.5-.004.5.005zm8.243 14.84l-.498.046.033.354.345.085.12-.485zm6.269-.082l-.121-.486-.013.004.134.482zm2.872-1.137l-.242-.437-.006.003.248.434zm2.317-1.748l-.359-.348.359.348zm1.528-2.273l.462.193.222-.533-.559-.144-.125.484zm-2.038-.524l.125-.484-.397-.102-.178.369.45.217zm-1.297 1.792l-.353-.355v.001l.353.354zm-1.853 1.355l-.236-.442-.008.005.244.437zm-2.224.917l.123.485.008-.002.008-.002-.139-.48zm-6.023-.393l-.193.461.194-.46zm-.249-.108l.206-.456-1.402-.632.762 1.336.434-.248zm15.352-8.37v.5h.301l.141-.267-.442-.234zm-18.35 0l-.49.1.082.4h.408v-.5zm17.516-5.42l-.462.19.001.003.461-.193zM89.122 37.1l-.358.349.005.005.353-.354zm-3.752-2.535l-.203.458.008.003.195-.46zm-9.405-.043l-.194-.461-.004.001.198.46zm-.241.107l-.208-.455-.17.078-.078.171.456.206zm-1.187 3.007l-.474-.16-.567 1.696 1.364-1.155-.323-.382zm2.586-1.541l.183.465.01-.004-.193-.461zm7.135 0l-.194.461.01.004.184-.465zm2.918 1.88l-.35.357.007.006.007.006.336-.37zm2.085 2.84l-.452.214.005.01.447-.224zm.973 3.671v.5h.536l-.037-.534-.5.034zm-16.456 0v-.5h-.562l.066.559.496-.059zm-4.401.787c0-1.298.2-2.52.597-3.67l-.945-.326a12.152 12.152 0 00-.652 3.996h1zm.071 1.34a12.456 12.456 0 01-.071-1.34h-1c0 .49.026.973.077 1.447l.994-.107zm-.008.16c.358-1.645.56-3.221.574-4.802l-1-.009c-.014 1.5-.205 3.008-.552 4.598l.977.213zm.574-4.802a9.08 9.08 0 00-.013-.557l-.999.053c.01.169.013.334.012.495l1 .01zm10.77 14.69c-1.02 0-1.988-.114-2.908-.34l-.239.97c1.003.247 2.052.37 3.146.37v-1zm3.108-.42a11.57 11.57 0 01-3.109.42v1c1.156 0 2.282-.152 3.377-.456l-.268-.963zm2.758-1.088a10.71 10.71 0 01-2.745 1.085l.242.97a11.716 11.716 0 003-1.187l-.497-.868zm2.205-1.662a9.283 9.283 0 01-2.199 1.659l.484.875a10.284 10.284 0 002.434-1.838l-.719-.696zm1.427-2.117c-.313.752-.786 1.458-1.426 2.117l.717.697c.719-.74 1.266-1.55 1.632-2.43l-.923-.384zm-1.702.152l2.039.525.249-.969-2.038-.524-.25.968zm-.82 1.662a7.03 7.03 0 001.395-1.929l-.9-.434a6.03 6.03 0 01-1.2 1.654l.706.71zm-1.97 1.442c.75-.4 1.408-.88 1.971-1.442l-.706-.708a7.28 7.28 0 01-1.736 1.268l.471.882zm-2.32.957a11.146 11.146 0 002.328-.962l-.487-.873c-.644.359-1.35.65-2.12.874l.28.96zm-2.594.325c.875 0 1.735-.107 2.578-.32l-.246-.97c-.763.194-1.54.29-2.332.29v1zm-3.76-.738a9.63 9.63 0 003.76.738v-1a8.632 8.632 0 01-3.374-.66l-.387.922zm-.262-.113c.086.039.173.076.261.113l.387-.922a9.856 9.856 0 01-.237-.103l-.411.912zm-.229-.208a4.95 4.95 0 01.634 1.999l.996-.093a5.951 5.951 0 00-.761-2.402l-.869.496zm15.786-9.119h-18.35v1h18.35v-1zm-.454.107c0 .092-.003.154-.008.193l-.003.024.005-.016a.326.326 0 01.018-.042l.884.468c.06-.114.08-.24.09-.317.01-.093.014-.198.014-.31h-1zm0-.568v.568h1v-.568h-1zm-.84-4.265c.56 1.335.84 2.755.84 4.265h1c0-1.637-.305-3.19-.919-4.651l-.922.386zm-2.348-3.554a10.72 10.72 0 012.346 3.551l.925-.38a11.714 11.714 0 00-2.565-3.879l-.706.708zm-3.594-2.428a10.8 10.8 0 013.589 2.423l.716-.698a11.8 11.8 0 00-3.916-2.646l-.389.921zm-4.53-.922c1.633 0 3.139.308 4.523.919l.403-.915c-1.52-.671-3.164-1.004-4.927-1.004v1zm-4.486.878c1.387-.584 2.88-.878 4.485-.878v-1c-1.73 0-3.357.318-4.873.957l.388.921zm-.228.101c.077-.035.154-.069.232-.102l-.396-.919c-.084.037-.168.074-.25.112l.414.91zm-.663-.66a33.367 33.367 0 00-1.205 3.054l.948.317a32.359 32.359 0 011.169-2.96l-.912-.41zm1.672 1.207a9.667 9.667 0 00-2.726 1.624l.646.763a8.665 8.665 0 012.446-1.457l-.366-.93zm3.75-.734a9.63 9.63 0 00-3.76.738l.386.922a8.632 8.632 0 013.374-.66v-1zm3.76.738a9.63 9.63 0 00-3.76-.738v1c1.204 0 2.327.22 3.374.66l.387-.922zm3.076 1.983a9.153 9.153 0 00-3.085-1.987l-.366.93a8.153 8.153 0 012.752 1.772l.699-.715zm2.187 2.984a9.514 9.514 0 00-2.2-2.997l-.673.74a8.516 8.516 0 011.97 2.685l.903-.428zm1.02 3.85c-.097-1.4-.437-2.69-1.025-3.86l-.894.448c.524 1.044.833 2.202.921 3.482l.998-.07zm-16.955.535h16.456v-1H73.778v1zm-.496-.441c.07.59.166 1.185.29 1.79l.98-.2a20.797 20.797 0 01-.277-1.707l-.993.117z" fill="#2F8FFF"/><path fill-rule="evenodd" clip-rule="evenodd" d="M73.036 33.125a4.06 4.06 0 01-.618 2.153c-.63 1.327-2.097 4.682-2.142 7.228-.06 3.37.92 6.775 2.894 11.166.55.81.868 1.772.868 2.805 0 2.875-2.47 5.206-5.519 5.206-3.048 0-5.519-2.33-5.519-5.206 0-.982.288-1.9.788-2.683 1.67-4.425 2.692-7.86 2.723-11.288.023-2.644-1.45-6.191-1.983-7.389a4.051 4.051 0 01-.524-1.992c0-2.353 2.022-4.26 4.516-4.26s4.516 1.907 4.516 4.26z" fill="#1D82F9"/><circle cx="68.5" cy="22.184" r="4.5" fill="#2F8FFF"/><circle cx="61.047" cy="9.382" r="3" fill="#07EAF2"/><circle cx="72.098" cy="4.5" r="1.5" fill="#07EAF2"/><path d="M21.422 72.744c.635-.608 1.363-.912 2.184-.912.832 0 1.54.275 2.122.824.644.608.972 1.398.982 2.37 0 .98-.327 1.775-.982 2.383a3.01 3.01 0 01-2.137.81c-.812 0-1.534-.304-2.169-.913v3.076c0 .157-.057.29-.171.397a.538.538 0 01-.406.162.59.59 0 01-.42-.162.55.55 0 01-.157-.397v-7.947c0-.147.052-.274.156-.382a.59.59 0 01.421-.162c.167 0 .302.054.406.162a.48.48 0 01.171.382v.31zm0 3.547c.583.608 1.259.907 2.028.898.978 0 1.628-.408 1.95-1.222a2.43 2.43 0 00.14-.942c0-.687-.192-1.226-.577-1.619-.374-.363-.878-.544-1.513-.544-.77 0-1.445.3-2.028.898v2.53zm12.162-4.459c.987 0 1.783.294 2.386.883.603.598.895 1.368.874 2.31 0 .952-.291 1.722-.874 2.31-.603.59-1.398.884-2.386.884-.999 0-1.79-.295-2.372-.883-.603-.589-.904-1.36-.904-2.31 0-.962.301-1.732.904-2.311.583-.589 1.373-.883 2.372-.883zm-1.436 4.9c.208.167.437.29.687.368.26.079.51.118.748.118.24 0 .484-.04.734-.118.25-.078.478-.206.686-.382.458-.393.686-.962.686-1.707 0-.726-.228-1.29-.686-1.693-.385-.333-.858-.495-1.42-.485-.925 0-1.565.392-1.918 1.177-.125.284-.187.623-.187 1.015 0 .393.062.731.187 1.016.125.284.286.515.483.691zm16.326-4.517c.063-.216.245-.324.547-.324.145 0 .27.054.374.162.114.098.171.206.171.323 0 .108-.01.197-.03.265l-1.81 5.018a.774.774 0 01-.281.354.822.822 0 01-.936 0 .762.762 0 01-.28-.368l-1.358-3.988-1.357 3.988a1 1 0 01-.296.368.776.776 0 01-.468.147.752.752 0 01-.453-.147.774.774 0 01-.28-.354l-1.81-5.018a.934.934 0 01-.031-.265.44.44 0 01.156-.323.553.553 0 01.39-.162c.301 0 .483.108.546.323l1.482 4.65 1.497-4.532a.588.588 0 01.234-.309.673.673 0 01.78-.015.587.587 0 01.234.324l1.482 4.533 1.498-4.65zm5.579 3.208c.073.54.29.97.655 1.295.374.314.884.47 1.529.47.655 0 1.211-.098 1.669-.294a.933.933 0 01.39-.103c.114-.01.218.03.312.118.104.088.156.186.156.294a.465.465 0 01-.281.456 24.24 24.24 0 01-.484.236 3.238 3.238 0 01-.468.177 5.463 5.463 0 01-1.341.147c-1.05 0-1.867-.275-2.45-.824-.571-.56-.857-1.35-.857-2.37 0-.883.244-1.619.733-2.207.551-.657 1.326-.986 2.324-.986.957 0 1.711.304 2.262.912.52.57.78 1.28.78 2.134a.509.509 0 01-.172.383.538.538 0 01-.405.162h-4.352zm1.887-2.664c-.759 0-1.31.319-1.653.957a2.083 2.083 0 00-.234.809h3.775c-.032-.57-.255-1.02-.671-1.354-.333-.275-.738-.412-1.217-.412zm8.152.206c.603-.755 1.274-1.133 2.013-1.133h.062a.52.52 0 01.39.162.48.48 0 01.172.382.48.48 0 01-.172.383.668.668 0 01-.421.132h-.063a2.2 2.2 0 00-1.138.295 2.778 2.778 0 00-.843.765v3.664a.509.509 0 01-.171.383.571.571 0 01-.406.162.571.571 0 01-.405-.162.509.509 0 01-.172-.383V72.45c0-.147.052-.275.156-.383a.564.564 0 01.421-.176c.156 0 .291.054.406.162.114.108.171.24.171.397v.515zm6.218-.515c0-.167.057-.3.172-.397a.59.59 0 01.421-.162c.166 0 .302.054.405.162a.52.52 0 01.156.397v5.165a.533.533 0 01-.156.383.537.537 0 01-.405.162.59.59 0 01-.421-.162.509.509 0 01-.172-.383V72.45zm1.28-2.37a.582.582 0 01-.188.442.655.655 0 01-.468.177h-.078a.656.656 0 01-.468-.177.608.608 0 01-.171-.441v-.044c0-.177.062-.324.187-.442a.635.635 0 01.452-.177h.078a.66.66 0 01.468.177.582.582 0 01.187.442v.044zm7.605 2.767c-.748 0-1.45.388-2.105 1.163v3.605a.509.509 0 01-.172.383.571.571 0 01-.406.162.571.571 0 01-.405-.162.51.51 0 01-.172-.383V72.45c0-.157.052-.29.156-.397a.59.59 0 01.421-.162c.156 0 .292.054.406.162.114.098.172.23.172.397v.5c.343-.333.64-.574.889-.72.478-.266.936-.398 1.373-.398.447 0 .81.064 1.091.191.281.118.52.29.718.515.395.442.593.991.593 1.648v3.43a.51.51 0 01-.172.382.571.571 0 01-.405.162.571.571 0 01-.406-.162.509.509 0 01-.172-.383v-3.31c0-.452-.109-.805-.327-1.06-.219-.265-.577-.398-1.077-.398zm11.787-.103v-.294c0-.147.052-.275.156-.383a.571.571 0 01.811-.015.509.509 0 01.188.398v5.386c0 1.02-.26 1.8-.78 2.34-.52.55-1.259.824-2.216.824-1.019 0-1.934-.21-2.745-.633a.41.41 0 01-.218-.368c0-.157.047-.29.14-.397.104-.098.208-.147.312-.147.104 0 .198.014.28.044a4.874 4.874 0 002.107.456c1.31 0 1.965-.652 1.965-1.957v-.81a2.963 2.963 0 01-2.184.913c-.81 0-1.508-.26-2.09-.78-.676-.589-1.014-1.373-1.014-2.355 0-.99.338-1.78 1.014-2.369.582-.52 1.29-.775 2.121-.765.833 0 1.55.304 2.153.912zm0 .972a3.931 3.931 0 00-.826-.618 1.97 1.97 0 00-1.015-.265 3.13 3.13 0 00-.967.132c-.26.088-.488.22-.686.397-.416.373-.624.908-.624 1.604 0 1.04.437 1.708 1.31 2.002.27.088.593.132.967.132.624 0 1.238-.299 1.841-.897v-2.487zm11.609-1.266c0-.167.057-.3.172-.397a.589.589 0 01.421-.162c.166 0 .301.054.405.162a.52.52 0 01.156.397v5.165a.533.533 0 01-.156.383.537.537 0 01-.405.162.588.588 0 01-.421-.162.507.507 0 01-.172-.383V72.45zm1.279-2.37a.581.581 0 01-.187.442.656.656 0 01-.468.177h-.078a.656.656 0 01-.468-.177.61.61 0 01-.171-.441v-.044a.58.58 0 01.187-.442.634.634 0 01.452-.177h.078a.66.66 0 01.468.177.58.58 0 01.187.442v.044zm7.606 2.767c-.748 0-1.45.388-2.105 1.163v3.605a.51.51 0 01-.172.383.571.571 0 01-.406.162.569.569 0 01-.405-.162.507.507 0 01-.172-.383V72.45c0-.157.052-.29.156-.397a.592.592 0 01.421-.162c.156 0 .292.054.406.162.114.098.172.23.172.397v.5c.343-.333.639-.574.889-.72.478-.266.936-.398 1.372-.398.448 0 .812.064 1.092.191.281.118.52.29.718.515.395.442.593.991.593 1.648v3.43a.51.51 0 01-.172.382.571.571 0 01-.406.162.57.57 0 01-.405-.162.51.51 0 01-.172-.383v-3.31c0-.452-.109-.805-.327-1.06-.219-.265-.577-.398-1.077-.398zm11.787-.103v-.294c0-.147.052-.275.156-.383a.57.57 0 01.811-.015.508.508 0 01.187.398v5.386c0 1.02-.26 1.8-.779 2.34-.52.55-1.259.824-2.216.824-1.019 0-1.934-.21-2.745-.633a.41.41 0 01-.218-.368.58.58 0 01.14-.397c.104-.098.208-.147.312-.147.104 0 .198.014.281.044a4.872 4.872 0 002.106.456c1.31 0 1.965-.652 1.965-1.957v-.81a2.963 2.963 0 01-2.184.913c-.811 0-1.508-.26-2.09-.78-.676-.589-1.014-1.373-1.014-2.355 0-.99.338-1.78 1.014-2.369.582-.52 1.289-.775 2.121-.765.832 0 1.55.304 2.153.912zm0 .972a3.926 3.926 0 00-.827-.618 1.966 1.966 0 00-1.014-.265c-.374 0-.696.044-.967.132a1.97 1.97 0 00-.686.397c-.416.373-.624.908-.624 1.604 0 1.04.437 1.708 1.31 2.002.271.088.593.132.967.132.624 0 1.238-.299 1.841-.897v-2.487zm6.343 1.707c.073.54.291.97.655 1.295.374.314.884.47 1.529.47.655 0 1.211-.098 1.669-.294a.929.929 0 01.39-.103c.114-.01.218.03.312.118.104.088.156.186.156.294a.466.466 0 01-.281.456 23.68 23.68 0 01-.484.236 3.187 3.187 0 01-.468.177 5.457 5.457 0 01-1.341.147c-1.051 0-1.867-.275-2.449-.824-.572-.56-.858-1.35-.858-2.37 0-.883.244-1.619.733-2.207.551-.657 1.326-.986 2.324-.986.957 0 1.711.304 2.262.912.52.57.78 1.28.78 2.134a.507.507 0 01-.172.383.535.535 0 01-.405.162h-4.352zm1.887-2.664c-.759 0-1.31.319-1.653.957a2.076 2.076 0 00-.234.809h3.775c-.031-.57-.255-1.02-.671-1.354-.333-.275-.738-.412-1.217-.412zm10.258.088c-.748 0-1.45.388-2.106 1.163v3.605a.51.51 0 01-.171.383.573.573 0 01-.406.162.569.569 0 01-.405-.162.507.507 0 01-.172-.383V72.45c0-.157.052-.29.156-.397a.59.59 0 01.421-.162c.156 0 .291.054.406.162.114.098.171.23.171.397v.5c.344-.333.64-.574.89-.72.478-.266.935-.398 1.372-.398.447 0 .811.064 1.092.191.281.118.52.29.718.515.395.442.593.991.593 1.648v3.43a.51.51 0 01-.172.382.571.571 0 01-.406.162.569.569 0 01-.405-.162.507.507 0 01-.172-.383v-3.31c0-.452-.109-.805-.327-1.06-.219-.265-.578-.398-1.077-.398zm9.416 4.356c.749 0 1.451-.382 2.106-1.148v-3.62c0-.147.052-.274.156-.382a.59.59 0 01.421-.162c.156 0 .291.054.406.162a.481.481 0 01.171.382v5.166a.525.525 0 01-.171.397.54.54 0 01-.406.162.573.573 0 01-.406-.162.526.526 0 01-.171-.397v-.486c-.343.334-.64.569-.889.706-.479.265-.941.398-1.389.398-.436 0-.8-.064-1.092-.192a2.134 2.134 0 01-.702-.5c-.395-.442-.592-.996-.592-1.663v-3.429c0-.147.052-.274.156-.382a.589.589 0 01.421-.162.57.57 0 01.405.162.479.479 0 01.172.382v3.297c0 .45.109.809.328 1.074.218.265.577.397 1.076.397zm7.715-4.753c0-.167.057-.3.172-.397a.59.59 0 01.421-.162.54.54 0 01.406.162.52.52 0 01.156.397v5.165a.54.54 0 01-.562.544.59.59 0 01-.421-.161.507.507 0 01-.172-.383V72.45zm1.279-2.37a.581.581 0 01-.187.442.656.656 0 01-.468.177h-.078a.656.656 0 01-.468-.177.61.61 0 01-.171-.441v-.044a.58.58 0 01.187-.442.634.634 0 01.452-.177h.078a.66.66 0 01.468.177.58.58 0 01.187.442v.044zm6.717 7.167c.229 0 .39-.014.484-.044a.919.919 0 01.328-.059c.114 0 .218.044.312.133.093.078.14.201.14.368 0 .157-.083.27-.25.338-.364.157-.676.236-.936.236s-.499-.015-.717-.044a1.573 1.573 0 01-.609-.192c-.468-.255-.701-.706-.701-1.354v-3.738h-.905c-.156 0-.239-.078-.25-.235 0-.069.042-.132.125-.191l1.731-1.604c.073-.069.146-.103.219-.103.073-.01.13.01.171.059a.262.262 0 01.063.176v.957h1.451a.5.5 0 01.358.132.444.444 0 01.141.339c0 .137-.047.25-.141.338a.5.5 0 01-.358.132h-1.451v3.65c0 .304.099.51.296.618.104.059.271.088.499.088zm9.837-5.357c.167 0 .302.055.406.163.114.108.171.22.171.338a.589.589 0 01-.046.265l-3.479 7.902c-.104.256-.281.383-.53.383a.552.552 0 01-.39-.162c-.104-.108-.156-.216-.156-.323 0-.099.01-.182.031-.25l.827-2.017-2.403-5.518a.76.76 0 01-.046-.28c0-.118.052-.23.156-.338a.535.535 0 01.374-.162c.281 0 .473.113.577.338l1.966 4.606 2.012-4.591c.104-.245.281-.363.53-.353z" fill="#001B50"/></svg>