<svg version="1.1" id="Слой_1" xmlns="http://www.w3.org/2000/svg" x="0" y="0" width="990" height="761" xml:space="preserve"><path opacity=".5" fill="#FFF" d="M990 .001H0V760h990V.001zM792.5 68.5c8.423 0 15.25 6.828 15.25 15.25S800.923 99 792.5 99s-15.25-6.828-15.25-15.25 6.827-15.25 15.25-15.25zM762 215c26.786 0 48.5 21.714 48.5 48.5S788.786 312 762 312s-48.5-21.714-48.5-48.5S735.214 215 762 215zm-85.25-51.5c-17.812 0-32.25-14.438-32.25-32.25 0-17.811 14.438-32.25 32.25-32.25S709 113.44 709 131.25c0 17.812-14.439 32.25-32.25 32.25zM761.997 631c-27.491 0-49.778-21.027-49.778-46.96 0-8.854 2.596-17.13 7.109-24.199 15.054-39.907 24.278-70.89 24.556-101.808.212-23.85-13.072-55.845-17.89-66.644-3.01-5.36-4.717-11.476-4.717-17.967 0-21.22 18.235-38.423 40.729-38.423 22.495 0 40.73 17.203 40.73 38.423 0 7.084-2.031 13.72-5.578 19.419-5.679 11.965-18.909 42.229-19.314 65.191-.536 30.401 8.293 61.107 26.099 100.709 4.964 7.301 7.838 15.981 7.838 25.298C811.78 609.973 789.489 631 761.997 631z"/></svg>