<svg width="42" height="42" fill="none" xmlns="http://www.w3.org/2000/svg"><path d="M20.883 4.756h0a.71.71 0 00-.367.936h0c.589 1.345.887 2.781.887 4.27v1.016c-.137.084-.272.165-.406.24-.164-.09-.33-.188-.5-.29v-.965A9.686 9.686 0 0017.64 3.07h0l-.002-.002a.456.456 0 010-.638h0l.004-.003a.456.456 0 01.637 0h0l.002.002c.333.332.646.688.93 1.058l.1-.076-.1.076a.71.71 0 001.127-.866h0a12.316 12.316 0 00-1.051-1.198h0a1.877 1.877 0 00-2.652 0h0a1.877 1.877 0 000 2.652h0a8.27 8.27 0 012.439 5.888v.114c-1.306-.733-2.946-1.427-5.3-1.427-3.724 0-7.07 1.489-9.419 4.193-2.245 2.588-3.48 6.14-3.48 9.998 0 6.122 3.56 10.79 5.673 13.021 1.463 1.546 3.101 2.86 4.658 3.787 1.553.925 3.04 1.476 4.197 1.476 1.298 0 2.242-.211 2.97-.502.728-.29 1.235-.66 1.654-.964l.002-.001c.473-.345.696-.49.97-.49s.498.138.97.46l.002.001c.435.298.961.657 1.726.94.765.283 1.765.488 3.15.488 1.207 0 2.695-.536 4.234-1.455 1.543-.92 3.15-2.232 4.596-3.799 2.03-2.197 5.444-6.792 5.444-12.82 0-3.866-1.232-7.442-3.477-10.065-2.356-2.752-5.704-4.268-9.423-4.268-2.518 0-4.137.704-5.396 1.441v-.128c0-1.686-.339-3.315-1.006-4.84l-.115.05.115-.05a.711.711 0 00-.936-.367zm-.2 7.902h0a.71.71 0 00.63 0h0c.411-.203.796-.441 1.188-.69l.196-.125c.666-.424 1.323-.84 2.13-1.165.882-.355 1.946-.599 3.394-.606 6.642 0 11.479 5.413 11.479 12.911 0 5.535-3.17 9.8-5.067 11.856-1.458 1.58-2.994 2.78-4.374 3.586-1.383.808-2.596 1.21-3.411 1.21-1.18 0-2.006-.164-2.63-.392-.625-.228-1.055-.521-1.447-.79l-.01-.006c-.51-.348-1.026-.7-1.763-.7-.759 0-1.28.38-1.795.753l-.01.008c-.373.271-.782.567-1.365.798-.582.23-1.345.397-2.425.397-.77 0-1.977-.411-3.376-1.228-1.393-.814-2.96-2.02-4.447-3.59-1.978-2.09-5.283-6.424-5.283-12.044 0-7.415 4.836-12.77 11.479-12.77 2.598 0 4.163.96 5.564 1.817l.002.002c.455.278.89.545 1.341.768z" fill="#2F8FFF" stroke="#2F8FFF" stroke-width=".25"/><mask id="path-2-inside-1_2_651" fill="#fff"><path d="M35.768 14.523c-1.906-2.227-4.516-3.404-7.547-3.404-2.102 0-6.1 2.197-7.226 2.84-1.199-.672-5.22-2.84-7.22-2.84-3.044 0-5.656 1.156-7.555 3.343-1.855 2.136-2.877 5.112-2.877 8.38-.209 4.383 3.059 9.498 4.997 11.324 2.901 3.064 5.93 4.49 7.063 4.49 1.805 0 2.501-.505 3.175-.995.588-.428 1.321-.96 2.42-.96 1.06 0 1.782.492 2.362.889.72.491 1.465 1 3.487 1 .992 0 3.1-.902 5.388-2.881a.586.586 0 00-.767-.886c-2.068 1.79-3.947 2.595-4.62 2.595-1.661 0-2.201-.369-2.827-.796-.54-.368-1.313-.894-2.398-1.048v-14.8a.586.586 0 10-1.172 0v2.881l-11.718-9.88c1.43-.977 3.139-1.485 5.042-1.485 1.535 0 5.122 1.836 6.676 2.708v3.015a.586.586 0 101.172 0V14.95c1.554-.888 4.987-2.66 6.598-2.66 2.678 0 4.98 1.036 6.657 2.995 1.679 1.961 2.603 4.695 2.603 7.698 0 4.559-2.59 8.202-4.134 9.968a.586.586 0 10.882.771c1.652-1.89 4.424-5.797 4.424-10.739 0-3.282-1.024-6.286-2.885-8.46zm-17.88 22.19c-.616.449-1.061.772-2.485.772-.576 0-2.649-.857-4.965-2.916l3.508-2.959a.586.586 0 10-.756-.895L9.58 33.76c-.13-.13-.26-.262-.39-.4-1.42-1.5-3.622-4.305-4.395-7.912h14.64l-4.122 3.476a.586.586 0 10.755.895l4.383-3.697v9.44c-1.18.147-1.997.74-2.563 1.152zm1.482-12.437H4.601a12.203 12.203 0 01-.086-1.434c0-2.986.92-5.689 2.59-7.612.22-.254.45-.49.692-.713l11.573 9.759z"/></mask><path d="M35.768 14.523c-1.906-2.227-4.516-3.404-7.547-3.404-2.102 0-6.1 2.197-7.226 2.84-1.199-.672-5.22-2.84-7.22-2.84-3.044 0-5.656 1.156-7.555 3.343-1.855 2.136-2.877 5.112-2.877 8.38-.209 4.383 3.059 9.498 4.997 11.324 2.901 3.064 5.93 4.49 7.063 4.49 1.805 0 2.501-.505 3.175-.995.588-.428 1.321-.96 2.42-.96 1.06 0 1.782.492 2.362.889.72.491 1.465 1 3.487 1 .992 0 3.1-.902 5.388-2.881a.586.586 0 00-.767-.886c-2.068 1.79-3.947 2.595-4.62 2.595-1.661 0-2.201-.369-2.827-.796-.54-.368-1.313-.894-2.398-1.048v-14.8a.586.586 0 10-1.172 0v2.881l-11.718-9.88c1.43-.977 3.139-1.485 5.042-1.485 1.535 0 5.122 1.836 6.676 2.708v3.015a.586.586 0 101.172 0V14.95c1.554-.888 4.987-2.66 6.598-2.66 2.678 0 4.98 1.036 6.657 2.995 1.679 1.961 2.603 4.695 2.603 7.698 0 4.559-2.59 8.202-4.134 9.968a.586.586 0 10.882.771c1.652-1.89 4.424-5.797 4.424-10.739 0-3.282-1.024-6.286-2.885-8.46zm-17.88 22.19c-.616.449-1.061.772-2.485.772-.576 0-2.649-.857-4.965-2.916l3.508-2.959a.586.586 0 10-.756-.895L9.58 33.76c-.13-.13-.26-.262-.39-.4-1.42-1.5-3.622-4.305-4.395-7.912h14.64l-4.122 3.476a.586.586 0 10.755.895l4.383-3.697v9.44c-1.18.147-1.997.74-2.563 1.152zm1.482-12.437H4.601a12.203 12.203 0 01-.086-1.434c0-2.986.92-5.689 2.59-7.612.22-.254.45-.49.692-.713l11.573 9.759z" fill="#08F8FF"/><path d="M20.995 13.96l-.979 1.744.988.554.983-.562-.992-1.736zm-14.775.502l1.51 1.311-1.51-1.311zm-2.877 8.38l1.998.095.002-.048v-.047h-2zM8.34 34.166l1.452-1.375-.04-.042-.04-.04-1.372 1.457zm10.238 3.495l-1.176-1.618 1.175 1.618zm4.782-.071l-1.127 1.651 1.127-1.651zm8.875-1.881l-1.309-1.513 1.309 1.513zm.06-.827l-1.514 1.309h.001l1.512-1.309zm-.827-.06l1.309 1.513-1.309-1.512zm-7.447 1.8l-1.128 1.652 1.128-1.652zm-2.398-1.048h-2v1.736l1.719.244.28-1.98zM20.45 23.655l-1.29 1.529 3.29 2.774v-4.303h-2zm-11.718-9.88l-1.128-1.652-2.172 1.484 2.011 1.696 1.29-1.529zm11.718 1.223h2v-1.17l-1.02-.573-.98 1.743zm1.172-.048l-.992-1.737-1.008.576v1.16h2zm13.255.335l-1.52 1.3 1.52-1.3zm-1.53 17.666l1.505 1.316-1.506-1.316zm.055.827l-1.317 1.505 1.317-1.505zm.826-.056l-1.505-1.316 1.505 1.316zm4.424-10.739h-2 2zm-20.765 13.73l1.176 1.618-1.176-1.617zm-7.45-2.144l-1.29-1.529-1.765 1.49 1.726 1.534 1.329-1.495zm3.508-2.959l-1.29-1.529 1.29 1.529zm.07-.825l1.528-1.29-1.528 1.29zm-.826-.07l1.29 1.528-1.29-1.528zM9.58 33.76l-1.414 1.413 1.299 1.3 1.405-1.185-1.29-1.528zm-.39-.4l-1.45 1.375 1.45-1.375zm-4.395-7.912v-2H2.32l.52 2.419 1.955-.42zm14.64 0l1.289 1.528 4.183-3.528h-5.473v2zm-4.122 3.476l1.29 1.529-1.29-1.53zm-.07.825l-1.529 1.29 1.529-1.29zm.825.07l-1.29-1.528 1.29 1.528zm4.383-3.697h2V21.82l-3.29 2.774 1.29 1.53zm0 9.44l.246 1.985 1.754-.217v-1.767h-2zm-1.08-11.286v2h5.473l-4.185-3.53-1.289 1.53zm-14.77 0l-1.986.235.208 1.765h1.778v-2zm2.503-9.046l-1.51-1.312 1.51 1.312zm.693-.713l1.29-1.529-1.345-1.134-1.297 1.19 1.352 1.473zm29.49-1.294c-2.3-2.689-5.473-4.104-9.066-4.104v4c2.47 0 4.516.938 6.028 2.705l3.039-2.601zm-9.066-4.104c-.826 0-1.696.206-2.457.445-.788.247-1.597.575-2.34.91a41.504 41.504 0 00-3.422 1.75l1.986 3.472a37.497 37.497 0 013.073-1.574c.66-.296 1.314-.557 1.902-.742.615-.193 1.033-.261 1.258-.261v-4zm-6.247 3.097A44.496 44.496 0 0018.5 10.46a22.43 22.43 0 00-2.319-.9c-.743-.234-1.6-.441-2.406-.441v4c.194 0 .59.063 1.201.256.58.183 1.233.443 1.896.739a40.327 40.327 0 013.144 1.59l1.958-3.488zm-8.199-3.097c-3.59 0-6.765 1.382-9.066 4.032l3.02 2.622c1.498-1.725 3.548-2.654 6.046-2.654v-4zM4.71 13.15c-2.219 2.556-3.366 6.021-3.366 9.691h4c0-2.864.896-5.351 2.387-7.068L4.71 13.15zm-3.364 9.596c-.127 2.677.796 5.41 1.904 7.615 1.113 2.213 2.544 4.153 3.72 5.26l2.74-2.911c-.762-.718-1.934-2.25-2.888-4.146-.957-1.904-1.564-3.92-1.482-5.627l-3.996-.19zm5.543 12.795c1.579 1.667 3.21 2.908 4.635 3.744.712.418 1.393.746 2.01.976.577.214 1.239.396 1.87.396v-4c.065 0-.077.003-.477-.146a9.046 9.046 0 01-1.38-.676c-1.097-.644-2.432-1.648-3.754-3.044l-2.904 2.75zm8.515 5.116c1.094 0 1.974-.154 2.735-.45.752-.292 1.282-.685 1.616-.928L17.4 36.043c-.34.247-.494.352-.71.435-.206.08-.578.179-1.288.179v4zm4.35-1.378c.595-.432.856-.579 1.245-.579v-4c-1.809 0-3.013.92-3.596 1.343l2.351 3.236zm1.245-.579c.385 0 .651.143 1.235.541l2.255-3.303c-.577-.394-1.756-1.238-3.49-1.238v4zm1.235.542c.363.247.916.632 1.711.916.795.283 1.724.431 2.903.431v-4c-.842 0-1.297-.105-1.56-.2-.262-.093-.442-.207-.799-.451l-2.255 3.304zm4.614 1.347c.966 0 2.078-.392 3.11-.912 1.096-.554 2.33-1.37 3.587-2.456l-2.618-3.025c-1.031.893-1.995 1.518-2.772 1.91a6.37 6.37 0 01-.96.401c-.264.082-.371.082-.347.082v4zm6.696-3.368a2.586 2.586 0 00.264-3.647l-3.025 2.617a1.414 1.414 0 01.144-1.995l2.617 3.025zm.264-3.647a2.586 2.586 0 00-3.648-.263l2.619 3.023a1.414 1.414 0 01-1.996-.143l3.025-2.617zm-3.648-.264c-.923.8-1.783 1.36-2.451 1.71a5.851 5.851 0 01-.791.351c-.227.078-.227.047-.07.047v4c.494 0 .982-.132 1.361-.261a9.794 9.794 0 001.354-.593c.956-.5 2.07-1.238 3.215-2.229L30.16 33.31zm-3.312 2.108c-.687 0-1-.077-1.147-.128-.141-.049-.235-.104-.552-.32l-2.255 3.304c.31.211.798.554 1.5.796.694.24 1.48.348 2.454.348v-4zm-1.699-.448c-.548-.374-1.658-1.15-3.244-1.376l-.562 3.96c.584.083 1.021.358 1.551.72l2.255-3.304zm-1.525.604v-14.8h-4v14.8h4zm0-14.8a2.586 2.586 0 00-2.586-2.585v4c-.78 0-1.414-.633-1.414-1.414h4zm-2.586-2.585a2.586 2.586 0 00-2.586 2.586h4c0 .78-.633 1.414-1.414 1.414v-4zm-2.586 2.586v2.88h4v-2.88h-4zm3.29 1.351l-11.718-9.88-2.579 3.057 11.718 9.88 2.579-3.057zm-11.88-6.7c1.068-.73 2.377-1.136 3.914-1.136v-4c-2.27 0-4.38.61-6.17 1.833l2.257 3.303zm3.914-1.136c-.001 0 .02 0 .067.006.046.006.108.016.187.033.161.033.363.087.605.165.486.157 1.057.384 1.662.652a40.256 40.256 0 013.176 1.596l1.958-3.488a44.24 44.24 0 00-3.514-1.766c-.678-.3-1.388-.586-2.055-.8-.625-.202-1.38-.398-2.086-.398v4zm4.676.708v3.015h4v-3.015h-4zm0 3.015a2.586 2.586 0 002.586 2.586v-4c.78 0 1.414.633 1.414 1.414h-4zm2.586 2.586a2.586 2.586 0 002.586-2.586h-4c0-.78.633-1.414 1.414-1.414v4zm2.586-2.586V14.95h-4v3.063h4zm-1.008-1.327a35.93 35.93 0 013.094-1.57 16.095 16.095 0 011.62-.627c.511-.16.796-.199.892-.199v-4c-.71 0-1.458.184-2.092.383-.668.21-1.37.49-2.036.785a39.934 39.934 0 00-3.462 1.755l1.984 3.473zm5.606-2.396c2.12 0 3.857.8 5.138 2.295l3.039-2.6c-2.074-2.423-4.94-3.695-8.177-3.695v4zm5.138 2.296c1.319 1.54 2.122 3.79 2.122 6.398h4c0-3.398-1.045-6.618-3.083-9l-3.04 2.601zm2.122 6.398c0 3.828-2.203 7.007-3.64 8.65l3.012 2.633c1.651-1.888 4.628-5.995 4.628-11.284h-4zm-3.64 8.65a2.586 2.586 0 00.245 3.649l2.633-3.011c.588.514.648 1.407.134 1.995l-3.011-2.633zm.245 3.65a2.586 2.586 0 003.649-.246l-3.011-2.632a1.414 1.414 0 011.995-.134l-2.633 3.011zm3.649-.245c1.765-2.019 4.918-6.39 4.918-12.056h-4c0 4.216-2.39 7.662-3.93 9.423l3.012 2.633zm4.918-12.055c0-3.685-1.15-7.173-3.365-9.761l-3.04 2.6c1.506 1.76 2.405 4.28 2.405 7.16h4zm-23.94 12.112c-.327.237-.388.27-.465.298-.07.026-.28.091-.845.091v4c.858 0 1.583-.096 2.246-.344.655-.245 1.125-.599 1.415-.81l-2.352-3.235zm-1.31.39c.22 0 .254.049-.014-.048a6.827 6.827 0 01-.871-.401c-.74-.397-1.709-1.036-2.751-1.963l-2.658 2.99c1.274 1.132 2.5 1.951 3.519 2.498.508.273.983.487 1.402.638.356.129.866.285 1.373.285v-4zm-3.676.612l3.508-2.96-2.579-3.057-3.508 2.96 2.58 3.057zm3.508-2.96a2.586 2.586 0 00.31-3.643l-3.058 2.579a1.414 1.414 0 01.17-1.993l2.578 3.058zm.31-3.643a2.586 2.586 0 00-3.645-.309l2.58 3.057a1.414 1.414 0 01-1.993-.169l3.057-2.58zm-3.644-.31l-3.61 3.046 2.579 3.057 3.61-3.045-2.58-3.057zm-.906 3.16a16.83 16.83 0 01-.352-.36l-2.904 2.75c.146.155.29.3.427.438l2.829-2.827zm-.352-.36c-1.311-1.385-3.23-3.869-3.893-6.957l-3.91.839c.884 4.125 3.37 7.253 4.899 8.868l2.904-2.75zm-5.848-4.537h14.64v-4H4.794v4zm13.35-3.53l-4.122 3.477 2.58 3.058 4.12-3.477-2.578-3.057zm-4.121 3.477a2.586 2.586 0 00-.31 3.644l3.058-2.58a1.414 1.414 0 01-.17 1.994l-2.578-3.058zm-.31 3.644a2.586 2.586 0 003.645.308l-2.581-3.056a1.414 1.414 0 011.993.168l-3.057 2.58zm3.644.309l4.383-3.697-2.58-3.058-4.382 3.698 2.579 3.057zm1.093-5.226v9.44h4v-9.44h-4zm1.754 7.456c-1.736.215-2.92 1.102-3.493 1.518l2.352 3.235c.56-.406 1.01-.707 1.633-.784l-.492-3.97zm-.835-11.302H4.601v4h14.77v-4zM6.587 24.04a10.2 10.2 0 01-.072-1.2h-4c0 .574.036 1.131.1 1.67l3.972-.47zm-.072-1.2c0-2.59.798-4.802 2.1-6.3l-3.02-2.622c-2.04 2.348-3.08 5.543-3.08 8.922h4zm2.1-6.3c.17-.196.348-.379.535-.55l-2.705-2.947a10.77 10.77 0 00-.85.874l3.02 2.623zm-2.107-.495l11.573 9.759 2.578-3.058-11.572-9.759-2.579 3.058z" fill="#08F8FF" mask="url(#path-2-inside-1_2_651)"/><path d="M24.669 22.012c-.302 0-.59.13-.79.356-.495.56-1.085 1.446-1.085 2.493 0 1.048.59 1.934 1.085 2.494a1.056 1.056 0 001.58 0c.495-.56 1.085-1.446 1.085-2.494 0-1.047-.59-1.934-1.085-2.493a1.055 1.055 0 00-.79-.356zm0 4.464c-.296-.356-.703-.965-.703-1.615s.407-1.258.703-1.615c.296.357.703.966.703 1.615 0 .65-.407 1.259-.703 1.615z" fill="#2F8FFF"/></svg>