<svg width="34" height="40" fill="none" xmlns="http://www.w3.org/2000/svg"><path d="M19.727 11.11a.78.78 0 00.78-.78V7.974h4.504a4.602 4.602 0 003.875 2.119 4.526 4.526 0 004.52-4.521 4.526 4.526 0 00-6.164-4.213A3.898 3.898 0 0024.291 0a3.862 3.862 0 00-3.556 2.315 3.754 3.754 0 00-1.85 1.25 2.778 2.778 0 00-.505-.045c-.716 0-1.426.335-1.948.92-.471.527-.75 1.209-.818 1.971h-3.616a.781.781 0 00-.781.782v3.136c0 .432.35.782.781.782h.612v6.044L.43 35.71a2.772 2.772 0 00-.068 2.857A2.77 2.77 0 002.81 40h26.107a2.77 2.77 0 002.445-1.434 2.772 2.772 0 00-.068-2.856L19.16 17.228v-6.117h.567zm-2.13-5.63c.223-.249.516-.398.783-.398.177 0 .346.037.504.11a.781.781 0 001.014-.338 2.167 2.167 0 011.547-1.103.781.781 0 00.622-.543 2.312 2.312 0 012.224-1.646c.832 0 1.606.45 2.02 1.174a.781.781 0 001.075.285 2.961 2.961 0 014.457 2.55 2.961 2.961 0 01-2.957 2.96c-1.14 0-2.23-.675-2.713-1.678a.781.781 0 00-.704-.442h-8.282c.054-.368.193-.688.41-.93zM12.78 7.975h6.166v1.574H12.78V7.974zm4.947 9.917L29.98 36.556c.232.387.24.852.018 1.247a1.227 1.227 0 01-1.082.635H2.809c-.455 0-.86-.238-1.083-.635a1.228 1.228 0 01.02-1.247l12.298-18.74a.782.782 0 00.128-.428v-6.277h3.426v6.351a.78.78 0 00.128.429z" fill="#2F8FFF"/><path d="M13.9 22.877L5.432 35.781h20.863l-8.472-12.904h-3.921zm10.08-7.613a1.945 1.945 0 100-3.89 1.945 1.945 0 000 3.89z" fill="#08F8FF"/></svg>