<svg width="46" height="55" viewBox="0 0 46 55" fill="none" xmlns="http://www.w3.org/2000/svg">
<path d="M27.1239 15.2774C27.7171 15.2774 28.1981 14.7964 28.1981 14.2032V10.9641H34.3896C35.5226 12.7539 37.5444 13.8779 39.7175 13.8779C43.1444 13.8779 45.9323 11.0891 45.9323 7.66101C45.9323 4.23296 43.1444 1.44407 39.7175 1.44407C38.9411 1.44407 38.1746 1.5892 37.4583 1.86839C36.4527 0.697275 34.9716 0 33.3998 0C31.2488 0 29.3561 1.25544 28.5103 3.1828C27.5109 3.48208 26.6188 4.08708 25.9676 4.90263C25.7402 4.86062 25.5082 4.83957 25.2725 4.83957C24.2884 4.83957 23.3122 5.30062 22.5939 6.10446C21.9457 6.82999 21.5615 7.76703 21.4694 8.81558H16.4974C15.9042 8.81558 15.4232 9.29661 15.4232 9.8898V14.2031C15.4232 14.7963 15.9042 15.2773 16.4974 15.2773H17.3385V23.5876L0.593069 49.1009C0.586838 49.1104 0.58093 49.1198 0.575022 49.1295C-0.164041 50.3365 -0.192293 51.7944 0.499611 53.0291C1.19098 54.2632 2.44824 55 3.86256 55H39.7589C41.1733 55 42.4306 54.2632 43.122 53.0289C43.8138 51.7942 43.7856 50.3365 43.0465 49.1294C43.0406 49.1197 43.0346 49.1102 43.0284 49.1007L26.345 23.689V15.2773H27.1239V15.2774ZM24.1962 7.53575C24.5027 7.19275 24.9051 6.9879 25.2726 6.9879C25.5152 6.9879 25.7486 7.03882 25.966 7.13904C26.4809 7.37602 27.091 7.17277 27.3605 6.67466C27.7955 5.87061 28.5906 5.30353 29.4874 5.15775C29.8916 5.09212 30.2232 4.8024 30.3426 4.41096C30.7554 3.05766 31.984 2.14844 33.3998 2.14844C34.5436 2.14844 35.6078 2.76654 36.1766 3.76159C36.3192 4.01113 36.556 4.19321 36.8339 4.2668C37.1118 4.3406 37.4075 4.29967 37.6552 4.15357C38.2771 3.78651 38.9903 3.5924 39.7175 3.5924C41.9597 3.5924 43.7839 5.4175 43.7839 7.6609C43.7839 9.9043 41.9597 11.7294 39.7175 11.7294C38.1518 11.7294 36.6529 10.8026 35.9873 9.42305C35.8081 9.05158 35.4321 8.81558 35.0197 8.81558H23.6319C23.7068 8.30865 23.898 7.86973 24.1962 7.53575ZM17.5717 10.964H26.0497V13.1289H17.5717V10.964ZM24.3728 24.5997L41.2221 50.2641C41.542 50.7963 41.5517 51.4362 41.2477 51.9789C40.9416 52.5253 40.385 52.8516 39.759 52.8516H3.86256C3.23651 52.8516 2.67995 52.5253 2.37391 51.9789C2.0698 51.4362 2.07968 50.7962 2.39958 50.2639L19.311 24.4982C19.4258 24.3231 19.4872 24.1183 19.4872 23.9088V15.2774H24.1967V24.0102C24.1966 24.2197 24.2579 24.4245 24.3728 24.5997Z" fill="url(#paint0_linear_2_860)"/>
<path d="M19.1129 31.4563L7.46729 49.1992H36.1539L24.5053 31.4563H19.1129Z" fill="#08F8FF"/>
<path d="M32.9714 20.9887C34.4484 20.9887 35.6458 19.7913 35.6458 18.3143C35.6458 16.8372 34.4484 15.6398 32.9714 15.6398C31.4943 15.6398 30.2969 16.8372 30.2969 18.3143C30.2969 19.7913 31.4943 20.9887 32.9714 20.9887Z" fill="#08F8FF"/>
<defs>
<linearGradient id="paint0_linear_2_860" x1="22.9661" y1="0" x2="22.9661" y2="55" gradientUnits="userSpaceOnUse">
<stop stop-color="#1D0583"/>
<stop offset="1" stop-color="#200594"/>
</linearGradient>
</defs>
</svg>
