<svg width="55" height="55" viewBox="0 0 55 55" fill="none" xmlns="http://www.w3.org/2000/svg">
<path fill-rule="evenodd" clip-rule="evenodd" d="M27.5133 38.2289C33.4297 38.2289 38.2551 33.4035 38.2551 27.4871C37.7057 13.258 17.3188 13.262 16.7715 27.4872C16.7715 33.4035 21.5968 38.2289 27.5133 38.2289Z" fill="#08F8FF"/>
<path d="M33.1376 25.4991C34.3448 24.7453 33.3186 22.9702 32.0635 23.6386L30.7521 24.3957L28.5873 23.1459V21.6176C28.5344 20.1938 26.4912 20.1949 26.4389 21.6176V23.1459L24.2863 24.3887L22.9506 23.6177C21.6942 22.9492 20.67 24.7254 21.8765 25.4782L23.2164 26.2518V28.7184L21.8644 29.499C21.3506 29.7957 21.1746 30.4526 21.4713 30.9664C21.7696 31.4849 22.434 31.6535 22.9386 31.3595L24.2827 30.5834L26.4147 31.8142V33.3805C26.4675 34.8042 28.5107 34.8031 28.563 33.3805V31.8423L30.707 30.6045L32.0512 31.3806C32.5559 31.6746 33.2202 31.5059 33.5185 30.9874C33.8152 30.4736 33.6392 29.8168 33.1254 29.5201L31.8098 28.7605V26.2658L33.1376 25.4991ZM25.3648 26.2467L27.5131 25.0064L29.6615 26.2467V28.7275L27.5131 29.9678L25.3648 28.7275V26.2467Z" fill="url(#paint0_linear_2_910)"/>
<path d="M51.2348 10.3528C48.8413 6.13422 45.4183 2.60736 41.3359 0.153393C40.9953 -0.051131 40.5695 -0.051131 40.229 0.153393C35.7377 2.85313 32.111 6.77357 29.7027 11.5226C16.1057 9.60812 6.49254 24.9042 14.0189 36.2836L1.17352 48.3335C0.434699 49.0266 0.0187758 49.9778 0.00223344 51.0118C-0.0743557 53.1708 1.83006 55.0747 3.9883 54.9977C5.02242 54.9813 5.97371 54.5654 6.66667 53.8267L18.7165 40.9812C22.6058 43.6274 28.2376 44.3647 32.761 42.7224C34.7282 45.2131 37.0606 47.317 39.7084 48.9894V53.9239C39.7612 55.3476 41.8044 55.3465 41.8567 53.9239V48.9893C54.6168 41.1558 58.7569 23.2112 51.2348 10.3528ZM5.09987 52.3568C4.80844 52.6675 4.40154 52.8424 3.95414 52.8497C3.47216 52.8571 3.00468 52.6687 2.66814 52.3322C2.33149 51.9955 2.14275 51.5267 2.15038 51.046C2.15747 50.5988 2.33267 50.192 2.64343 49.9003L12.1656 40.9679L14.0323 42.8346L5.09987 52.3568ZM15.5029 41.2668L13.7333 39.4972L15.3197 38.009C15.8356 38.606 16.3942 39.1646 16.9912 39.6805L15.5029 41.2668ZM13.5486 27.4871C13.5486 19.7871 19.813 13.5226 27.513 13.5226C46.0131 14.2247 46.0081 40.7523 27.5128 41.4515C19.813 41.4515 13.5486 35.1872 13.5486 27.4871ZM34.816 41.8477C36.6867 40.8926 38.3473 39.5824 39.7084 38.0068V46.404C37.8929 45.1137 36.255 43.5885 34.816 41.8477ZM41.8567 46.4023V41.4233L47.5941 35.686C48.0136 35.2665 48.0136 34.5864 47.5941 34.1668C47.1746 33.7473 46.4945 33.7474 46.0749 34.1668L41.8567 38.385V34.8233C42.3748 33.8145 42.7895 32.7443 43.0869 31.6266L49.9402 24.7733C50.3596 24.3538 50.3596 23.6737 49.9402 23.2541C49.5207 22.8347 48.8405 22.8347 48.4209 23.2541L43.6157 28.0593C43.6908 26.0209 43.3651 23.9731 42.7124 22.1356L47.5941 17.2539C48.0136 16.8345 48.0136 16.1543 47.5941 15.7347C47.1747 15.3154 46.4945 15.3154 46.0749 15.7347L41.8567 19.9529V9.87119C41.8039 8.44747 39.7607 8.44854 39.7084 9.87119V16.9673C37.6721 14.61 34.9656 12.8471 31.8879 11.9778C34.0062 8.01618 37.0546 4.70996 40.7823 2.3372C56.2906 11.9315 56.8332 36.0473 41.8567 46.4023Z" fill="url(#paint1_linear_2_910)"/>
<defs>
<linearGradient id="paint0_linear_2_910" x1="27.5017" y1="20.5502" x2="27.5017" y2="34.4479" gradientUnits="userSpaceOnUse">
<stop stop-color="#1D0583"/>
<stop offset="1" stop-color="#200594"/>
</linearGradient>
<linearGradient id="paint1_linear_2_910" x1="27.4913" y1="0" x2="27.4913" y2="55" gradientUnits="userSpaceOnUse">
<stop stop-color="#1D0583"/>
<stop offset="1" stop-color="#200594"/>
</linearGradient>
</defs>
</svg>
