<svg width="40" height="40" fill="none" xmlns="http://www.w3.org/2000/svg"><path fill-rule="evenodd" clip-rule="evenodd" d="M20.01 27.803c4.302 0 7.812-3.51 7.812-7.813-.4-10.348-15.227-10.345-15.625 0 0 4.303 3.51 7.813 7.813 7.813z" fill="#08F8FF"/><path d="M24.1 18.545c.878-.549.131-1.84-.782-1.353l-.953.55-1.575-.909v-1.111c-.038-1.036-1.524-1.035-1.562 0v1.111l-1.566.904-.971-.56c-.914-.487-1.659.805-.781 1.353l.974.562v1.794l-.983.568a.781.781 0 10.781 1.353l.978-.564 1.55.895v1.139c.039 1.035 1.525 1.034 1.563 0v-1.119l1.559-.9.978.564a.782.782 0 00.78-1.353l-.956-.552v-1.815l.966-.557zm-5.653.543l1.562-.902 1.563.902v1.805l-1.563.902-1.562-.902v-1.805z" fill="#2F8FFF"/><path d="M37.262 7.53c-1.741-3.069-4.23-5.634-7.2-7.418a.782.782 0 00-.805 0c-3.266 1.963-5.904 4.814-7.655 8.268-9.889-1.392-16.88 9.732-11.406 18.008L.853 35.152a2.703 2.703 0 00-.851 1.947C-.054 38.67 1.33 40.054 2.9 40a2.704 2.704 0 001.947-.852l8.764-9.342c2.829 1.924 6.924 2.46 10.214 1.266a20.102 20.102 0 005.053 4.558v3.588c.038 1.036 1.524 1.035 1.562 0V35.63c9.28-5.697 12.291-18.748 6.82-28.1zM3.709 38.077a1.154 1.154 0 01-.833.358c-.35.005-.69-.132-.936-.376a1.3 1.3 0 01-.376-.936c.005-.325.132-.62.358-.833l6.926-6.496 1.357 1.357-6.496 6.926zm7.566-8.066l-1.287-1.287 1.154-1.082c.375.434.781.84 1.215 1.215l-1.082 1.154zm-1.421-10.02c0-5.6 4.556-10.156 10.155-10.156 13.455.51 13.451 19.803 0 20.311-5.6 0-10.155-4.555-10.155-10.155zM25.32 30.435a11.794 11.794 0 003.558-2.794v6.107a18.563 18.563 0 01-3.558-3.313zm5.12 3.312v-3.62l4.173-4.174a.781.781 0 00-1.105-1.104l-3.068 3.067v-2.59c.377-.734.679-1.512.895-2.325l4.984-4.984a.781.781 0 10-1.105-1.105l-3.495 3.495a11.712 11.712 0 00-.656-4.308l3.55-3.55a.781.781 0 00-1.105-1.106l-3.068 3.068V7.18c-.038-1.035-1.524-1.035-1.562 0v5.16a11.744 11.744 0 00-5.688-3.628A18.761 18.761 0 0129.66 1.7c11.279 6.977 11.673 24.516.781 32.047z" fill="#2F8FFF"/></svg>