<svg width="55" height="55" viewBox="0 0 55 55" fill="none" xmlns="http://www.w3.org/2000/svg">
<g clip-path="url(#clip0_2_891)">
<path d="M50.2577 16.4991C47.0522 12.7536 42.4973 10.6909 37.432 10.6909C33.8335 10.6909 31.5899 11.7462 29.8401 12.8023V12.324C29.8401 10.0289 29.3795 7.8127 28.4714 5.7371C28.293 5.32951 27.8178 5.14414 27.4106 5.3221C27.003 5.50039 26.8172 5.97542 26.9955 6.383C27.8141 8.25368 28.2291 10.2525 28.2291 12.324V13.8152C27.9832 13.9678 27.7407 14.1134 27.4993 14.2459C27.2182 14.0939 26.9316 13.9248 26.6386 13.7477V12.324C26.6386 8.7895 25.2621 5.46656 22.763 2.96737C22.4545 2.67137 22.4545 2.13878 22.763 1.84279C23.0589 1.53423 23.5916 1.53423 23.8876 1.84279C24.3502 2.30536 24.7852 2.80079 25.1807 3.31534C25.4519 3.66804 25.9574 3.7342 26.3103 3.46312C26.663 3.19215 26.7291 2.68641 26.458 2.3336C26.0201 1.76374 25.5385 1.21536 25.0267 0.703491C24.0886 -0.234538 22.562 -0.234538 21.6238 0.703491C20.6856 1.64173 20.6856 3.16821 21.6238 4.10656C23.8188 6.30148 25.0276 9.21975 25.0276 12.324V12.7767C23.206 11.7254 20.922 10.6909 17.5693 10.6909C12.496 10.6909 7.94234 12.7174 4.74731 16.3973C1.68782 19.9207 0.00292969 24.7629 0.00292969 30.0319C0.00292969 38.3828 4.86061 44.7599 7.75622 47.8178C11.7604 52.0465 16.7161 55 19.8075 55C23.3363 55 24.9144 53.8528 26.0667 53.0152C26.7043 52.5516 27.0576 52.3098 27.5005 52.3098C27.942 52.3098 28.295 52.5367 28.9322 52.9717C30.1287 53.7884 31.7676 54.9071 35.5433 54.9071C38.7711 54.9071 43.5993 52.026 47.5579 47.7379C50.3366 44.7279 54.9981 38.4503 54.9981 30.227C54.9982 24.9464 53.3146 20.0711 50.2577 16.4991ZM46.3743 46.6451C42.3435 51.0115 37.8746 53.2961 35.5435 53.2961C32.2652 53.2961 30.9208 52.3785 29.8407 51.6411C29.1308 51.1564 28.4602 50.6988 27.5007 50.6988C26.5136 50.6988 25.8364 51.191 25.1196 51.7122C24.0919 52.4593 22.8128 53.3891 19.8077 53.3891C17.5984 53.3891 13.0339 51.0484 8.92612 46.7102C6.19527 43.8262 1.61403 37.8246 1.61403 30.0319C1.61403 19.7584 8.32425 12.3019 17.5693 12.3019C21.1933 12.3019 23.3804 13.6422 25.3102 14.8249C25.9377 15.2095 26.5304 15.5728 27.1437 15.8761C27.3688 15.9872 27.6327 15.9872 27.8577 15.8761C28.4135 15.6012 28.9355 15.2776 29.4746 14.9345C31.4891 13.6605 33.4089 12.3221 37.432 12.3019C46.6771 12.3019 53.3873 19.8405 53.3873 30.227C53.3872 37.9023 48.9934 43.8079 46.3743 46.6451Z" fill="url(#paint0_linear_2_891)"/>
<path d="M47.8093 18.5941C45.1885 15.5316 41.5998 13.9129 37.4315 13.9129C34.5418 13.9129 29.0454 16.9338 27.496 17.8196C25.8479 16.895 20.3191 13.9129 17.5688 13.9129C13.3834 13.9129 9.79084 15.5024 7.17974 18.5097C4.62921 21.4472 3.22453 25.5391 3.22453 30.0319C2.93756 36.0588 7.4302 43.0924 10.0954 45.6026C14.0846 49.8154 18.2489 51.778 19.8073 51.778C22.2885 51.778 23.2459 51.0822 24.172 50.4089C24.9818 49.8204 25.9895 49.0877 27.5002 49.0877C28.9572 49.0877 29.9504 49.7657 30.7486 50.3106C31.7386 50.9864 32.7623 51.6851 35.543 51.6851C36.9065 51.6851 39.806 50.4456 42.9507 47.7242C43.2871 47.4332 43.3238 46.9245 43.0326 46.5881C42.7416 46.2515 42.2327 46.2149 41.8965 46.5061C39.0527 48.9671 36.4692 50.0742 35.543 50.0742C33.2597 50.0742 32.5169 49.5671 31.6567 48.98C30.9152 48.4738 29.8514 47.7509 28.3593 47.539V27.19C28.3593 26.745 27.9986 26.3845 27.5538 26.3845C27.1089 26.3845 26.7483 26.745 26.7483 27.19V31.1503L10.6364 17.5642C12.6008 16.2223 14.9515 15.5239 17.5688 15.5239C19.6793 15.5239 24.6116 18.0478 26.7484 19.2476V23.3931C26.7484 23.838 27.109 24.1986 27.5539 24.1986C27.9987 24.1986 28.3594 23.838 28.3594 23.3931V19.1809C30.4966 17.9598 35.2171 15.5239 37.4315 15.5239C41.1146 15.5239 44.28 16.9478 46.5853 19.6417C48.8935 22.3386 50.1647 26.0979 50.1647 30.2271C50.1647 36.4949 46.6032 41.5041 44.4803 43.9322C44.1874 44.2671 44.2216 44.7759 44.5564 45.0688C44.8912 45.3615 45.4002 45.3275 45.693 44.9925C47.9648 42.3944 51.7757 37.0211 51.7757 30.2271C51.7758 25.7142 50.3672 21.5828 47.8093 18.5941ZM23.2244 49.1062C22.377 49.7221 21.7648 50.1672 19.8073 50.1672C19.0145 50.1672 16.1648 48.9882 12.9799 46.1571L17.8031 42.0886C18.1431 41.8018 18.1862 41.2936 17.8994 40.9536C17.6124 40.6134 17.1044 40.5702 16.7643 40.8573L11.8009 45.0441C11.6226 44.8657 11.444 44.6839 11.2652 44.4951C9.31248 42.4327 6.28392 38.5747 5.22056 33.615H25.3498L19.6832 38.3951C19.3432 38.6818 19.3001 39.1901 19.5869 39.5301C19.8749 39.8714 20.3837 39.9121 20.722 39.6263L26.7485 34.5428V47.5233C25.1265 47.7242 24.0022 48.5407 23.2244 49.1062ZM25.2618 32.0039H4.9542C4.87827 31.3617 4.83563 30.7043 4.83563 30.0319C4.83563 25.9272 6.10016 22.2103 8.39626 19.5659C8.69891 19.2174 9.01713 18.8911 9.34943 18.5862L25.2618 32.0039Z" fill="#08F8FF"/>
<path d="M32.5478 28.8915C32.1326 28.8915 31.7365 29.0701 31.4611 29.3815C30.781 30.1504 29.9702 31.3694 29.9702 32.8096C29.9702 34.2498 30.781 35.4688 31.4611 36.2376C31.7365 36.5489 32.1326 36.7276 32.5478 36.7276C32.963 36.7276 33.3591 36.549 33.6345 36.2377C34.3146 35.4688 35.1254 34.2498 35.1254 32.8096C35.1254 31.3694 34.3146 30.1504 33.6345 29.3816C33.3591 29.0701 32.963 28.8915 32.5478 28.8915ZM32.5478 35.0301C32.1409 34.5398 31.5812 33.7028 31.5812 32.8095C31.5812 31.9161 32.1408 31.0794 32.5478 30.5889C32.9547 31.0792 33.5144 31.9161 33.5144 32.8095C33.5144 33.7028 32.9548 34.5397 32.5478 35.0301Z" fill="url(#paint1_linear_2_891)"/>
</g>
<defs>
<linearGradient id="paint0_linear_2_891" x1="27.5005" y1="-3.05176e-05" x2="27.5005" y2="55" gradientUnits="userSpaceOnUse">
<stop stop-color="#1D0583"/>
<stop offset="1" stop-color="#200594"/>
</linearGradient>
<linearGradient id="paint1_linear_2_891" x1="32.5478" y1="28.8915" x2="32.5478" y2="36.7276" gradientUnits="userSpaceOnUse">
<stop stop-color="#1D0583"/>
<stop offset="1" stop-color="#200594"/>
</linearGradient>
<clipPath id="clip0_2_891">
<rect width="55" height="55" fill="white"/>
</clipPath>
</defs>
</svg>
