<svg width="50" height="50" fill="none" xmlns="http://www.w3.org/2000/svg"><g clip-path="url(#clip0_2_1321)"><path d="M46.247 5.669H3.754A3.758 3.758 0 000 9.422v18.809a3.759 3.759 0 003.754 3.754h10.332a7.923 7.923 0 01-.072 8.693l-1.483 2.224a.877.877 0 101.46.974l1.482-2.225a9.67 9.67 0 00.63-9.666h9.386a7.923 7.923 0 01-.072 8.693l-1.483 2.224a.877.877 0 101.46.974l1.483-2.225a9.67 9.67 0 00.63-9.666h9.386a7.924 7.924 0 01-.072 8.694l-1.483 2.223a.877.877 0 101.46.974l1.483-2.224a9.67 9.67 0 00.629-9.667h7.336A3.758 3.758 0 0050 28.232V9.422a3.757 3.757 0 00-3.753-3.753zm1.999 22.562c0 1.102-.896 2-2 2h-8.335a7.907 7.907 0 01-.966-3.757v-3.261h2.52a.877.877 0 00.804-1.229l-3.26-7.456a.876.876 0 00-1.606 0l-3.26 7.456a.877.877 0 00.802 1.229h2.246v3.26c0 1.302.264 2.574.762 3.757h-9.446a7.902 7.902 0 01-.966-3.756v-3.261h2.52a.877.877 0 00.804-1.229l-3.259-7.456a.876.876 0 00-1.607 0l-3.26 7.456a.877.877 0 00.803 1.229h2.245v3.26a9.67 9.67 0 00.763 3.757h-9.446a7.902 7.902 0 01-.966-3.756v-3.261h2.52a.877.877 0 00.803-1.229l-3.259-7.456a.876.876 0 00-1.607 0l-3.26 7.456a.876.876 0 00.803 1.229h2.245v3.26a9.67 9.67 0 00.763 3.757H3.754c-1.103 0-2-.897-2-1.999V9.422c0-1.102.897-1.999 2-1.999h42.493c1.103 0 1.999.897 1.999 2V28.23zm-13.96-6.773l1.92-4.389 1.919 4.39h-3.838zm-11.403 0l1.92-4.389 1.918 4.39h-3.838zm-11.404 0l1.92-4.389 1.919 4.39h-3.84z" fill="#2F8FFF"/></g><defs><clipPath id="clip0_2_1321"><path fill="#fff" d="M0 0h50v50H0z"/></clipPath></defs></svg>