<svg width="51" height="51" fill="none" xmlns="http://www.w3.org/2000/svg"><g clip-path="url(#clip0_2_693)"><path d="M3.854 44.432h42.493a3.758 3.758 0 003.754-3.754V21.87a3.759 3.759 0 00-3.754-3.754H36.015a7.923 7.923 0 01.072-8.693l1.483-2.224a.877.877 0 10-1.46-.974L34.627 8.45a9.67 9.67 0 00-.63 9.667h-9.386a7.923 7.923 0 01.072-8.693L26.166 7.2a.877.877 0 10-1.46-.974L23.224 8.45a9.67 9.67 0 00-.63 9.667h-9.386a7.924 7.924 0 01.072-8.694L14.763 7.2a.877.877 0 10-1.46-.974L11.82 8.45a9.67 9.67 0 00-.63 9.666H3.855A3.758 3.758 0 00.101 21.87v18.81a3.757 3.757 0 003.753 3.753zm-2-22.562c0-1.103.897-2 2-2h8.336a7.907 7.907 0 01.965 3.757v3.261h-2.52a.877.877 0 00-.804 1.228l3.26 7.456a.876.876 0 001.607 0l3.26-7.455a.877.877 0 00-.803-1.229H14.91v-3.261a9.663 9.663 0 00-.762-3.756h9.446a7.902 7.902 0 01.966 3.756v3.261h-2.52a.877.877 0 00-.804 1.228l3.26 7.456a.876.876 0 001.607 0l3.26-7.455a.877.877 0 00-.803-1.229h-2.245v-3.261a9.664 9.664 0 00-.763-3.756h9.446a7.902 7.902 0 01.966 3.756v3.261h-2.52a.878.878 0 00-.804 1.228l3.26 7.456a.876.876 0 001.606 0l3.26-7.455a.876.876 0 00-.803-1.229h-2.245v-3.261a9.672 9.672 0 00-.762-3.756h9.392c1.102 0 2 .896 2 1.999v18.808c0 1.103-.898 2-2 2H3.854c-1.103 0-2-.897-2-2V21.87zm13.96 6.772l-1.92 4.39-1.918-4.39h3.838zm11.404 0l-1.92 4.39-1.919-4.39h3.839zm11.404 0l-1.92 4.39-1.92-4.39h3.84z" fill="#2F8FFF"/></g><defs><clipPath id="clip0_2_693"><path fill="#fff" transform="rotate(-180 25.05 25.05)" d="M0 0h50v50H0z"/></clipPath></defs></svg>