<svg width="60" height="50" fill="none" xmlns="http://www.w3.org/2000/svg"><path d="M55.787 15.74h-2.69a9.003 9.003 0 002.999-6.712C56.096 4.05 52.046 0 47.068 0 42.09 0 38.04 4.05 38.04 9.028a9.008 9.008 0 003 6.713h-6.203a1.157 1.157 0 000 2.315h20.95c.638 0 1.157.519 1.157 1.157s-.519 1.157-1.157 1.157H3.472c-.638 0-1.157-.519-1.157-1.157s.519-1.157 1.157-1.157h20.949a1.157 1.157 0 000-2.315H18.22a9.005 9.005 0 002.999-6.713C21.219 4.05 17.169 0 12.19 0 7.213 0 3.163 4.05 3.163 9.028a9.008 9.008 0 003 6.713h-2.69A3.476 3.476 0 000 19.213a3.476 3.476 0 003.472 3.472h24.13L12.51 48.255A1.157 1.157 0 0013.506 50h32.247a1.157 1.157 0 00.997-1.746L31.657 22.685h24.13a3.476 3.476 0 003.472-3.472 3.476 3.476 0 00-3.472-3.472zM40.355 9.029a6.72 6.72 0 016.713-6.713 6.72 6.72 0 016.713 6.713 6.72 6.72 0 01-6.713 6.713 6.72 6.72 0 01-6.713-6.713zm-34.877 0a6.72 6.72 0 016.713-6.713 6.72 6.72 0 016.713 6.713 6.72 6.72 0 01-6.713 6.713 6.72 6.72 0 01-6.713-6.713zm10.055 38.657l14.097-23.88 14.096 23.88H15.533z" fill="#2F8FFF"/></svg>