<svg width="44" height="50" fill="none" xmlns="http://www.w3.org/2000/svg"><path d="M31.874 49.964c2.628 0 4.481-1.26 5.18-3.469a5.1 5.1 0 004.469-5.055V21.97h.938a.94.94 0 100-1.88h-5.09V8.815c0-4.049-2.822-5.496-5.497-5.496h-4.567V.938A.94.94 0 0026.366 0H11.783a.938.938 0 00-.938.938v2.36H6.278C3.617 3.297.78 4.747.78 8.796V44.5C.781 48.553 3.6 50 6.278 50l25.596-.036zm4.555-5.3a3.23 3.23 0 01-3.262-3.159v-9.021h6.44v8.986a3.225 3.225 0 01-3.178 3.193zm3.214-14.095h-6.476V21.97h6.44l.036 8.598zM12.724 1.879h12.703v5.796H12.724V1.879zM2.661 44.465V8.761c0-2.99 1.962-3.62 3.617-3.62h4.567v3.475c0 .52.42.938.938.938h14.583c.52 0 .94-.417.94-.938v-3.44h4.568c1.652 0 3.617.631 3.617 3.62v11.277h-5.263a.943.943 0 00-.941.939c0 .517.426.94.941.94h1.06V41.44a5.118 5.118 0 003.759 4.916 3.214 3.214 0 01-3.173 1.729H6.278c-1.655 0-3.617-.63-3.617-3.62z" fill="#2F8FFF"/><path d="M11.123 18.321h15.903a.937.937 0 00.938-.938.943.943 0 00-.938-.941H11.123a.938.938 0 000 1.88zm0 5.257h15.903a.939.939 0 000-1.88H11.123a.94.94 0 000 1.88zm0 5.245h15.903a.939.939 0 000-1.88H11.123a.94.94 0 00-.938.938c0 .515.423.942.938.942zm0 5.238h15.903a.939.939 0 000-1.88H11.123a.94.94 0 000 1.88zm0 5.257h15.903a.94.94 0 000-1.88H11.123a.94.94 0 000 1.88z" fill="#2F8FFF"/></svg>