<svg width="65" height="51" fill="none" xmlns="http://www.w3.org/2000/svg"><path d="M64.582 43.925V.18H0v43.745h24.994v4.17H13.539v2.085H51.03v-2.085H39.575v-4.17h25.007zM2.085 2.252h60.412v31.249H2.085V2.252zm35.418 45.843H27.08v-4.17h10.424v4.17zm-12.51-6.255H2.086v-6.254h60.412v6.255H24.994z" fill="#2F8FFF"/><path d="M33.333 37.67h-2.085v2.086h2.085V37.67zm4.17 0h-2.085v2.086h2.085V37.67zm-8.34 0H27.08v2.086h2.084V37.67zM51.03 6.422a3.657 3.657 0 00-3.649 3.649c0 .763.242 1.475.636 2.06L37.948 22.198a3.578 3.578 0 00-.979-.153c-.343 0-.66.064-.979.153l-7.704-7.704c.534-.636.877-1.45.877-2.34a3.657 3.657 0 00-3.648-3.648 3.657 3.657 0 00-3.649 3.649c0 .89.33 1.703.877 2.339l-6.966 6.967c-.521-.28-1.094-.458-1.716-.458a3.657 3.657 0 00-3.65 3.649 3.657 3.657 0 003.65 3.648 3.657 3.657 0 003.648-3.648c0-.623-.178-1.208-.458-1.717l7.285-7.284c.318.089.636.152.979.152.343 0 .66-.063.979-.152l7.704 7.704a3.64 3.64 0 00-.877 2.34 3.657 3.657 0 003.648 3.648 3.657 3.657 0 003.649-3.649c0-.89-.33-1.704-.877-2.34l9.916-9.915c.42.178.89.28 1.373.28a3.657 3.657 0 003.648-3.65 3.657 3.657 0 00-3.648-3.648zM14.06 26.216a1.563 1.563 0 110-3.127 1.563 1.563 0 110 3.127zM25.515 13.72a1.562 1.562 0 01-1.564-1.563c.013-.865.712-1.564 1.564-1.564a1.563 1.563 0 110 3.127zm11.467 13.54a1.563 1.563 0 110-3.128 1.563 1.563 0 110 3.128zm14.06-15.625a1.563 1.563 0 110-3.127 1.563 1.563 0 110 3.127z" fill="#2F8FFF"/></svg>