<svg width="340" height="752" fill="none" xmlns="http://www.w3.org/2000/svg"><path opacity=".5" fill-rule="evenodd" clip-rule="evenodd" d="M10 0C4.478 0 0 4.477 0 10v732c0 5.523 4.478 10 10 10h172.272c9.062-25.777 14.449-47.201 14.64-68.586.176-19.648-10.766-46.003-14.738-54.912a30.104 30.104 0 01-3.894-14.816c0-17.489 15.029-31.665 33.566-31.665 18.538 0 33.565 14.176 33.565 31.665 0 5.836-1.674 11.304-4.593 15.999-4.678 9.858-15.586 34.804-15.92 53.729-.374 21.243 4.797 42.669 15.328 68.586H330c5.522 0 10-4.477 10-10V10c0-5.523-4.478-10-10-10H10zm228.438 412.299c6.159 0 11.15-4.991 11.15-11.149 0-6.158-4.991-11.15-11.15-11.15-6.157 0-11.149 4.992-11.149 11.15s4.992 11.149 11.149 11.149zm-59.84 25.138c0 12.315-9.984 22.298-22.299 22.298-12.316 0-22.299-9.983-22.299-22.298 0-12.316 9.983-22.299 22.299-22.299 12.315 0 22.299 9.983 22.299 22.299zm33.1 128.607c18.473 0 33.448-14.976 33.448-33.449s-14.975-33.448-33.448-33.448-33.448 14.975-33.448 33.448 14.975 33.449 33.448 33.449z" fill="url(#paint0_linear_427_2227)"/><defs><linearGradient id="paint0_linear_427_2227" x1="172.849" y1="167.434" x2="1343.86" y2="184.209" gradientUnits="userSpaceOnUse"><stop stop-color="#fff" stop-opacity=".88"/><stop offset="1" stop-color="#fff" stop-opacity="0"/></linearGradient></defs></svg>