<svg width="363" height="769" fill="none" xmlns="http://www.w3.org/2000/svg"><path opacity=".6" fill-rule="evenodd" clip-rule="evenodd" d="M10 0C4.478 0 0 4.477 0 10v749c0 5.523 4.478 10 10 10h205.624c.41-6.348 2.454-12.281 5.741-17.427 12.317-32.646 19.864-57.996 20.089-83.29.175-19.507-10.688-45.674-14.631-54.515a29.889 29.889 0 01-3.864-14.706c0-17.361 14.918-31.436 33.321-31.436 18.404 0 33.322 14.074 33.322 31.436 0 5.794-1.662 11.222-4.561 15.883-4.644 9.787-15.472 34.551-15.803 53.338-.438 24.873 6.783 49.998 21.356 82.395 3.632 5.349 5.896 11.602 6.33 18.322H353c5.522 0 10-4.477 10-10V10c0-5.523-4.478-10-10-10H10zm272.68 399.139c6.113 0 11.068-4.956 11.068-11.069 0-6.112-4.955-11.068-11.068-11.068-6.114 0-11.069 4.956-11.069 11.068 0 6.113 4.955 11.069 11.069 11.069zm-59.407 24.954c0 12.226-9.911 22.136-22.136 22.136-12.226 0-22.137-9.91-22.137-22.136 0-12.226 9.911-22.137 22.137-22.137 12.225 0 22.136 9.911 22.136 22.137zm32.86 127.673c18.339 0 33.206-14.867 33.206-33.206 0-18.339-14.867-33.205-33.206-33.205-18.339 0-33.205 14.866-33.205 33.205s14.866 33.206 33.205 33.206z" fill="url(#paint0_linear_427_2272)"/><defs><linearGradient id="paint0_linear_427_2272" x1="123.999" y1="-13" x2="74.144" y2="813.389" gradientUnits="userSpaceOnUse"><stop stop-opacity=".88"/><stop offset="1" stop-opacity="0"/></linearGradient></defs></svg>