<svg width="363" height="769" viewBox="0 0 363 769" fill="none" xmlns="http://www.w3.org/2000/svg">
<path opacity="0.5" fill-rule="evenodd" clip-rule="evenodd" d="M10 0C4.47715 0 0 4.47714 0 9.99999V759C0 764.523 4.47715 769 9.99999 769H215.925C216.551 763.323 218.403 758.015 221.21 753.349C232.901 720.46 240.064 694.922 240.279 669.441C240.444 649.791 230.135 623.433 226.392 614.524C224.05 610.103 222.723 605.059 222.723 599.706C222.723 582.216 236.883 568.038 254.35 568.038C271.817 568.038 285.977 582.216 285.977 599.706C285.977 605.543 284.4 611.011 281.65 615.706C277.242 625.566 266.964 650.514 266.65 669.441C266.233 694.499 273.087 719.81 286.919 752.447C290.041 757.326 292.098 762.953 292.765 769H353C358.523 769 363 764.523 363 759V10C363 4.47715 358.523 0 353 0H10ZM279.408 398.301C285.21 398.301 289.913 393.309 289.913 387.151C289.913 380.992 285.21 376 279.408 376C273.605 376 268.902 380.992 268.902 387.151C268.902 393.309 273.605 398.301 279.408 398.301ZM223.022 423.44C223.022 435.757 213.615 445.741 202.011 445.741C190.407 445.741 181 435.757 181 423.44C181 411.124 190.407 401.139 202.011 401.139C213.615 401.139 223.022 411.124 223.022 423.44ZM254.211 552.06C271.617 552.06 285.728 537.083 285.728 518.608C285.728 500.133 271.617 485.157 254.211 485.157C236.805 485.157 222.694 500.133 222.694 518.608C222.694 537.083 236.805 552.06 254.211 552.06Z" fill="url(#paint0_linear_427_2227)"/>
<defs>
<linearGradient id="paint0_linear_427_2227" x1="184.542" y1="171.219" x2="1434.75" y2="189.918" gradientUnits="userSpaceOnUse">
<stop stop-color="white" stop-opacity="0.88"/>
<stop offset="1" stop-color="white" stop-opacity="0"/>
</linearGradient>
</defs>
</svg>
