<svg width="24" height="70" fill="none" xmlns="http://www.w3.org/2000/svg"><path fill-rule="evenodd" clip-rule="evenodd" d="M21.406 9.087c0 1.675-.48 3.244-1.319 4.592-1.343 2.83-4.472 9.987-4.568 15.417-.126 7.19 1.96 14.451 6.173 23.816a10.603 10.603 0 011.852 5.982c0 6.134-5.27 11.106-11.772 11.106C5.271 70 0 65.028 0 58.894c0-2.093.614-4.05 1.681-5.722 3.56-9.437 5.742-16.765 5.807-24.076.05-5.64-3.091-13.207-4.23-15.76a8.641 8.641 0 01-1.116-4.25C2.142 4.069 6.455 0 11.774 0c5.32 0 9.632 4.068 9.632 9.087z" fill="#2F8FFF"/></svg>