<svg width="25" height="25" fill="none" xmlns="http://www.w3.org/2000/svg"><g clip-path="url(#clip0_293_76)"><path d="M24.404 24.2l-7.013-7.293a9.881 9.881 0 002.897-6.995C20.288 4.446 15.842 0 10.376 0 4.91 0 .464 4.446.464 9.912c0 5.466 4.446 9.912 9.912 9.912 2.4 0 4.601-.858 6.317-2.28l7.03 7.311a.468.468 0 00.668.013.472.472 0 00.013-.667zm-14.028-5.32c-4.945 0-8.968-4.023-8.968-8.968S5.43.944 10.376.944s8.968 4.023 8.968 8.968-4.023 8.968-8.968 8.968z" fill="#08F8FF" stroke="#08F8FF"/></g><defs><clipPath id="clip0_293_76"><path fill="#fff" d="M0 0h25v25H0z"/></clipPath></defs></svg>