<svg width="20" height="16" fill="none" xmlns="http://www.w3.org/2000/svg"><path d="M4.12 8.36c1.013.107 1.84.507 2.48 1.2.64.64.96 1.493.96 2.56 0 1.12-.347 2.053-1.04 2.8-.693.693-1.547 1.04-2.56 1.04-1.173 0-2.107-.453-2.8-1.36-.693-.907-1.04-2.293-1.04-4.16 0-3.733 1.173-6.907 3.52-9.52.48-.533 1.013-.8 1.6-.8.48 0 .907.187 1.28.56.373.32.56.72.56 1.2 0 .373-.213.827-.64 1.36-1.333 1.387-2.107 3.093-2.32 5.12zm12.32 0c1.013.107 1.84.507 2.48 1.2.64.64.96 1.493.96 2.56 0 1.12-.347 2.053-1.04 2.8-.693.693-1.547 1.04-2.56 1.04-1.173 0-2.107-.453-2.8-1.36-.693-.907-1.04-2.293-1.04-4.16 0-3.733 1.173-6.907 3.52-9.52.48-.533 1.013-.8 1.6-.8.48 0 .907.187 1.28.56.373.32.56.72.56 1.2 0 .373-.213.827-.64 1.36-1.333 1.387-2.107 3.093-2.32 5.12z" fill="#fff"/></svg>