<svg width="56" height="51" fill="none" xmlns="http://www.w3.org/2000/svg"><g clip-path="url(#clip0_2_1167)"><path fill-rule="evenodd" clip-rule="evenodd" d="M8.593 12.587v5.828c2.847.096 2.845 3.79 0 3.886v5.828c2.847.095 2.845 3.79 0 3.885v5.828c2.847.095 2.845 3.79 0 3.885v3.497h31.144V5.205H8.593v3.497c2.847.096 2.845 3.79 0 3.885z" fill="#08F8FF"/><path d="M41.885.35H3.223c-.593 0-1.074.434-1.074.97v8.12H1.075c-.593 0-1.074.436-1.074.972 0 .537.481.971 1.074.971H2.15v7.771H1.075c-.593 0-1.074.435-1.074.971 0 .537.481.972 1.074.972H2.15v7.77H1.075c-.593 0-1.074.435-1.074.971 0 .537.481.972 1.074.972H2.15v7.77H1.075c-.593 0-1.074.435-1.074.972 0 .536.481.971 1.074.971H2.15v8.587c0 .536.481.971 1.074.971h38.662c1.777 0 3.222-1.307 3.222-2.914V3.263c0-1.606-1.445-2.914-3.222-2.914zm1.074 46.817c0 .535-.482.971-1.074.971H4.297v-7.615h1.179c1.016 3.258 6.253 2.684 6.339-.738-.038-3.138-4.722-4.014-6.155-1.205H4.297v-7.77h1.179c1.017 3.258 6.253 2.684 6.339-.738-.038-3.139-4.722-4.014-6.155-1.205H4.297v-7.77h1.179c1.016 3.258 6.253 2.684 6.339-.739-.038-3.138-4.722-4.014-6.155-1.204H4.297v-7.77h1.179c1.017 3.258 6.253 2.684 6.339-.739-.038-3.138-4.722-4.014-6.155-1.204H4.297V2.29h37.588c.593.001 1.074.437 1.074.972v43.904zM8.593 38.813c.592 0 1.074.436 1.074.972-.054 1.287-2.094 1.286-2.148 0 0-.536.482-.971 1.074-.971zm0-9.713c.592 0 1.074.436 1.074.972-.054 1.287-2.094 1.286-2.148 0 0-.536.482-.972 1.074-.972zm0-9.713c.592 0 1.074.436 1.074.971-.054 1.287-2.094 1.287-2.148 0 0-.535.482-.97 1.074-.97zm0-9.713c.592 0 1.074.436 1.074.971-.054 1.287-2.094 1.287-2.148 0 0-.535.482-.971 1.074-.971zm45.321-4.857H49.08c-.593 0-1.074.435-1.074.971v34.36c0 .147.037.292.108.424l2.417 4.494c.37.717 1.558.725 1.931 0 .035-.131 2.756-4.923 2.525-4.918V5.788c0-.536-.481-.971-1.074-.971zM52.84 6.759v2.914h-2.685V6.76h2.685zM51.497 42.42l-1.342-2.496V11.616h2.685v28.308l-1.343 2.496z" fill="#2F8FFF"/><path d="M27.533 9.673c-.593 0-1.074.435-1.074.972v7.152c0 .537.481.971 1.074.971h7.909c.593 0 1.074-.434 1.074-.97 0-4.48-4.03-8.125-8.983-8.125zm1.074 7.153v-5.134c2.91.417 5.215 2.502 5.676 5.134h-5.676z" fill="#2F8FFF"/><path d="M22.945 30.071c4.953 0 8.982-3.644 8.982-8.124 0-.536-.48-.971-1.074-.971H24.02v-6.181c0-.537-.481-.972-1.074-.972-11.9.409-11.896 15.842 0 16.248zm-5.306-4.232l4.913-2.565 2.838 4.446c-2.67.988-6.052.116-7.75-1.88zm9.61.907l-2.444-3.827h4.89c-.27 1.536-1.167 2.886-2.447 3.827zM21.87 15.842v5.545l-5.308 2.771c-1.603-3.586 1.145-7.791 5.308-8.316zm13.572 22.971h-1.074v-7.33c0-.536-.481-.971-1.074-.971-.593 0-1.074.435-1.074.971v7.33h-3.222V34.93c0-.536-.481-.97-1.074-.97-.593 0-1.074.434-1.074.97v3.882h-3.222V33.96c0-.536-.48-.971-1.074-.971-.593 0-1.074.435-1.074.971v4.853h-3.22v-1.457c0-.537-.481-.971-1.074-.971-.593 0-1.074.434-1.074.97v1.458h-1.074c-1.418.045-1.427 1.893 0 1.942h20.405c1.416-.044 1.429-1.893 0-1.942z" fill="#2F8FFF"/></g><defs><clipPath id="clip0_2_1167"><path fill="#fff" transform="translate(.001 .342)" d="M0 0h55v49.744H0z"/></clipPath></defs></svg>