<svg width="56" height="51" fill="none" xmlns="http://www.w3.org/2000/svg"><g clip-path="url(#clip0_2_1153)"><path fill-rule="evenodd" clip-rule="evenodd" d="M48 29.078H37.938l-5.42 7.709c-1.202 1.357-.152 3.426 1.822 3.426h17.258c1.852.002 3-1.912 1.904-3.32l-5.5-7.815z" fill="#08F8FF"/><path fill-rule="evenodd" clip-rule="evenodd" d="M37.268 45.17H5.702V6.706h-5.7v43.617h37.266V45.17z" fill="#08F8FF"/><path d="M53.53 36.354l-7.065-10.038v-4.89c1.438-.024 1.458-1.893.021-1.943h-3.31V9.482a.927.927 0 00-.314-.687L34.093.865a1.134 1.134 0 00-.76-.285H4.837c-.593 0-1.074.435-1.074.972v43.617c0 .537.481.972 1.074.972h37.266c.593 0 1.074-.435 1.074-.972v-3.985h7.558c2.693.03 4.363-2.84 2.796-4.83zM34.118 3.634l5.68 5.139h-5.68V3.635zm6.91 40.564H5.91V2.523h26.06v7.221c0 .537.48.972 1.074.972h7.984v8.767h-3.31c-1.437.05-1.416 1.92.022 1.943v4.89l-6.966 9.909c-1.725 1.966-.09 4.997 2.699 4.96h7.555v3.013zm10.814-5.576a1.255 1.255 0 01-1.109.62h-17.26c-1.205-.03-1.563-1.222-.983-1.848.078-.094 7.16-10.172 7.23-10.273a.905.905 0 00.168-.522v-5.173h4.428V26.6c0 .185.058.366.168.522.044.057 7.234 10.283 7.273 10.33.393.507.19.988.085 1.171z" fill="#2F8FFF"/><path d="M28.492 24.665a3.266 3.266 0 00-.537-.394l1.009-3.647c1.639-.091 3.062-1.464 3.02-2.978.025-2.633-3.595-3.99-5.642-2.114-1.483 1.293-1.208 3.636.537 4.622l-1.009 3.648c-1.234.069-2.456.914-2.843 2.005H16.66c-.765-2.07-3.763-2.706-5.463-1.142-1.73 1.537-1.027 4.25 1.263 4.94v5.763c-2.29.691-2.992 3.403-1.263 4.94 1.23 1.16 3.444 1.16 4.675 0 1.73-1.537 1.026-4.25-1.264-4.94v-5.762c.926-.27 1.754-1.019 2.052-1.856h6.368c.77 2.073 3.765 2.706 5.465 1.143a2.804 2.804 0 000-4.228zm-.63-7.758c.709-.658 1.989-.178 1.974.74.014.917-1.265 1.397-1.975.74a.981.981 0 010-1.48zm-13.51 22.028c-.706.659-1.992.176-1.976-.74-.019-.561.55-1.063 1.157-1.046 1.012-.012 1.55 1.139.818 1.786zm0-11.416a1.247 1.247 0 01-1.637 0c-1.046-1.013.517-2.426 1.636-1.48a.978.978 0 010 1.48zm12.621 0c-.705.659-1.992.177-1.975-.74-.019-.561.55-1.063 1.157-1.046 1.012-.012 1.549 1.139.818 1.786zM11.302 7.678h15.146c.593 0 1.074-.435 1.074-.971 0-.537-.48-.972-1.074-.972H11.302c-1.42.046-1.427 1.894 0 1.943zm0 4.582h15.146c.593 0 1.074-.434 1.074-.97 0-.537-.48-.972-1.074-.972H11.302c-1.42.045-1.427 1.894 0 1.943zm0 4.583h7.573c1.421-.046 1.425-1.895 0-1.943h-7.573c-.593 0-1.074.435-1.074.972 0 .537.48.971 1.074.971z" fill="#2F8FFF"/><path d="M11.302 21.426h7.573c1.421-.047 1.425-1.895 0-1.943h-7.573c-.593 0-1.074.435-1.074.972 0 .536.48.971 1.074.971z" fill="#2F8FFF"/></g><defs><clipPath id="clip0_2_1153"><path fill="#fff" transform="translate(.001 .58)" d="M0 0h55v49.744H0z"/></clipPath></defs></svg>