<svg width="990" height="760" fill="none" xmlns="http://www.w3.org/2000/svg"><path opacity=".5" fill-rule="evenodd" clip-rule="evenodd" d="M990 0H0v760h990V0zM389.581 97.083c8.584 0 15.542-6.958 15.542-15.541 0-8.584-6.958-15.542-15.542-15.542-8.583 0-15.542 6.958-15.542 15.542 0 8.583 6.959 15.541 15.542 15.541zm-83.414 35.04c0 17.167-13.917 31.083-31.084 31.083-17.166 0-31.083-13.916-31.083-31.083 0-17.167 13.917-31.083 31.083-31.083 17.167 0 31.084 13.916 31.084 31.083zm46.139 179.271c25.751 0 46.625-20.875 46.625-46.625s-20.874-46.625-46.625-46.625c-25.75 0-46.625 20.875-46.625 46.625s20.875 46.625 46.625 46.625zm40.595 88.705c4.068-6.543 6.4-14.163 6.4-22.296 0-24.378-20.948-44.139-46.788-44.139-25.841 0-46.789 19.761-46.789 44.139 0 7.462 1.963 14.492 5.428 20.654 5.537 12.418 20.789 49.155 20.544 76.544-.318 35.515-10.914 71.108-28.207 116.946-5.187 8.12-8.171 17.634-8.171 27.805 0 29.795 25.603 53.948 57.186 53.948 31.582 0 57.185-24.153 57.185-53.948 0-10.698-3.301-20.669-8.994-29.056-20.463-45.49-30.602-80.769-29.987-115.695.465-26.384 15.674-61.164 22.193-74.902z" fill="#fff"/></svg>