<svg width="376" height="489" fill="none" xmlns="http://www.w3.org/2000/svg"><path opacity=".5" fill-rule="evenodd" clip-rule="evenodd" d="M0 0v488.49h375.003V0H0zm218.854 291.774a20.755 20.755 0 00-11.002-3.158c-12.029 0-21.78 10.336-21.78 23.087 0 12.75 9.751 23.086 21.78 23.086 3.681 0 7.149-.968 10.19-2.678 6.126-2.731 24.255-10.258 37.769-10.137 17.525.157 35.088 5.386 57.705 13.919 4.007 2.559 8.701 4.031 13.719 4.031 14.702 0 26.62-12.633 26.62-28.217s-11.918-28.217-26.62-28.217c-5.279 0-10.199 1.629-14.337 4.439-22.446 10.097-39.853 15.099-57.087 14.796-13.017-.23-30.177-7.733-36.957-10.951zm-43.771 20.03c0-12.706-10.3-23.006-23.006-23.006-12.705 0-23.005 10.3-23.005 23.006s10.3 23.006 23.005 23.006c12.706 0 23.006-10.3 23.006-23.006zM86.627 334.57c8.47 0 15.337 6.867 15.337 15.338 0 8.47-6.867 15.337-15.337 15.337-8.47 0-15.337-6.867-15.337-15.337 0-8.471 6.866-15.338 15.337-15.338zm-17.29-41.158a7.668 7.668 0 10-15.337 0 7.668 7.668 0 007.669 7.668 7.668 7.668 0 007.668-7.668z" fill="#fff"/></svg>