<svg width="56" height="50" fill="none" xmlns="http://www.w3.org/2000/svg"><g clip-path="url(#clip0_2_1178)"><path fill-rule="evenodd" clip-rule="evenodd" d="M27.517 34.584c5.917 0 10.743-4.365 10.743-9.716-.55-12.871-20.939-12.868-21.486 0 0 5.352 4.826 9.716 10.743 9.716z" fill="#08F8FF"/><path d="M53.933 37.424H42.92l-3.278-2.965a14.402 14.402 0 002.94-4.412c1.627.456 2.798.27 4.608-.643 8.386-4.07 11.204-18.2 2.486-22.704 1.347-1.342 2.145-3.085 2.18-4.905.008-.359-.205-.692-.553-.867-2.527-1.266-5.689-1.222-8.25.116-1.605.838-2.84 2.113-3.553 3.59-.55-.96-1.366-1.71-2.442-2.244-.52-.258-1.173-.085-1.458.386-.285.47-.094 1.06.426 1.319.836.413 1.917 1.205 2.137 3.35-2.491-.347-5.267-1.821-7.698-1.28-2.316.512-4.247 2.034-5.483 4.308-3.06.44-5.836 1.66-8.069 3.43l-3.706-3.354c1.367-2.202-.5-5.053-3.308-5.017-2.073 0-3.76 1.525-3.76 3.4-.038 2.54 3.113 4.228 5.548 2.992l3.707 3.352c-2.263 2.337-3.715 5.331-3.955 8.62h-4.07a3.336 3.336 0 00-.947-1.433c-1.466-1.326-3.851-1.326-5.317 0-1.467 1.326-1.467 3.483 0 4.81 1.4 1.319 3.918 1.319 5.317 0 .45-.407.77-.898.946-1.434h4.07c.241 3.29 1.693 6.283 3.956 8.62l-1.532 1.386-.91-.823a1.157 1.157 0 00-1.494-.021L1.174 43.725C.435 44.352.02 45.212.003 46.147c-.017.958.4 1.894 1.147 2.569.745.674 1.782 1.052 2.84 1.037 1.034-.015 1.985-.391 2.678-1.06l9.646-9.3a.906.906 0 00-.024-1.351l-.91-.823 1.532-1.386c5.716 4.767 15.495 4.766 21.21 0l3.592 3.25c.202.182.475.284.76.284h11.46c1.423-.048 1.422-1.896 0-1.943zm-48.832 9.94c-.292.28-.699.44-1.146.446a1.885 1.885 0 01-1.286-.468 1.538 1.538 0 01-.518-1.164c.007-.404.182-.772.493-1.036l9.524-8.08 1.867 1.689L5.1 47.364zM44.126 2.727c1.712-.894 3.775-1.018 5.532-.362-.25 1.704-1.4 3.258-3.113 4.153-1.712.894-3.776 1.018-5.532.361.25-1.703 1.4-3.258 3.113-4.152zM30.974 8.053c.979-.217 2.332.17 3.764.58 2.334.712 4.625 1.183 7.213.497a9.29 9.29 0 005.846-1.025c3.037.802 5.062 4.13 5.062 8.367 0 4.601-2.714 9.124-6.752 11.253-1.359.716-2.155.704-2.898.468 2.439-8.939-5.43-17.985-15.627-17.9.9-1.17 2.068-1.948 3.392-2.24zm-22.687.88c0-.804.723-1.458 1.611-1.458 2.135.073 2.135 2.842 0 2.915-.888 0-1.611-.654-1.611-1.458zM4.902 25.897c-.6.566-1.68.566-2.28 0a1.363 1.363 0 010-2.06c.63-.569 1.651-.569 2.28 0a1.367 1.367 0 010 2.06zM27.517 37.5c-7.34 0-13.375-5.147-13.925-11.66h6.625c1.424-.047 1.423-1.896 0-1.943h-6.625c.233-2.754 1.446-5.263 3.324-7.243l4.68 4.233c.42.38 1.1.38 1.52 0a.908.908 0 000-1.374l-4.681-4.233C31.81 5.5 48.926 20.998 38.119 33.082l-4.68-4.233c-.42-.38-1.1-.38-1.52 0a.908.908 0 000 1.374l4.68 4.233c-2.443 1.896-5.617 3.043-9.082 3.043z" fill="#2F8FFF"/><path d="M53.933 41.31h-11.46c-1.423.048-1.422 1.896 0 1.944h11.46c1.424-.048 1.423-1.896 0-1.944zm-5.729 3.887h-5.73c-1.424.048-1.423 1.896 0 1.943h5.73c1.423-.047 1.422-1.896 0-1.943zm-13.85-22.39a.907.907 0 000-1.374c-.42-.38-1.1-.38-1.52 0-.542.49-1.16.562-2.065.494-.075-.819.004-1.378.546-1.869a.907.907 0 000-1.374c-.42-.38-1.1-.38-1.52 0-1.043.944-1.234 2.03-1.192 3.044-2.682-.19-4.768 1.7-4.558 4.122-1.121-.038-2.321.135-3.365 1.079a.908.908 0 000 1.374c.42.38 1.1.38 1.52 0 .541-.49 1.16-.562 2.065-.494.075.819-.004 1.378-.546 1.868a.907.907 0 000 1.375c.42.379 1.1.379 1.519 0 1.044-.945 1.235-2.03 1.193-3.044 2.682.19 4.768-1.7 4.558-4.122 1.12.037 2.321-.135 3.365-1.08zm-6.077 2.748c-.543.49-1.16.562-2.066.494-.075-.819.004-1.378.546-1.868.543-.49 1.16-.562 2.066-.495.075.82-.004 1.378-.546 1.869z" fill="#2F8FFF"/></g><defs><clipPath id="clip0_2_1178"><path fill="#fff" transform="translate(.001 .009)" d="M0 0h55v49.744H0z"/></clipPath></defs></svg>