<svg width="55" height="55" fill="none" xmlns="http://www.w3.org/2000/svg"><path fill-rule="evenodd" clip-rule="evenodd" d="M48 31.509H37.935l-5.42 8.523c-1.202 1.5-.153 3.788 1.821 3.788h17.259c1.852.002 2.999-2.114 1.904-3.67L48 31.508z" fill="#08F8FF"/><path fill-rule="evenodd" clip-rule="evenodd" d="M37.267 49.3H5.7V6.774H0V55h37.266v-5.7z" fill="#08F8FF"/><path d="M53.528 39.553l-7.065-11.098v-5.406c1.438-.027 1.459-2.094.022-2.149h-3.31V9.842c0-.285-.113-.558-.315-.76L34.092.315a1.074 1.074 0 00-.76-.314H4.835c-.593 0-1.074.48-1.074 1.074V49.3c0 .593.48 1.074 1.074 1.074h37.266c.593 0 1.074-.48 1.074-1.074v-4.406h7.558c2.692.034 4.363-3.14 2.795-5.34zM34.117 3.377l5.68 5.681h-5.68v-5.68zm6.91 44.849H5.908V2.148h26.06v7.984c0 .593.48 1.074 1.073 1.074h7.984V20.9h-3.31c-1.437.055-1.416 2.122.022 2.148v5.408L30.772 39.41c-1.724 2.175-.09 5.526 2.7 5.484h7.555v3.332zM51.84 42.06a1.235 1.235 0 01-1.11.685H33.47c-1.204-.033-1.563-1.35-.982-2.043.077-.104 7.159-11.246 7.23-11.359.11-.172.168-.372.168-.576v-5.72h4.428v5.72c0 .204.058.404.168.576.043.064 7.234 11.37 7.273 11.423.393.56.19 1.091.085 1.294z" fill="#001B50"/><path d="M28.49 26.63a3.312 3.312 0 00-.536-.436l1.008-4.033c1.639-.1 3.062-1.618 3.021-3.292.024-2.912-3.596-4.41-5.643-2.337-1.482 1.43-1.207 4.02.537 5.11l-1.008 4.033c-1.235.076-2.456 1.01-2.843 2.217h-6.369c-.764-2.29-3.763-2.992-5.463-1.263-1.73 1.7-1.026 4.7 1.263 5.463v6.37c-2.29.765-2.992 3.764-1.263 5.464 1.23 1.282 3.445 1.282 4.675 0 1.73-1.7 1.026-4.7-1.263-5.463v-6.37c.925-.298 1.754-1.127 2.051-2.052h6.369c.77 2.292 3.765 2.991 5.465 1.263 1.282-1.23 1.282-3.444 0-4.675zm-.63-8.579c.71-.727 1.99-.197 1.975.818.014 1.015-1.266 1.546-1.975.819-.449-.431-.45-1.206 0-1.637zM14.35 42.407c-.705.728-1.992.195-1.975-.818-.02-.62.55-1.176 1.157-1.157 1.011-.013 1.549 1.26.818 1.975zm0-12.622a1.158 1.158 0 01-1.636 0c-1.047-1.12.517-2.683 1.636-1.636a1.158 1.158 0 010 1.636zm12.622 0c-.705.729-1.992.195-1.975-.818-.02-.62.55-1.176 1.157-1.157 1.011-.013 1.549 1.26.818 1.975zM11.3 7.848h15.146a1.074 1.074 0 000-2.149H11.3c-1.419.051-1.427 2.095 0 2.149zm0 5.067h15.146a1.074 1.074 0 000-2.149H11.3c-1.419.051-1.427 2.095 0 2.149zm0 5.067h7.574c1.42-.052 1.425-2.096 0-2.149H11.3a1.074 1.074 0 000 2.149z" fill="#001B50"/><path d="M11.3 23.048h7.574c1.42-.051 1.425-2.095 0-2.148H11.3a1.074 1.074 0 000 2.148z" fill="#001B50"/></svg>