<svg width="55" height="49" fill="none" xmlns="http://www.w3.org/2000/svg"><path d="M51.778.867H3.223A3.226 3.226 0 000 4.09v32.226a3.226 3.226 0 003.223 3.223h18.735l-1.727 6.445h-1.325c-1.418.05-1.427 2.095 0 2.149h17.188c1.418-.05 1.427-2.094 0-2.149h-1.325l-1.727-6.445h18.736A3.226 3.226 0 0055 36.316V4.09A3.226 3.226 0 0051.778.867zM3.223 3.015h48.555c.592 0 1.074.482 1.074 1.075v29.003H2.148V4.09c0-.593.482-1.075 1.075-1.075zm29.322 42.97h-10.09l1.727-6.446h6.636l1.727 6.445zm19.233-8.595H3.223a1.075 1.075 0 01-1.075-1.074v-1.074h50.704v1.074c0 .592-.482 1.074-1.074 1.074z" fill="#2F8FFF"/><path d="M21.51 19.103h7.494c.593 0 1.074-.481 1.074-1.074 0-4.725-3.843-8.568-8.568-8.568-.593 0-1.074.48-1.074 1.074v7.494c0 .593.481 1.074 1.074 1.074zm1.074-7.404a6.437 6.437 0 015.256 5.255h-5.256V11.7z" fill="#2F8FFF"/><path d="M17.162 30.945c4.724 0 8.568-3.843 8.568-8.568 0-.593-.481-1.074-1.074-1.074h-6.42v-6.42c0-.593-.481-1.074-1.074-1.074-11.352.43-11.348 16.708 0 17.136zm-4.942-4.474l4.549-2.627 2.627 4.552c-2.476.982-5.585.095-7.176-1.925zm9.035.848l-2.233-3.868h4.47a6.422 6.422 0 01-2.237 3.868zm-5.168-11.272v5.71l-4.944 2.854c-1.447-3.694 1.095-7.986 4.944-8.564zm17.751 14.898h11.494c.593 0 1.074-.48 1.074-1.074v-4.297c0-.593-.48-1.074-1.074-1.074H33.838c-.593 0-1.074.481-1.074 1.074v4.297c0 .593.48 1.074 1.074 1.074zm1.074-4.297h9.346v2.149h-9.346v-2.149zm-1.074-5.013h11.494c1.42-.05 1.426-2.095 0-2.148H33.838c-1.42.05-1.426 2.095 0 2.148zm0-5.013h11.494c1.42-.05 1.426-2.095 0-2.148H33.838c-1.42.051-1.426 2.095 0 2.148zm0-5.012h11.494c1.42-.052 1.426-2.095 0-2.15H33.838c-1.42.052-1.426 2.096 0 2.15z" fill="#2F8FFF"/></svg>