<svg width="45" height="55" fill="none" xmlns="http://www.w3.org/2000/svg"><path fill-rule="evenodd" clip-rule="evenodd" d="M39.258 44.043V9.953h-4.58V5.37h-23.35v38.672h27.93z" fill="#08F8FF"/><path d="M44.314 8.908L35.721.315A1.075 1.075 0 0034.96 0H7.031c-.593 0-1.074.48-1.074 1.074v4.512H1.445c-.593 0-1.074.481-1.074 1.074v47.266C.371 54.519.852 55 1.445 55H37.97c.593 0 1.074-.48 1.074-1.074v-4.512h4.512c.593 0 1.074-.481 1.074-1.074V9.668c0-.285-.113-.558-.315-.76zm-8.563-5.525l5.495 5.495H35.75V3.383zm1.144 49.469H2.52V7.734h3.437V48.34c0 .593.481 1.074 1.074 1.074h29.864v3.438zm-28.79-5.586V2.148h25.498v7.804c0 .593.48 1.074 1.074 1.074h7.804v36.24H8.106z" fill="#2F8FFF"/><path d="M27.467 20.669h7.494c.593 0 1.074-.481 1.074-1.075 0-4.724-3.843-8.568-8.568-8.568-.593 0-1.074.481-1.074 1.075v7.493c0 .594.481 1.075 1.074 1.075zm1.075-7.404a6.437 6.437 0 015.255 5.255h-5.255v-5.255z" fill="#2F8FFF"/><path d="M23.119 32.51c4.724 0 8.568-3.843 8.568-8.567 0-.594-.48-1.075-1.074-1.075h-6.42v-6.42c0-.593-.48-1.074-1.074-1.074-11.352.431-11.347 16.708 0 17.137zm-4.942-4.474l4.549-2.626 2.627 4.551c-2.475.982-5.585.095-7.176-1.925zm9.035.848l-2.232-3.867h4.469a6.421 6.421 0 01-2.237 3.867zm-5.167-11.271v5.71L17.1 26.176c-1.447-3.694 1.095-7.986 4.945-8.564zm-6.42-6.587h7.494c1.422-.051 1.425-2.095 0-2.148h-7.494a1.074 1.074 0 000 2.148zm7.494 27.646h-7.494c-1.421.052-1.425 2.095 0 2.148h7.494a1.074 1.074 0 100-2.148zm0-4.297h-7.494c-1.421.052-1.425 2.095 0 2.148h7.494a1.074 1.074 0 100-2.148zm11.842 4.297h-7.494c-1.421.052-1.425 2.095 0 2.148h7.494a1.074 1.074 0 000-2.148zm0-4.297h-7.494c-1.421.052-1.425 2.095 0 2.148h7.494a1.074 1.074 0 000-2.148z" fill="#2F8FFF"/></svg>