<svg width="55" height="51" fill="none" xmlns="http://www.w3.org/2000/svg"><path fill-rule="evenodd" clip-rule="evenodd" d="M5.371 14.758H49.63v30.078H5.371V14.758z" fill="#08F8FF"/><path d="M51.777.793H3.223A3.226 3.226 0 000 4.016v42.968a3.226 3.226 0 003.223 3.223h48.554A3.226 3.226 0 0055 46.984V4.016A3.226 3.226 0 0051.777.793zM3.223 2.941h48.554c.593 0 1.075.482 1.075 1.075V5.09h-34.59c-.594 0-1.075.48-1.075 1.074a3.226 3.226 0 01-3.222 3.223H2.148V4.016c0-.593.482-1.075 1.075-1.075zm48.554 45.117H3.223a1.075 1.075 0 01-1.075-1.074V11.535h11.817a5.38 5.38 0 005.263-4.297h33.624v39.746c0 .593-.482 1.075-1.075 1.075z" fill="#2F8FFF"/><path d="M13.965 7.238c.594 0 1.075-.48 1.075-1.074-.053-1.423-2.097-1.423-2.15 0 0 .593.482 1.074 1.075 1.074zm-4.297 0c.593 0 1.074-.48 1.074-1.074-.052-1.423-2.096-1.423-2.148 0 0 .593.48 1.074 1.074 1.074zm-4.297 0c.593 0 1.074-.48 1.074-1.074-.052-1.423-2.096-1.423-2.149 0 0 .593.482 1.074 1.075 1.074zm40.391 24.093c.048-2.595-2.878-4.365-5.147-3.136l-5.068-5.068c1.229-2.27-.54-5.195-3.136-5.147-2.595-.048-4.366 2.878-3.137 5.147l-5.067 5.068c-1.22-.673-2.945-.447-3.946.486l-4.057-2.434c.538-2.17-1.194-4.368-3.436-4.338-4.04.082-4.855 5.617-1.074 6.892v10.664h-1.381c-1.413.047-1.433 2.092 0 2.148h34.375c1.412-.048 1.432-2.092 0-2.148h-1.382v-4.771a3.536 3.536 0 002.456-3.363zm-2.149 0c0 .762-.62 1.381-1.38 1.381-1.83-.069-1.83-2.693 0-2.762.76 0 1.38.62 1.38 1.381zm-19.95 3.363c2.014-.597 3.09-3.09 2.063-4.98l5.067-5.067c.174.09.355.165.544.226v14.592h-7.673v-4.771zm8.748-14.565c.761 0 1.381.62 1.381 1.38-.07 1.83-2.693 1.83-2.762 0 0-.76.62-1.38 1.38-1.38zm-9.822 9.821c.762 0 1.382.62 1.382 1.381-.07 1.83-2.693 1.83-2.763 0 0-.761.62-1.38 1.382-1.38zm-9.821-5.893c.761 0 1.381.62 1.381 1.382-.07 1.83-2.693 1.829-2.762 0 0-.762.62-1.382 1.381-1.382zm1.074 4.744a3.53 3.53 0 001.255-.712l4.057 2.434c-.446 1.775.672 3.662 2.361 4.17v4.772h-7.673V28.8zm19.643 10.664V24.872c.188-.06.37-.136.543-.225l5.068 5.067c-1.027 1.89.049 4.383 2.062 4.98v4.77h-7.673z" fill="#2F8FFF"/></svg>