<svg width="806" height="474" viewBox="0 0 806 474" fill="none" xmlns="http://www.w3.org/2000/svg">
<rect x="118" width="688" height="416" fill="#F4F7FE"/>
<rect width="183.581" height="11.5641" rx="5.78207" transform="matrix(1 0 0 -1 221.588 121.039)" fill="#CDD7E6"/>
<rect width="143.106" height="11.5641" rx="5.78207" transform="matrix(1 0 0 -1 221.588 97.9102)" fill="#E3E8EF"/>
<rect width="80.949" height="34.6924" rx="10" transform="matrix(1 0 0 -1 707.353 121.039)" fill="#99B7F3"/>
<rect width="37.5835" height="5.78207" rx="2.89103" transform="matrix(1 0 0 -1 729.036 106.584)" fill="#3772E9"/>
<rect width="62.1572" height="11.5641" rx="5.78207" transform="matrix(1 0 0 -1 633.632 109.475)" fill="#E3E8EF"/>
<rect width="91.0676" height="11.5641" rx="5.78207" transform="matrix(1 0 0 -1 531 109.475)" fill="#E3E8EF"/>
<circle r="28.9104" transform="matrix(1 0 0 -1 167.91 97.9103)" fill="#42486D" fill-opacity="0.5"/>
<path d="M162.023 107.594C165.455 110.375 170.365 110.375 173.797 107.594L175.541 106.181C177.334 104.728 178.526 102.663 178.888 100.384L179.24 98.1672C179.933 93.8041 177.478 89.5514 173.352 87.97L171.257 87.1667C169.102 86.3406 166.718 86.3406 164.563 87.1667L162.468 87.97C158.343 89.5514 155.887 93.8041 156.58 98.1672L156.932 100.384C157.294 102.663 158.486 104.728 160.279 106.181L162.023 107.594Z" fill="#E7EBF0"/>
<rect x="139.442" y="160.442" width="649.117" height="84.4648" rx="14.025" fill="white" stroke="#F8F8F9" stroke-width="3.11667"/>
<rect x="139.442" y="265.442" width="649.117" height="133.117" rx="14.025" fill="white" stroke="#F8F8F9" stroke-width="3.11667"/>
<rect x="177.687" y="341.014" width="0.904298" height="211.606" transform="rotate(-90 177.687 341.014)" fill="#F8F8F9"/>
<rect x="177.687" y="362.717" width="0.904298" height="211.606" transform="rotate(-90 177.687 362.717)" fill="#F8F8F9"/>
<rect x="177.687" y="319.311" width="0.904298" height="211.606" transform="rotate(-90 177.687 319.311)" fill="#F8F8F9"/>
<rect x="177.687" y="297.608" width="0.904298" height="211.606" transform="rotate(-90 177.687 297.608)" fill="#F8F8F9"/>
<rect x="177.687" y="275.904" width="0.904298" height="211.606" transform="rotate(-90 177.687 275.904)" fill="#F8F8F9"/>
<rect x="177.687" y="383.516" width="0.904298" height="211.606" transform="rotate(-90 177.687 383.516)" fill="#F8F8F9"/>
<path d="M193.06 370.856L170 388.942H378.441V318.406L365.78 343.727L351.312 332.875L332.321 337.397L301.575 359.1L259.073 354.578L223.806 375.377L193.06 370.856Z" fill="url(#paint0_linear_2_1355)"/>
<path d="M170 388.942L193.06 370.856L223.806 375.377L259.073 354.578L301.575 359.1L332.321 337.397L351.312 332.875L365.78 343.727L378.441 318.406" stroke="#3772E9"/>
<circle cx="193.059" cy="370.856" r="1.5" fill="white" stroke="#3772E9" stroke-width="0.617192"/>
<circle cx="223.806" cy="375.377" r="1.5" fill="white" stroke="#3772E9" stroke-width="0.617192"/>
<circle cx="259.073" cy="354.578" r="1.5" fill="white" stroke="#3772E9" stroke-width="0.617192"/>
<circle cx="301.575" cy="359.1" r="1.5" fill="white" stroke="#3772E9" stroke-width="0.617192"/>
<circle cx="351.312" cy="332.875" r="1.5" fill="white" stroke="#3772E9" stroke-width="0.617192"/>
<circle cx="332.321" cy="337.396" r="1.5" fill="white" stroke="#3772E9" stroke-width="0.617192"/>
<circle cx="365.78" cy="343.727" r="1.5" fill="white" stroke="#3772E9" stroke-width="0.617192"/>
<circle cx="378.44" cy="318.406" r="1.5" fill="white" stroke="#3772E9" stroke-width="0.617192"/>
<rect x="177.687" y="275" width="0.904298" height="108.516" fill="#F8F8F9"/>
<path d="M490.002 297.189C513.749 297.189 533.001 316.44 533.001 340.187C533.001 363.935 513.749 383.186 490.002 383.186C466.254 383.186 447.003 363.935 447.003 340.187C447.003 316.44 466.254 297.189 490.002 297.189ZM490.002 366.263C504.403 366.263 516.078 354.589 516.078 340.187C516.078 325.786 504.403 314.112 490.002 314.112C475.601 314.112 463.926 325.786 463.926 340.187C463.926 354.589 475.601 366.263 490.002 366.263Z" fill="#99B7F3"/>
<path d="M489.999 297.189C499.085 297.189 507.939 300.067 515.288 305.412C522.637 310.756 528.104 318.291 530.904 326.935C533.705 335.579 533.695 344.889 530.876 353.527C528.057 362.166 522.574 369.689 515.213 375.017C507.853 380.346 498.994 383.206 489.907 383.186C480.82 383.167 471.973 380.269 464.636 374.909C457.298 369.55 451.847 362.003 449.065 353.353C446.283 344.702 446.313 335.393 449.15 326.761L465.227 332.045C463.506 337.28 463.488 342.925 465.175 348.171C466.862 353.417 470.168 357.994 474.618 361.244C479.067 364.494 484.433 366.252 489.943 366.263C495.454 366.275 500.826 364.541 505.29 361.31C509.753 358.078 513.079 353.516 514.788 348.277C516.498 343.039 516.504 337.393 514.805 332.151C513.107 326.909 509.792 322.339 505.335 319.098C500.878 315.857 495.509 314.112 489.999 314.112V297.189Z" fill="#3772E9"/>
<path d="M489.999 297.189C497.426 297.189 504.727 299.113 511.189 302.773C517.652 306.433 523.057 311.705 526.876 318.075C530.696 324.445 532.8 331.696 532.984 339.121C533.169 346.546 531.426 353.892 527.928 360.443C524.429 366.995 519.292 372.528 513.019 376.505C506.746 380.481 499.55 382.765 492.132 383.133C484.713 383.502 477.326 381.942 470.69 378.607C464.054 375.272 458.394 370.275 454.264 364.102L468.328 354.69C470.833 358.433 474.265 361.464 478.289 363.486C482.314 365.509 486.794 366.455 491.292 366.231C495.791 366.008 500.155 364.623 503.959 362.212C507.763 359.8 510.878 356.444 513 352.471C515.122 348.498 516.178 344.043 516.067 339.541C515.955 335.038 514.679 330.641 512.362 326.778C510.046 322.915 506.769 319.718 502.849 317.498C498.93 315.278 494.503 314.112 489.999 314.112V297.189Z" fill="#CADBF8"/>
<circle cx="470.271" cy="285.047" r="4.04694" fill="#3772E9"/>
<circle cx="490.506" cy="285.047" r="4.04694" fill="#99B7F3"/>
<circle cx="510.74" cy="285.047" r="4.04694" fill="#CADBF8"/>
<rect x="751.299" y="385.768" width="88.7683" height="9.70078" rx="4.85039" transform="rotate(-90 751.299 385.768)" fill="#E9EDF7"/>
<rect x="751.299" y="385.768" width="21.1678" height="9.70081" rx="4.8504" transform="rotate(-90 751.299 385.768)" fill="#99B7F3"/>
<rect x="723.582" y="385.768" width="88.7683" height="9.70072" rx="4.85036" transform="rotate(-90 723.582 385.768)" fill="#E9EDF7"/>
<rect x="723.582" y="385.768" width="80.5743" height="9.70078" rx="4.85039" transform="rotate(-90 723.582 385.768)" fill="#99B7F3"/>
<rect x="695.866" y="385.768" width="88.7683" height="9.70077" rx="4.85039" transform="rotate(-90 695.866 385.768)" fill="#E9EDF7"/>
<rect x="695.866" y="385.768" width="61.455" height="9.70076" rx="4.85038" transform="rotate(-90 695.866 385.768)" fill="#99B7F3"/>
<rect x="668.15" y="385.768" width="88.7683" height="9.70078" rx="4.85039" transform="rotate(-90 668.15 385.768)" fill="#E9EDF7"/>
<rect x="668.15" y="385.768" width="45.7498" height="9.7008" rx="4.8504" transform="rotate(-90 668.15 385.768)" fill="#99B7F3"/>
<rect x="640.433" y="385.768" width="88.7683" height="9.70078" rx="4.85039" transform="rotate(-90 640.433 385.768)" fill="#E9EDF7"/>
<rect x="640.433" y="385.768" width="73.0631" height="9.70079" rx="4.8504" transform="rotate(-90 640.433 385.768)" fill="#99B7F3"/>
<rect x="612.717" y="385.768" width="88.7683" height="9.70079" rx="4.85039" transform="rotate(-90 612.717 385.768)" fill="#E9EDF7"/>
<rect x="612.717" y="385.768" width="36.873" height="9.7008" rx="4.8504" transform="rotate(-90 612.717 385.768)" fill="#99B7F3"/>
<rect x="585" y="385.768" width="88.7683" height="9.70079" rx="4.85039" transform="rotate(-90 585 385.768)" fill="#E9EDF7"/>
<rect x="585" y="385.768" width="52.5781" height="9.70079" rx="4.8504" transform="rotate(-90 585 385.768)" fill="#99B7F3"/>
<path d="M173.086 187.461H174.383C175.253 187.461 175.883 187.3 176.273 186.977C176.664 186.654 176.859 186.175 176.859 185.539C176.859 184.893 176.648 184.43 176.227 184.149C175.805 183.867 175.169 183.727 174.32 183.727H173.086V187.461ZM173.086 189.008V193.57H171.219V182.149H174.445C175.919 182.149 177.01 182.425 177.719 182.977C178.427 183.529 178.781 184.362 178.781 185.477C178.781 186.899 178.042 187.912 176.562 188.516L179.789 193.57H177.664L174.93 189.008H173.086ZM185.031 193.727C183.688 193.727 182.635 193.336 181.875 192.555C181.12 191.768 180.742 190.688 180.742 189.313C180.742 187.901 181.094 186.792 181.797 185.984C182.5 185.177 183.466 184.774 184.695 184.774C185.836 184.774 186.737 185.12 187.398 185.813C188.06 186.505 188.391 187.458 188.391 188.672V189.664H182.633C182.659 190.503 182.885 191.149 183.312 191.602C183.74 192.05 184.341 192.274 185.117 192.274C185.628 192.274 186.102 192.227 186.539 192.133C186.982 192.034 187.456 191.873 187.961 191.649V193.141C187.513 193.354 187.06 193.505 186.602 193.594C186.143 193.682 185.62 193.727 185.031 193.727ZM184.695 186.164C184.112 186.164 183.643 186.349 183.289 186.719C182.94 187.089 182.732 187.628 182.664 188.336H186.586C186.576 187.623 186.404 187.083 186.07 186.719C185.737 186.349 185.279 186.164 184.695 186.164ZM192.445 193.57L189.164 184.93H191.102L192.859 189.953C193.161 190.797 193.344 191.479 193.406 192H193.469C193.516 191.625 193.698 190.943 194.016 189.953L195.773 184.93H197.727L194.43 193.57H192.445ZM202.812 193.727C201.469 193.727 200.417 193.336 199.656 192.555C198.901 191.768 198.523 190.688 198.523 189.313C198.523 187.901 198.875 186.792 199.578 185.984C200.281 185.177 201.247 184.774 202.477 184.774C203.617 184.774 204.518 185.12 205.18 185.813C205.841 186.505 206.172 187.458 206.172 188.672V189.664H200.414C200.44 190.503 200.667 191.149 201.094 191.602C201.521 192.05 202.122 192.274 202.898 192.274C203.409 192.274 203.883 192.227 204.32 192.133C204.763 192.034 205.237 191.873 205.742 191.649V193.141C205.294 193.354 204.841 193.505 204.383 193.594C203.924 193.682 203.401 193.727 202.812 193.727ZM202.477 186.164C201.893 186.164 201.424 186.349 201.07 186.719C200.721 187.089 200.513 187.628 200.445 188.336H204.367C204.357 187.623 204.185 187.083 203.852 186.719C203.518 186.349 203.06 186.164 202.477 186.164ZM215.859 193.57H214.016V188.258C214.016 187.591 213.88 187.094 213.609 186.766C213.344 186.438 212.919 186.274 212.336 186.274C211.56 186.274 210.992 186.503 210.633 186.961C210.273 187.419 210.094 188.188 210.094 189.266V193.57H208.258V184.93H209.695L209.953 186.063H210.047C210.307 185.651 210.677 185.333 211.156 185.109C211.635 184.886 212.167 184.774 212.75 184.774C214.823 184.774 215.859 185.828 215.859 187.938V193.57ZM224.508 193.57L224.25 192.438H224.156C223.901 192.839 223.536 193.154 223.062 193.383C222.594 193.612 222.057 193.727 221.453 193.727C220.406 193.727 219.625 193.466 219.109 192.945C218.594 192.425 218.336 191.636 218.336 190.578V184.93H220.188V190.258C220.188 190.919 220.323 191.417 220.594 191.75C220.865 192.078 221.289 192.242 221.867 192.242C222.638 192.242 223.203 192.013 223.562 191.555C223.927 191.091 224.109 190.318 224.109 189.234V184.93H225.953V193.57H224.508ZM232.344 193.727C231 193.727 229.948 193.336 229.188 192.555C228.432 191.768 228.055 190.688 228.055 189.313C228.055 187.901 228.406 186.792 229.109 185.984C229.812 185.177 230.779 184.774 232.008 184.774C233.148 184.774 234.049 185.12 234.711 185.813C235.372 186.505 235.703 187.458 235.703 188.672V189.664H229.945C229.971 190.503 230.198 191.149 230.625 191.602C231.052 192.05 231.654 192.274 232.43 192.274C232.94 192.274 233.414 192.227 233.852 192.133C234.294 192.034 234.768 191.873 235.273 191.649V193.141C234.826 193.354 234.372 193.505 233.914 193.594C233.456 193.682 232.932 193.727 232.344 193.727ZM232.008 186.164C231.424 186.164 230.956 186.349 230.602 186.719C230.253 187.089 230.044 187.628 229.977 188.336H233.898C233.888 187.623 233.716 187.083 233.383 186.719C233.049 186.349 232.591 186.164 232.008 186.164Z" fill="#95969D"/>
<path d="M378.253 183.586C377.18 183.586 376.336 183.966 375.721 184.727C375.107 185.487 374.8 186.537 374.8 187.875C374.8 189.276 375.094 190.336 375.682 191.055C376.276 191.774 377.133 192.133 378.253 192.133C378.737 192.133 379.206 192.086 379.659 191.992C380.112 191.893 380.583 191.768 381.073 191.617V193.219C380.177 193.557 379.162 193.727 378.026 193.727C376.354 193.727 375.07 193.221 374.175 192.211C373.279 191.195 372.831 189.745 372.831 187.859C372.831 186.672 373.047 185.633 373.479 184.742C373.917 183.852 374.547 183.169 375.37 182.695C376.193 182.221 377.159 181.984 378.268 181.984C379.435 181.984 380.513 182.229 381.503 182.719L380.831 184.274C380.445 184.091 380.037 183.932 379.604 183.797C379.177 183.656 378.727 183.586 378.253 183.586ZM389.432 193.57L389.175 192.438H389.081C388.826 192.839 388.461 193.154 387.987 193.383C387.518 193.612 386.982 193.727 386.378 193.727C385.331 193.727 384.55 193.466 384.034 192.945C383.518 192.425 383.26 191.636 383.26 190.578V184.93H385.112V190.258C385.112 190.919 385.247 191.417 385.518 191.75C385.789 192.078 386.214 192.242 386.792 192.242C387.563 192.242 388.128 192.013 388.487 191.555C388.852 191.091 389.034 190.318 389.034 189.234V184.93H390.878V193.57H389.432ZM399.3 191.109C399.3 191.953 398.992 192.602 398.378 193.055C397.763 193.503 396.883 193.727 395.737 193.727C394.586 193.727 393.662 193.552 392.964 193.203V191.617C393.979 192.086 394.925 192.32 395.8 192.32C396.93 192.32 397.495 191.979 397.495 191.297C397.495 191.078 397.432 190.896 397.307 190.75C397.182 190.604 396.977 190.453 396.69 190.297C396.404 190.141 396.005 189.964 395.495 189.766C394.5 189.38 393.826 188.995 393.471 188.609C393.122 188.224 392.948 187.724 392.948 187.109C392.948 186.37 393.245 185.797 393.839 185.391C394.438 184.979 395.25 184.774 396.276 184.774C397.292 184.774 398.253 184.979 399.159 185.391L398.565 186.774C397.633 186.388 396.849 186.195 396.214 186.195C395.245 186.195 394.76 186.471 394.76 187.024C394.76 187.294 394.885 187.524 395.135 187.711C395.391 187.899 395.943 188.156 396.792 188.484C397.505 188.761 398.024 189.013 398.346 189.242C398.669 189.471 398.909 189.737 399.065 190.039C399.221 190.336 399.3 190.693 399.3 191.109ZM404.51 192.242C404.958 192.242 405.406 192.172 405.854 192.031V193.414C405.651 193.503 405.388 193.576 405.065 193.633C404.747 193.695 404.417 193.727 404.073 193.727C402.333 193.727 401.464 192.81 401.464 190.977V186.32H400.284V185.508L401.55 184.836L402.175 183.008H403.307V184.93H405.768V186.32H403.307V190.945C403.307 191.388 403.417 191.716 403.635 191.93C403.859 192.138 404.151 192.242 404.51 192.242ZM415.253 189.234C415.253 190.646 414.891 191.748 414.167 192.539C413.443 193.331 412.435 193.727 411.143 193.727C410.336 193.727 409.622 193.544 409.003 193.18C408.383 192.815 407.906 192.292 407.573 191.609C407.24 190.927 407.073 190.136 407.073 189.234C407.073 187.833 407.432 186.74 408.151 185.953C408.87 185.167 409.883 184.774 411.19 184.774C412.44 184.774 413.43 185.177 414.159 185.984C414.888 186.787 415.253 187.87 415.253 189.234ZM408.964 189.234C408.964 191.229 409.701 192.227 411.175 192.227C412.633 192.227 413.362 191.229 413.362 189.234C413.362 187.261 412.628 186.274 411.159 186.274C410.388 186.274 409.828 186.529 409.479 187.039C409.135 187.55 408.964 188.281 408.964 189.234ZM424.651 193.57H422.807V188.242C422.807 187.581 422.682 187.089 422.432 186.766C422.182 186.438 421.792 186.274 421.26 186.274C420.552 186.274 420.031 186.505 419.698 186.969C419.37 187.427 419.206 188.193 419.206 189.266V193.57H417.37V184.93H418.807L419.065 186.063H419.159C419.399 185.651 419.745 185.333 420.198 185.109C420.656 184.886 421.159 184.774 421.706 184.774C423.034 184.774 423.914 185.227 424.346 186.133H424.471C424.727 185.706 425.086 185.373 425.55 185.133C426.013 184.893 426.544 184.774 427.143 184.774C428.175 184.774 428.925 185.034 429.393 185.555C429.867 186.076 430.104 186.87 430.104 187.938V193.57H428.268V188.242C428.268 187.581 428.141 187.089 427.885 186.766C427.635 186.438 427.245 186.274 426.714 186.274C426 186.274 425.477 186.498 425.143 186.945C424.815 187.388 424.651 188.07 424.651 188.992V193.57ZM436.44 193.727C435.096 193.727 434.044 193.336 433.284 192.555C432.529 191.768 432.151 190.688 432.151 189.313C432.151 187.901 432.503 186.792 433.206 185.984C433.909 185.177 434.875 184.774 436.104 184.774C437.245 184.774 438.146 185.12 438.807 185.813C439.469 186.505 439.8 187.458 439.8 188.672V189.664H434.042C434.068 190.503 434.294 191.149 434.721 191.602C435.149 192.05 435.75 192.274 436.526 192.274C437.037 192.274 437.51 192.227 437.948 192.133C438.391 192.034 438.865 191.873 439.37 191.649V193.141C438.922 193.354 438.469 193.505 438.01 193.594C437.552 193.682 437.029 193.727 436.44 193.727ZM436.104 186.164C435.521 186.164 435.052 186.349 434.698 186.719C434.349 187.089 434.141 187.628 434.073 188.336H437.995C437.984 187.623 437.813 187.083 437.479 186.719C437.146 186.349 436.688 186.164 436.104 186.164ZM446.268 184.774C446.638 184.774 446.943 184.8 447.182 184.852L447.003 186.563C446.742 186.5 446.471 186.469 446.19 186.469C445.456 186.469 444.859 186.708 444.401 187.188C443.948 187.667 443.721 188.289 443.721 189.055V193.57H441.885V184.93H443.323L443.565 186.453H443.659C443.945 185.938 444.318 185.529 444.776 185.227C445.24 184.925 445.737 184.774 446.268 184.774ZM454.596 191.109C454.596 191.953 454.289 192.602 453.675 193.055C453.06 193.503 452.18 193.727 451.034 193.727C449.883 193.727 448.958 193.552 448.26 193.203V191.617C449.276 192.086 450.221 192.32 451.096 192.32C452.227 192.32 452.792 191.979 452.792 191.297C452.792 191.078 452.729 190.896 452.604 190.75C452.479 190.604 452.274 190.453 451.987 190.297C451.701 190.141 451.302 189.964 450.792 189.766C449.797 189.38 449.122 188.995 448.768 188.609C448.419 188.224 448.245 187.724 448.245 187.109C448.245 186.37 448.542 185.797 449.135 185.391C449.734 184.979 450.547 184.774 451.573 184.774C452.589 184.774 453.55 184.979 454.456 185.391L453.862 186.774C452.93 186.388 452.146 186.195 451.51 186.195C450.542 186.195 450.057 186.471 450.057 187.024C450.057 187.294 450.182 187.524 450.432 187.711C450.688 187.899 451.24 188.156 452.089 188.484C452.802 188.761 453.32 189.013 453.643 189.242C453.966 189.471 454.206 189.737 454.362 190.039C454.518 190.336 454.596 190.693 454.596 191.109Z" fill="#95969D"/>
<path d="M588.01 193.57H581.549V182.149H588.01V183.727H583.416V186.836H587.72V188.399H583.416V191.984H588.01V193.57ZM597.572 193.57H595.728V188.242C595.728 187.581 595.603 187.089 595.353 186.766C595.103 186.438 594.713 186.274 594.181 186.274C593.473 186.274 592.952 186.505 592.619 186.969C592.291 187.427 592.127 188.193 592.127 189.266V193.57H590.291V184.93H591.728L591.986 186.063H592.08C592.319 185.651 592.666 185.333 593.119 185.109C593.577 184.886 594.08 184.774 594.627 184.774C595.955 184.774 596.835 185.227 597.267 186.133H597.392C597.648 185.706 598.007 185.373 598.47 185.133C598.934 184.893 599.465 184.774 600.064 184.774C601.095 184.774 601.845 185.034 602.314 185.555C602.788 186.076 603.025 186.87 603.025 187.938V193.57H601.189V188.242C601.189 187.581 601.062 187.089 600.806 186.766C600.556 186.438 600.166 186.274 599.635 186.274C598.921 186.274 598.398 186.498 598.064 186.945C597.736 187.388 597.572 188.07 597.572 188.992V193.57ZM609.97 193.727C608.877 193.727 608.028 193.333 607.424 192.547H607.314C607.387 193.276 607.424 193.719 607.424 193.875V197.414H605.588V184.93H607.072C607.114 185.091 607.2 185.477 607.33 186.086H607.424C607.997 185.211 608.856 184.774 610.002 184.774C611.08 184.774 611.918 185.164 612.517 185.945C613.122 186.727 613.424 187.823 613.424 189.234C613.424 190.646 613.116 191.748 612.502 192.539C611.892 193.331 611.049 193.727 609.97 193.727ZM609.525 186.274C608.796 186.274 608.262 186.487 607.924 186.914C607.59 187.341 607.424 188.024 607.424 188.961V189.234C607.424 190.287 607.59 191.05 607.924 191.524C608.257 191.992 608.801 192.227 609.556 192.227C610.192 192.227 610.681 191.966 611.025 191.445C611.369 190.925 611.541 190.182 611.541 189.219C611.541 188.25 611.369 187.518 611.025 187.024C610.687 186.524 610.187 186.274 609.525 186.274ZM617.392 193.57H615.556V181.414H617.392V193.57ZM627.689 189.234C627.689 190.646 627.327 191.748 626.603 192.539C625.879 193.331 624.872 193.727 623.58 193.727C622.773 193.727 622.059 193.544 621.439 193.18C620.819 192.815 620.343 192.292 620.01 191.609C619.676 190.927 619.51 190.136 619.51 189.234C619.51 187.833 619.869 186.74 620.588 185.953C621.306 185.167 622.319 184.774 623.627 184.774C624.877 184.774 625.866 185.177 626.595 185.984C627.325 186.787 627.689 187.87 627.689 189.234ZM621.4 189.234C621.4 191.229 622.137 192.227 623.611 192.227C625.069 192.227 625.799 191.229 625.799 189.234C625.799 187.261 625.064 186.274 623.595 186.274C622.825 186.274 622.265 186.529 621.916 187.039C621.572 187.55 621.4 188.281 621.4 189.234ZM628.494 184.93H630.494L632.252 189.828C632.517 190.526 632.694 191.182 632.783 191.797H632.845C632.892 191.511 632.978 191.164 633.103 190.758C633.228 190.346 633.89 188.404 635.088 184.93H637.072L633.377 194.719C632.705 196.516 631.585 197.414 630.017 197.414C629.611 197.414 629.215 197.37 628.83 197.281V195.828C629.106 195.891 629.421 195.922 629.775 195.922C630.661 195.922 631.283 195.409 631.642 194.383L631.963 193.57L628.494 184.93ZM642.158 193.727C640.814 193.727 639.762 193.336 639.002 192.555C638.247 191.768 637.869 190.688 637.869 189.313C637.869 187.901 638.22 186.792 638.924 185.984C639.627 185.177 640.593 184.774 641.822 184.774C642.963 184.774 643.864 185.12 644.525 185.813C645.187 186.505 645.517 187.458 645.517 188.672V189.664H639.76C639.786 190.503 640.012 191.149 640.439 191.602C640.866 192.05 641.468 192.274 642.244 192.274C642.754 192.274 643.228 192.227 643.666 192.133C644.108 192.034 644.582 191.873 645.088 191.649V193.141C644.64 193.354 644.187 193.505 643.728 193.594C643.27 193.682 642.747 193.727 642.158 193.727ZM641.822 186.164C641.239 186.164 640.77 186.349 640.416 186.719C640.067 187.089 639.858 187.628 639.791 188.336H643.713C643.702 187.623 643.53 187.083 643.197 186.719C642.864 186.349 642.405 186.164 641.822 186.164ZM651.377 193.727C650.033 193.727 648.981 193.336 648.22 192.555C647.465 191.768 647.088 190.688 647.088 189.313C647.088 187.901 647.439 186.792 648.142 185.984C648.845 185.177 649.812 184.774 651.041 184.774C652.181 184.774 653.082 185.12 653.744 185.813C654.405 186.505 654.736 187.458 654.736 188.672V189.664H648.978C649.004 190.503 649.231 191.149 649.658 191.602C650.085 192.05 650.687 192.274 651.463 192.274C651.973 192.274 652.447 192.227 652.885 192.133C653.327 192.034 653.801 191.873 654.306 191.649V193.141C653.858 193.354 653.405 193.505 652.947 193.594C652.489 193.682 651.965 193.727 651.377 193.727ZM651.041 186.164C650.457 186.164 649.989 186.349 649.635 186.719C649.286 187.089 649.077 187.628 649.01 188.336H652.931C652.921 187.623 652.749 187.083 652.416 186.719C652.082 186.349 651.624 186.164 651.041 186.164ZM662.627 191.109C662.627 191.953 662.319 192.602 661.705 193.055C661.09 193.503 660.21 193.727 659.064 193.727C657.913 193.727 656.989 193.552 656.291 193.203V191.617C657.306 192.086 658.252 192.32 659.127 192.32C660.257 192.32 660.822 191.979 660.822 191.297C660.822 191.078 660.76 190.896 660.635 190.75C660.51 190.604 660.304 190.453 660.017 190.297C659.731 190.141 659.332 189.964 658.822 189.766C657.827 189.38 657.153 188.995 656.799 188.609C656.45 188.224 656.275 187.724 656.275 187.109C656.275 186.37 656.572 185.797 657.166 185.391C657.765 184.979 658.577 184.774 659.603 184.774C660.619 184.774 661.58 184.979 662.486 185.391L661.892 186.774C660.96 186.388 660.176 186.195 659.541 186.195C658.572 186.195 658.088 186.471 658.088 187.024C658.088 187.294 658.213 187.524 658.463 187.711C658.718 187.899 659.27 188.156 660.119 188.484C660.832 188.761 661.351 189.013 661.674 189.242C661.997 189.471 662.236 189.737 662.392 190.039C662.549 190.336 662.627 190.693 662.627 191.109Z" fill="#95969D"/>
<rect x="168.711" y="206.656" width="80.1989" height="9.57037" rx="4.78519" fill="#E3E8EF"/>
<rect x="368.492" y="206.656" width="55.0296" height="9.57037" rx="4.78519" fill="#E3E8EF"/>
<rect x="579.041" y="206.656" width="55.0296" height="9.57037" rx="4.78519" fill="#E3E8EF"/>
<path d="M143.2 39L139.5 25H142.24L144.76 36.14L147.72 25H150.54L153.42 36.14L155.94 25H158.7L154.9 39H151.86L149.08 28.62L146.22 39H143.2ZM163.861 39.24C162.861 39.24 161.974 39.0267 161.201 38.6C160.427 38.1733 159.821 37.5733 159.381 36.8C158.941 36.0267 158.721 35.1333 158.721 34.12C158.721 33.0933 158.934 32.18 159.361 31.38C159.801 30.58 160.401 29.96 161.161 29.52C161.934 29.0667 162.841 28.84 163.881 28.84C164.854 28.84 165.714 29.0533 166.461 29.48C167.207 29.9067 167.787 30.4933 168.201 31.24C168.627 31.9733 168.841 32.7933 168.841 33.7C168.841 33.8467 168.834 34 168.821 34.16C168.821 34.32 168.814 34.4867 168.801 34.66H161.261C161.314 35.4333 161.581 36.04 162.061 36.48C162.554 36.92 163.147 37.14 163.841 37.14C164.361 37.14 164.794 37.0267 165.141 36.8C165.501 36.56 165.767 36.2533 165.941 35.88H168.541C168.354 36.5067 168.041 37.08 167.601 37.6C167.174 38.1067 166.641 38.5067 166.001 38.8C165.374 39.0933 164.661 39.24 163.861 39.24ZM163.881 30.92C163.254 30.92 162.701 31.1 162.221 31.46C161.741 31.8067 161.434 32.34 161.301 33.06H166.241C166.201 32.4067 165.961 31.8867 165.521 31.5C165.081 31.1133 164.534 30.92 163.881 30.92ZM170.594 39V24.6H173.154V39H170.594ZM180.23 39.24C179.216 39.24 178.323 39.02 177.55 38.58C176.776 38.14 176.163 37.5267 175.71 36.74C175.27 35.9533 175.05 35.0533 175.05 34.04C175.05 33.0267 175.27 32.1267 175.71 31.34C176.163 30.5533 176.776 29.94 177.55 29.5C178.323 29.06 179.216 28.84 180.23 28.84C181.496 28.84 182.563 29.1733 183.43 29.84C184.296 30.4933 184.85 31.4 185.09 32.56H182.39C182.256 32.08 181.99 31.7067 181.59 31.44C181.203 31.16 180.743 31.02 180.21 31.02C179.503 31.02 178.903 31.2867 178.41 31.82C177.916 32.3533 177.67 33.0933 177.67 34.04C177.67 34.9867 177.916 35.7267 178.41 36.26C178.903 36.7933 179.503 37.06 180.21 37.06C180.743 37.06 181.203 36.9267 181.59 36.66C181.99 36.3933 182.256 36.0133 182.39 35.52H185.09C184.85 36.64 184.296 37.54 183.43 38.22C182.563 38.9 181.496 39.24 180.23 39.24ZM191.722 39.24C190.762 39.24 189.895 39.02 189.122 38.58C188.362 38.14 187.755 37.5333 187.302 36.76C186.862 35.9733 186.642 35.0667 186.642 34.04C186.642 33.0133 186.868 32.1133 187.322 31.34C187.775 30.5533 188.382 29.94 189.142 29.5C189.915 29.06 190.782 28.84 191.742 28.84C192.688 28.84 193.542 29.06 194.302 29.5C195.075 29.94 195.682 30.5533 196.122 31.34C196.575 32.1133 196.802 33.0133 196.802 34.04C196.802 35.0667 196.575 35.9733 196.122 36.76C195.682 37.5333 195.075 38.14 194.302 38.58C193.528 39.02 192.668 39.24 191.722 39.24ZM191.722 37.02C192.388 37.02 192.968 36.7733 193.462 36.28C193.955 35.7733 194.202 35.0267 194.202 34.04C194.202 33.0533 193.955 32.3133 193.462 31.82C192.968 31.3133 192.395 31.06 191.742 31.06C191.062 31.06 190.475 31.3133 189.982 31.82C189.502 32.3133 189.262 33.0533 189.262 34.04C189.262 35.0267 189.502 35.7733 189.982 36.28C190.475 36.7733 191.055 37.02 191.722 37.02ZM198.691 39V29.08H200.951L201.171 30.42C201.491 29.94 201.911 29.56 202.431 29.28C202.964 28.9867 203.577 28.84 204.271 28.84C205.804 28.84 206.891 29.4333 207.531 30.62C207.891 30.0733 208.371 29.64 208.971 29.32C209.584 29 210.251 28.84 210.971 28.84C212.264 28.84 213.257 29.2267 213.951 30C214.644 30.7733 214.991 31.9067 214.991 33.4V39H212.431V33.64C212.431 32.7867 212.264 32.1333 211.931 31.68C211.611 31.2267 211.111 31 210.431 31C209.737 31 209.177 31.2533 208.751 31.76C208.337 32.2667 208.131 32.9733 208.131 33.88V39H205.571V33.64C205.571 32.7867 205.404 32.1333 205.071 31.68C204.737 31.2267 204.224 31 203.531 31C202.851 31 202.297 31.2533 201.871 31.76C201.457 32.2667 201.251 32.9733 201.251 33.88V39H198.691ZM221.841 39.24C220.841 39.24 219.954 39.0267 219.181 38.6C218.408 38.1733 217.801 37.5733 217.361 36.8C216.921 36.0267 216.701 35.1333 216.701 34.12C216.701 33.0933 216.914 32.18 217.341 31.38C217.781 30.58 218.381 29.96 219.141 29.52C219.914 29.0667 220.821 28.84 221.861 28.84C222.834 28.84 223.694 29.0533 224.441 29.48C225.188 29.9067 225.768 30.4933 226.181 31.24C226.608 31.9733 226.821 32.7933 226.821 33.7C226.821 33.8467 226.814 34 226.801 34.16C226.801 34.32 226.794 34.4867 226.781 34.66H219.241C219.294 35.4333 219.561 36.04 220.041 36.48C220.534 36.92 221.128 37.14 221.821 37.14C222.341 37.14 222.774 37.0267 223.121 36.8C223.481 36.56 223.748 36.2533 223.921 35.88H226.521C226.334 36.5067 226.021 37.08 225.581 37.6C225.154 38.1067 224.621 38.5067 223.981 38.8C223.354 39.0933 222.641 39.24 221.841 39.24ZM221.861 30.92C221.234 30.92 220.681 31.1 220.201 31.46C219.721 31.8067 219.414 32.34 219.281 33.06H224.221C224.181 32.4067 223.941 31.8867 223.501 31.5C223.061 31.1133 222.514 30.92 221.861 30.92ZM237.36 39C236.32 39 235.487 38.7467 234.86 38.24C234.233 37.7333 233.92 36.8333 233.92 35.54V31.22H232.22V29.08H233.92L234.22 26.42H236.48V29.08H239.16V31.22H236.48V35.56C236.48 36.04 236.58 36.3733 236.78 36.56C236.993 36.7333 237.353 36.82 237.86 36.82H239.1V39H237.36ZM245.464 39.24C244.504 39.24 243.637 39.02 242.864 38.58C242.104 38.14 241.497 37.5333 241.044 36.76C240.604 35.9733 240.384 35.0667 240.384 34.04C240.384 33.0133 240.611 32.1133 241.064 31.34C241.517 30.5533 242.124 29.94 242.884 29.5C243.657 29.06 244.524 28.84 245.484 28.84C246.431 28.84 247.284 29.06 248.044 29.5C248.817 29.94 249.424 30.5533 249.864 31.34C250.317 32.1133 250.544 33.0133 250.544 34.04C250.544 35.0667 250.317 35.9733 249.864 36.76C249.424 37.5333 248.817 38.14 248.044 38.58C247.271 39.02 246.411 39.24 245.464 39.24ZM245.464 37.02C246.131 37.02 246.711 36.7733 247.204 36.28C247.697 35.7733 247.944 35.0267 247.944 34.04C247.944 33.0533 247.697 32.3133 247.204 31.82C246.711 31.3133 246.137 31.06 245.484 31.06C244.804 31.06 244.217 31.3133 243.724 31.82C243.244 32.3133 243.004 33.0533 243.004 34.04C243.004 35.0267 243.244 35.7733 243.724 36.28C244.217 36.7733 244.797 37.02 245.464 37.02ZM261.638 39.24C260.612 39.24 259.705 39.0667 258.918 38.72C258.132 38.36 257.512 37.8533 257.058 37.2C256.605 36.5333 256.372 35.7267 256.358 34.78H259.058C259.085 35.4333 259.318 35.9867 259.758 36.44C260.212 36.88 260.832 37.1 261.618 37.1C262.298 37.1 262.838 36.94 263.238 36.62C263.638 36.2867 263.838 35.8467 263.838 35.3C263.838 34.7267 263.658 34.28 263.298 33.96C262.952 33.64 262.485 33.38 261.898 33.18C261.312 32.98 260.685 32.7667 260.018 32.54C258.938 32.1667 258.112 31.6867 257.538 31.1C256.978 30.5133 256.698 29.7333 256.698 28.76C256.685 27.9333 256.878 27.2267 257.278 26.64C257.692 26.04 258.252 25.58 258.958 25.26C259.665 24.9267 260.478 24.76 261.398 24.76C262.332 24.76 263.152 24.9267 263.858 25.26C264.578 25.5933 265.138 26.06 265.538 26.66C265.952 27.26 266.172 27.9733 266.198 28.8H263.458C263.445 28.3067 263.252 27.8733 262.878 27.5C262.518 27.1133 262.012 26.92 261.358 26.92C260.798 26.9067 260.325 27.0467 259.938 27.34C259.565 27.62 259.378 28.0333 259.378 28.58C259.378 29.0467 259.525 29.42 259.818 29.7C260.112 29.9667 260.512 30.1933 261.018 30.38C261.525 30.5667 262.105 30.7667 262.758 30.98C263.452 31.22 264.085 31.5 264.658 31.82C265.232 32.14 265.692 32.5667 266.038 33.1C266.385 33.62 266.558 34.2933 266.558 35.12C266.558 35.8533 266.372 36.5333 265.998 37.16C265.625 37.7867 265.072 38.2933 264.338 38.68C263.605 39.0533 262.705 39.24 261.638 39.24ZM273.192 39.24C272.179 39.24 271.285 39.02 270.512 38.58C269.739 38.14 269.125 37.5267 268.672 36.74C268.232 35.9533 268.012 35.0533 268.012 34.04C268.012 33.0267 268.232 32.1267 268.672 31.34C269.125 30.5533 269.739 29.94 270.512 29.5C271.285 29.06 272.179 28.84 273.192 28.84C274.459 28.84 275.525 29.1733 276.392 29.84C277.259 30.4933 277.812 31.4 278.052 32.56H275.352C275.219 32.08 274.952 31.7067 274.552 31.44C274.165 31.16 273.705 31.02 273.172 31.02C272.465 31.02 271.865 31.2867 271.372 31.82C270.879 32.3533 270.632 33.0933 270.632 34.04C270.632 34.9867 270.879 35.7267 271.372 36.26C271.865 36.7933 272.465 37.06 273.172 37.06C273.705 37.06 274.165 36.9267 274.552 36.66C274.952 36.3933 275.219 36.0133 275.352 35.52H278.052C277.812 36.64 277.259 37.54 276.392 38.22C275.525 38.9 274.459 39.24 273.192 39.24ZM281.304 27.54C280.838 27.54 280.451 27.4 280.144 27.12C279.851 26.84 279.704 26.4867 279.704 26.06C279.704 25.6333 279.851 25.2867 280.144 25.02C280.451 24.74 280.838 24.6 281.304 24.6C281.771 24.6 282.151 24.74 282.444 25.02C282.751 25.2867 282.904 25.6333 282.904 26.06C282.904 26.4867 282.751 26.84 282.444 27.12C282.151 27.4 281.771 27.54 281.304 27.54ZM280.024 39V29.08H282.584V39H280.024ZM289.676 39.24C288.676 39.24 287.79 39.0267 287.016 38.6C286.243 38.1733 285.636 37.5733 285.196 36.8C284.756 36.0267 284.536 35.1333 284.536 34.12C284.536 33.0933 284.75 32.18 285.176 31.38C285.616 30.58 286.216 29.96 286.976 29.52C287.75 29.0667 288.656 28.84 289.696 28.84C290.67 28.84 291.53 29.0533 292.276 29.48C293.023 29.9067 293.603 30.4933 294.016 31.24C294.443 31.9733 294.656 32.7933 294.656 33.7C294.656 33.8467 294.65 34 294.636 34.16C294.636 34.32 294.63 34.4867 294.616 34.66H287.076C287.13 35.4333 287.396 36.04 287.876 36.48C288.37 36.92 288.963 37.14 289.656 37.14C290.176 37.14 290.61 37.0267 290.956 36.8C291.316 36.56 291.583 36.2533 291.756 35.88H294.356C294.17 36.5067 293.856 37.08 293.416 37.6C292.99 38.1067 292.456 38.5067 291.816 38.8C291.19 39.0933 290.476 39.24 289.676 39.24ZM289.696 30.92C289.07 30.92 288.516 31.1 288.036 31.46C287.556 31.8067 287.25 32.34 287.116 33.06H292.056C292.016 32.4067 291.776 31.8867 291.336 31.5C290.896 31.1133 290.35 30.92 289.696 30.92ZM296.409 39V24.6H298.969V39H296.409ZM302.565 27.54C302.098 27.54 301.712 27.4 301.405 27.12C301.112 26.84 300.965 26.4867 300.965 26.06C300.965 25.6333 301.112 25.2867 301.405 25.02C301.712 24.74 302.098 24.6 302.565 24.6C303.032 24.6 303.412 24.74 303.705 25.02C304.012 25.2867 304.165 25.6333 304.165 26.06C304.165 26.4867 304.012 26.84 303.705 27.12C303.412 27.4 303.032 27.54 302.565 27.54ZM301.285 39V29.08H303.845V39H301.285ZM306.117 39V29.08H308.377L308.577 30.76C308.884 30.1733 309.324 29.7067 309.897 29.36C310.484 29.0133 311.171 28.84 311.957 28.84C313.184 28.84 314.137 29.2267 314.817 30C315.497 30.7733 315.837 31.9067 315.837 33.4V39H313.277V33.64C313.277 32.7867 313.104 32.1333 312.757 31.68C312.411 31.2267 311.871 31 311.137 31C310.417 31 309.824 31.2533 309.357 31.76C308.904 32.2667 308.677 32.9733 308.677 33.88V39H306.117ZM322.705 39.24C321.705 39.24 320.818 39.0267 320.045 38.6C319.272 38.1733 318.665 37.5733 318.225 36.8C317.785 36.0267 317.565 35.1333 317.565 34.12C317.565 33.0933 317.778 32.18 318.205 31.38C318.645 30.58 319.245 29.96 320.005 29.52C320.778 29.0667 321.685 28.84 322.725 28.84C323.698 28.84 324.558 29.0533 325.305 29.48C326.052 29.9067 326.632 30.4933 327.045 31.24C327.472 31.9733 327.685 32.7933 327.685 33.7C327.685 33.8467 327.678 34 327.665 34.16C327.665 34.32 327.658 34.4867 327.645 34.66H320.105C320.158 35.4333 320.425 36.04 320.905 36.48C321.398 36.92 321.992 37.14 322.685 37.14C323.205 37.14 323.638 37.0267 323.985 36.8C324.345 36.56 324.612 36.2533 324.785 35.88H327.385C327.198 36.5067 326.885 37.08 326.445 37.6C326.018 38.1067 325.485 38.5067 324.845 38.8C324.218 39.0933 323.505 39.24 322.705 39.24ZM322.725 30.92C322.098 30.92 321.545 31.1 321.065 31.46C320.585 31.8067 320.278 32.34 320.145 33.06H325.085C325.045 32.4067 324.805 31.8867 324.365 31.5C323.925 31.1133 323.378 30.92 322.725 30.92ZM329.978 34.58L329.698 25H332.438L332.138 34.58H329.978ZM331.118 39.14C330.638 39.14 330.245 38.9933 329.938 38.7C329.645 38.4067 329.498 38.0533 329.498 37.64C329.498 37.2133 329.645 36.8533 329.938 36.56C330.245 36.2667 330.638 36.12 331.118 36.12C331.572 36.12 331.945 36.2667 332.238 36.56C332.545 36.8533 332.698 37.2133 332.698 37.64C332.698 38.0533 332.545 38.4067 332.238 38.7C331.945 38.9933 331.572 39.14 331.118 39.14Z" fill="#2B3674"/>
<rect y="251" width="236.815" height="222.492" fill="white"/>
<rect x="25.6393" y="324.599" width="185.048" height="24.4916" rx="12.2458" fill="#F1F4FA"/>
<rect x="22.9178" y="361.336" width="190.49" height="24.4916" rx="12.2458" fill="#F1F4FA"/>
<rect x="58.5995" y="403.867" width="119" height="24.8971" rx="12.4486" fill="#9FF2F4"/>
<g clip-path="url(#clip0_2_1355)">
<path d="M137.934 265.323H98.2668C96.7028 265.323 95.4335 266.593 95.4335 268.157V282.56C95.4713 296.012 104.793 307.657 117.911 310.638C118.036 310.663 118.164 310.663 118.289 310.638C131.408 307.657 140.729 296.012 140.767 282.56V268.157C140.767 266.593 139.498 265.323 137.934 265.323ZM118.085 274.768C121.215 274.781 123.742 277.327 123.729 280.457C123.716 283.587 121.17 286.115 118.04 286.101C114.919 286.088 112.396 283.555 112.396 280.435C112.403 277.299 114.95 274.762 118.085 274.768ZM127.384 297.246C127.273 297.367 127.116 297.435 126.952 297.435H109.6C109.079 297.438 108.654 297.017 108.65 296.496C108.65 296.458 108.652 296.42 108.656 296.384C109.236 291.179 113.928 287.429 119.132 288.009C123.695 288.517 127.239 292.223 127.545 296.806C127.556 296.968 127.498 297.129 127.384 297.246Z" fill="#9FF2F4"/>
</g>
<rect x="99.2103" y="414.547" width="37.7779" height="3.77779" rx="1.8889" fill="#04D6DB"/>
<rect x="78.4332" y="448.546" width="79.3336" height="5.66669" fill="#F1F4FA"/>
<defs>
<linearGradient id="paint0_linear_2_1355" x1="378.441" y1="318.406" x2="378.441" y2="388.942" gradientUnits="userSpaceOnUse">
<stop stop-color="#CADBF8"/>
<stop offset="1" stop-color="#CADBF8" stop-opacity="0"/>
</linearGradient>
<clipPath id="clip0_2_1355">
<rect width="45.3335" height="45.3335" fill="white" transform="translate(95.4335 265.323)"/>
</clipPath>
</defs>
</svg>
