<svg width="1415" height="298" fill="none" xmlns="http://www.w3.org/2000/svg"><path fill-rule="evenodd" clip-rule="evenodd" d="M10 0C4.477 0 0 4.477 0 10v278c0 5.523 4.477 10 10 10h1395c5.52 0 10-4.477 10-10V182.517c-30.23-10.516-55.53-16.746-80.79-16.972-23.73-.212-55.55 12.999-66.3 17.793a36.32 36.32 0 01-17.88 4.699c-21.11 0-38.23-18.142-38.23-40.52 0-22.379 17.12-40.52 38.23-40.52 7.05 0 13.65 2.021 19.31 5.545 11.91 5.647 42.02 18.815 64.87 19.217 25.09.443 50.4-5.526 80.79-17.694V10c0-5.523-4.48-10-10-10H10zm983.46 101.955c7.43 0 13.46 6.026 13.46 13.459 0 7.434-6.03 13.46-13.46 13.46-7.434 0-13.46-6.026-13.46-13.46 0-7.433 6.026-13.459 13.46-13.459zm43.8 85.698c14.87 0 26.92 12.052 26.92 26.919s-12.05 26.919-26.92 26.919c-14.86 0-26.92-12.052-26.92-26.919s12.06-26.919 26.92-26.919zm155.26-39.958c0-22.3-18.08-40.378-40.38-40.378-22.3 0-40.38 18.078-40.38 40.378 0 22.301 18.08 40.379 40.38 40.379 22.3 0 40.38-18.078 40.38-40.379z" fill="url(#paint0_linear_425_2140)"/><defs><linearGradient id="paint0_linear_425_2140" x1="0" y1="130" x2="1415" y2="232" gradientUnits="userSpaceOnUse"><stop stop-color="#fff" stop-opacity=".8"/><stop offset="1" stop-color="#fff" stop-opacity=".6"/></linearGradient></defs></svg>