<svg width="40" height="40" viewBox="0 0 40 40" fill="none" xmlns="http://www.w3.org/2000/svg">
<path d="M0.75 20C0.75 9.36852 9.36852 0.75 20 0.75C30.6315 0.75 39.25 9.36852 39.25 20C39.25 30.6315 30.6315 39.25 20 39.25C9.36852 39.25 0.75 30.6315 0.75 20Z" fill="white" stroke="#2F8FFF" stroke-width="1.5"/>
<path d="M24.7071 20.7071C25.0976 20.3166 25.0976 19.6834 24.7071 19.2929L18.3431 12.929C17.9526 12.5384 17.3194 12.5384 16.9289 12.929C16.5384 13.3195 16.5384 13.9526 16.9289 14.3432L22.5858 20L16.929 25.6569C16.5384 26.0474 16.5384 26.6806 16.929 27.0711C17.3195 27.4616 17.9526 27.4616 18.3432 27.0711L24.7071 20.7071ZM23 21L24 21L24 19L23 19L23 21Z" fill="#2F8FFF"/>
</svg>
