<svg width="34" height="123" viewBox="0 0 34 123" fill="none" xmlns="http://www.w3.org/2000/svg">
<path fill-rule="evenodd" clip-rule="evenodd" d="M31.8074 63.2602C31.8074 64.9028 31.3359 66.4414 30.5135 67.7623C29.1973 70.5366 26.1337 77.5457 26.0399 82.8637C25.9158 89.9069 27.9601 97.0213 32.0862 106.194C33.2359 107.887 33.9025 109.899 33.9025 112.058C33.9025 118.067 28.7388 122.938 22.369 122.938C15.9992 122.938 10.8354 118.067 10.8354 112.058C10.8354 110.007 11.4367 108.089 12.4819 106.452C15.9701 97.2064 18.1075 90.0271 18.1716 82.8637C18.2211 77.3346 15.1391 69.9163 14.0251 67.4188C13.3287 66.1776 12.9344 64.7624 12.9344 63.2602C12.9344 58.3436 17.1592 54.3579 22.3709 54.3579C27.5825 54.3579 31.8074 58.3436 31.8074 63.2602Z" fill="#1D82F9"/>
<circle cx="22.3294" cy="40.3972" r="9.40364" fill="#2F8FFF"/>
<circle cx="6.75445" cy="13.6443" r="6.2691" fill="#07EAF2"/>
<circle cx="29.8474" cy="3.44265" r="3.13455" fill="#07EAF2"/>
</svg>
