<svg width="31" height="31" viewBox="0 0 31 31" fill="none" xmlns="http://www.w3.org/2000/svg">
    <g clip-path="url(#clip0_421_2565)">
        <path d="M15.5001 0.619385C7.28202 0.619385 0.620117 7.28129 0.620117 15.4994C0.620117 23.7175 7.28202 30.3794 15.5001 30.3794C23.7182 30.3794 30.3801 23.7175 30.3801 15.4994C30.3801 7.28129 23.7182 0.619385 15.5001 0.619385ZM19.0248 10.9021H16.7882C16.5231 10.9021 16.2286 11.2508 16.2286 11.7143V13.3294H19.0264L18.6032 15.6327H16.2286V22.5472H13.589V15.6327H11.1942V13.3294H13.589V11.9747C13.589 10.031 14.9375 8.45153 16.7882 8.45153H19.0248V10.9021Z"
              fill="#2F8FFF"/>
    </g>
    <defs>
        <clipPath id="clip0_421_2565">
            <rect width="31" height="31" fill="white" transform="translate(0 -0.000488281)"/>
        </clipPath>
    </defs>
</svg>
