<svg width="22" height="26" viewBox="0 0 22 26" fill="none" xmlns="http://www.w3.org/2000/svg">
<path d="M20.6364 10.8182C20.6364 18.4545 10.8182 25 10.8182 25C10.8182 25 1 18.4545 1 10.8182C1 8.21424 2.03441 5.71695 3.87568 3.87568C5.71695 2.03441 8.21424 1 10.8182 1C13.4221 1 15.9194 2.03441 17.7607 3.87568C19.602 5.71695 20.6364 8.21424 20.6364 10.8182Z" stroke="#2F8FFF" stroke-width="1.2" stroke-linecap="round" stroke-linejoin="round"/>
<path d="M10.8181 14.0911C12.6256 14.0911 14.0909 12.6259 14.0909 10.8184C14.0909 9.0109 12.6256 7.54565 10.8181 7.54565C9.01066 7.54565 7.54541 9.0109 7.54541 10.8184C7.54541 12.6259 9.01066 14.0911 10.8181 14.0911Z" stroke="#2F8FFF" stroke-width="1.2" stroke-linecap="round" stroke-linejoin="round"/>
</svg>
