<svg width="18" height="18" viewBox="0 0 18 18" fill="none" xmlns="http://www.w3.org/2000/svg">
<g clip-path="url(#clip0_421_2552)">
<path d="M9.60939 6.62256V6.52256H9.50939H4.41504H4.31504V6.62256V7.30181V7.40181H4.41504H9.50939H9.60939V7.30181V6.62256Z" fill="#2F8FFF" stroke="#2F8FFF" stroke-width="0.2"/>
<path d="M11.3075 9V8.9H11.2075H4.41504H4.31504V9V9.67925V9.77925H4.41504H11.2075H11.3075V9.67925V9Z" fill="#2F8FFF" stroke="#2F8FFF" stroke-width="0.2"/>
<path d="M11.3075 11.3774V11.2774H11.2075H4.41504H4.31504V11.3774V12.0567V12.1567H4.41504H11.2075H11.3075V12.0567V11.3774Z" fill="#2F8FFF" stroke="#2F8FFF" stroke-width="0.2"/>
<path d="M14.5038 8.85892H14.5038V8.95892V16.0321H3.49623V8.95892V5.56138C3.49623 5.50714 3.52323 5.46088 3.57517 5.42445C3.62877 5.38686 3.70423 5.36421 3.78081 5.36421H14.3041C14.3792 5.36421 14.4262 5.38573 14.4543 5.41359C14.4823 5.44134 14.5038 5.48752 14.5038 5.56138V8.85892ZM17.2208 8.85579H17.2207V8.95579C17.2207 9.46355 16.8083 9.87648 16.3019 9.87648C15.7952 9.87648 15.383 9.4646 15.383 8.95895V5.56142V5.36424H15.9623H16.0623V5.26424V4.58499V4.48499H15.9623H14.3041H3.78081H2.03776H1.93776V4.58499V5.26424V5.36424H2.03776H2.61702V5.56142V8.95895C2.61702 9.46463 2.20488 9.87648 1.69815 9.87648C1.19172 9.87648 0.779289 9.46355 0.779289 8.95579V2.84623C0.779289 2.34905 1.22332 1.96797 1.74129 1.96797H16.3438C16.8506 1.96797 17.2208 2.33849 17.2208 2.84623V8.85579ZM16.3437 1.08872H1.74122C0.755755 1.08872 -0.1 1.84738 -0.1 2.84623V8.95579C-0.1 9.94818 0.706505 10.7557 1.69812 10.7557C2.02793 10.7557 2.35752 10.6631 2.61698 10.5029V16.4293C2.61698 16.5564 2.68159 16.676 2.76697 16.7614C2.85236 16.8468 2.97194 16.9114 3.09906 16.9114H14.9858C15.1187 16.9114 15.221 16.8411 15.2865 16.7483C15.3507 16.6572 15.383 16.5409 15.383 16.4293V10.4853C15.6723 10.6517 15.9522 10.7557 16.3019 10.7557C17.2935 10.7557 18.1 9.94822 18.1 8.95579V2.84623C18.1 1.85378 17.3358 1.08872 16.3437 1.08872Z" fill="#2F8FFF" stroke="#2F8FFF" stroke-width="0.2"/>
</g>
<defs>
<clipPath id="clip0_421_2552">
<rect width="18" height="18" fill="white"/>
</clipPath>
</defs>
</svg>
