<svg width="214" height="171" viewBox="0 0 214 171" fill="none" xmlns="http://www.w3.org/2000/svg">
<path d="M62.4 124.24C68.24 124.24 71.16 126.6 71.16 131.32C71.16 136.12 68.24 138.52 62.4 138.52H57.96V145.36C57.96 148.4 57.12 150.72 55.44 152.32C53.76 153.92 51.56 154.72 48.84 154.72C46.12 154.72 43.92 153.92 42.24 152.32C40.56 150.72 39.72 148.4 39.72 145.36V138.52H10.56C8.08 138.52 6.12 137.8 4.68 136.36C3.24 134.84 2.52 132.96 2.52 130.72C2.52 128.48 3.28 126.24 4.8 124L40.56 72.88C41.52 71.52 42.72 70.52 44.16 69.88C45.6 69.16 47.12 68.8 48.72 68.8C51.2 68.8 53.36 69.64 55.2 71.32C57.04 72.92 57.96 75.16 57.96 78.04V124.24H62.4ZM21.36 124.24H39.72V97.84L21.36 124.24Z" fill="#2F8FFF"/>
<path d="M204.4 124.24C210.24 124.24 213.16 126.6 213.16 131.32C213.16 136.12 210.24 138.52 204.4 138.52H199.96V145.36C199.96 148.4 199.12 150.72 197.44 152.32C195.76 153.92 193.56 154.72 190.84 154.72C188.12 154.72 185.92 153.92 184.24 152.32C182.56 150.72 181.72 148.4 181.72 145.36V138.52H152.56C150.08 138.52 148.12 137.8 146.68 136.36C145.24 134.84 144.52 132.96 144.52 130.72C144.52 128.48 145.28 126.24 146.8 124L182.56 72.88C183.52 71.52 184.72 70.52 186.16 69.88C187.6 69.16 189.12 68.8 190.72 68.8C193.2 68.8 195.36 69.64 197.2 71.32C199.04 72.92 199.96 75.16 199.96 78.04V124.24H204.4ZM163.36 124.24H181.72V97.84L163.36 124.24Z" fill="#2F8FFF"/>
<path fill-rule="evenodd" clip-rule="evenodd" d="M118.366 79.4851C118.366 81.5468 117.775 83.4782 116.744 85.1368C115.091 88.6192 111.236 97.4356 111.118 104.124C110.962 112.977 113.532 121.919 118.719 133.45C120.163 135.576 121 138.104 121 140.817C121 148.37 114.51 154.492 106.504 154.492C98.4979 154.492 92.0078 148.37 92.0078 140.817C92.0078 138.239 92.7638 135.828 94.078 133.77C98.462 122.15 101.148 113.127 101.229 104.124C101.291 97.1814 97.4251 87.8694 96.0214 84.7211C95.1429 83.1589 94.6453 81.3768 94.6453 79.4851C94.6453 73.3056 99.9553 68.2961 106.506 68.2961C113.056 68.2961 118.366 73.3056 118.366 79.4851Z" fill="#2F8FFF"/>
<circle cx="106.455" cy="50.7495" r="11.8191" fill="#07EAF2"/>
<circle cx="86.8794" cy="17.1247" r="7.87937" fill="#08F8FF"/>
<circle cx="115.904" cy="4.30297" r="3.93969" fill="#08F8FF"/>
</svg>
