<svg width="31" height="31" viewBox="0 0 31 31" fill="none" xmlns="http://www.w3.org/2000/svg">
<g clip-path="url(#clip0_421_2567)">
<path d="M15.5 -0.000488281C6.9409 -0.000488281 0 6.94041 0 15.4995C0 24.0586 6.9409 30.9995 15.5 30.9995C24.0591 30.9995 31 24.0586 31 15.4995C31 6.94041 24.0591 -0.000488281 15.5 -0.000488281ZM10.9959 23.4312H7.22092V12.0741H10.9959V23.4312ZM9.10852 10.5233H9.08392C7.81717 10.5233 6.99789 9.6513 6.99789 8.56145C6.99789 7.44701 7.84224 6.59912 9.13359 6.59912C10.4249 6.59912 11.2196 7.44701 11.2442 8.56145C11.2442 9.6513 10.4249 10.5233 9.10852 10.5233ZM24.6076 23.4312H20.8331V17.3554C20.8331 15.8285 20.2865 14.7871 18.9207 14.7871C17.8779 14.7871 17.2568 15.4896 16.9839 16.1677C16.8841 16.4103 16.8597 16.7495 16.8597 17.0889V23.4312H13.085C13.085 23.4312 13.1344 13.1396 13.085 12.0741H16.8597V13.6822C17.3613 12.9083 18.2589 11.8076 20.2617 11.8076C22.7453 11.8076 24.6076 13.4307 24.6076 16.9191V23.4312Z" fill="#2F8FFF"/>
</g>
<defs>
<clipPath id="clip0_421_2567">
<rect width="31" height="31" fill="white" transform="translate(0 -0.000488281)"/>
</clipPath>
</defs>
</svg>
