<svg width="204" height="81" viewBox="0 0 204 81" fill="none" xmlns="http://www.w3.org/2000/svg">
<path d="M10.775 57.1605C8.92196 57.1605 7.14608 56.8691 5.44742 56.2864C3.74875 55.7037 2.26628 54.8296 1 53.6641L2.15818 52.1782C3.45534 53.2853 4.79883 54.1012 6.18865 54.6256C7.57847 55.1501 9.10727 55.4123 10.775 55.4123C12.8752 55.4123 14.5584 55.0044 15.8247 54.1886C17.1219 53.3436 17.7705 52.1782 17.7705 50.6922C17.7705 49.9929 17.6006 49.4102 17.2609 48.944C16.952 48.4487 16.4733 48.0408 15.8247 47.7203C15.1761 47.3706 14.3731 47.0647 13.4157 46.8025C12.4583 46.5402 11.3464 46.2634 10.0801 45.9721C8.72121 45.6807 7.53214 45.3893 6.51294 45.098C5.52463 44.8066 4.70618 44.457 4.0576 44.0491C3.40902 43.6411 2.91486 43.1458 2.57513 42.5631C2.26628 41.9804 2.11185 41.2374 2.11185 40.3342C2.11185 39.1978 2.34349 38.2072 2.80676 37.3622C3.27004 36.5173 3.90317 35.818 4.70618 35.2644C5.54007 34.7108 6.48206 34.3029 7.53214 34.0407C8.61311 33.7493 9.75585 33.6036 10.9604 33.6036C12.8443 33.6036 14.5121 33.9096 15.9637 34.5214C17.4153 35.1042 18.5426 35.8617 19.3456 36.7941L18.0484 37.9741C17.2454 37.1 16.1953 36.4445 14.8982 36.0074C13.6319 35.5704 12.273 35.3518 10.8214 35.3518C9.92572 35.3518 9.07638 35.4392 8.27338 35.6141C7.50126 35.7889 6.82179 36.0657 6.23498 36.4445C5.64817 36.8232 5.18489 37.3185 4.84516 37.9304C4.50543 38.5131 4.33556 39.2124 4.33556 40.0282C4.33556 40.6984 4.44366 41.2374 4.65985 41.6453C4.90693 42.0532 5.27755 42.4028 5.77171 42.6942C6.29675 42.9856 6.96077 43.2478 7.76378 43.4809C8.56678 43.6849 9.52421 43.9179 10.6361 44.1802C12.1494 44.5298 13.4929 44.8649 14.6665 45.1854C15.8402 45.5059 16.813 45.8992 17.5852 46.3654C18.3882 46.8316 18.9904 47.3852 19.3919 48.0262C19.8243 48.6672 20.0405 49.483 20.0405 50.4737C20.0405 52.5132 19.1912 54.1449 17.4925 55.3686C15.8247 56.5632 13.5856 57.1605 10.775 57.1605Z" fill="white"/>
<path d="M31.6429 45.2728C31.6429 43.6703 31.9363 42.1552 32.5232 40.7275C33.11 39.2998 33.9284 38.0615 34.9785 37.0126C36.0286 35.9637 37.2794 35.1333 38.731 34.5214C40.1826 33.9096 41.7732 33.6036 43.5027 33.6036C45.6955 33.6036 47.6258 34.0698 49.2936 35.0022C50.9614 35.9346 52.2122 37.2311 53.0461 38.8919L50.7761 39.5912C50.0657 38.3383 49.0465 37.3623 47.7185 36.663C46.4213 35.9346 44.9852 35.5704 43.4101 35.5704C42.082 35.5704 40.8466 35.818 39.7039 36.3133C38.5611 36.8087 37.5574 37.4934 36.6926 38.3675C35.8587 39.2415 35.1947 40.2759 34.7005 41.4705C34.2064 42.6359 33.9593 43.9034 33.9593 45.2728C33.9593 46.6422 34.2064 47.9388 34.7005 49.1625C35.2256 50.3571 35.905 51.406 36.7389 52.3093C37.6037 53.1834 38.6075 53.8826 39.7502 54.4071C40.9238 54.9315 42.1592 55.1938 43.4564 55.1938C44.2903 55.1938 45.1087 55.0772 45.9117 54.8441C46.7456 54.611 47.5023 54.3051 48.1818 53.9263C48.8921 53.5476 49.4944 53.1105 49.9885 52.6152C50.5136 52.0907 50.8687 51.5517 51.0541 50.9981L53.3241 51.61C53.0152 52.3967 52.5365 53.1397 51.888 53.8389C51.2703 54.5091 50.529 55.0918 49.6642 55.5871C48.7995 56.0824 47.842 56.4612 46.792 56.7234C45.7419 57.0148 44.6609 57.1605 43.549 57.1605C41.8504 57.1605 40.2753 56.8545 38.8237 56.2427C37.3721 55.6017 36.1058 54.7422 35.0248 53.6641C33.9747 52.5569 33.1409 51.2895 32.5232 49.8618C31.9363 48.4341 31.6429 46.9044 31.6429 45.2728Z" fill="white"/>
<path d="M103.939 1H106.302V52.2219C106.302 53.0668 106.549 53.7369 107.043 54.2323C107.568 54.7276 108.278 54.9752 109.174 54.9752C109.514 54.9752 109.915 54.9461 110.379 54.8878C110.873 54.8004 111.321 54.6839 111.722 54.5382L112.185 56.2864C111.66 56.4903 111.012 56.6506 110.24 56.7671C109.468 56.9128 108.803 56.9857 108.248 56.9857C106.95 56.9857 105.9 56.6215 105.097 55.8931C104.325 55.1355 103.939 54.1303 103.939 52.8774V1Z" fill="white"/>
<path d="M166.324 56.7234H164.008V44.0491C164.008 41.1063 163.56 38.9648 162.664 37.6245C161.8 36.2842 160.41 35.6141 158.495 35.6141C157.476 35.6141 156.456 35.7889 155.437 36.1385C154.449 36.4882 153.522 36.9835 152.658 37.6245C151.793 38.2655 151.036 39.023 150.388 39.8971C149.739 40.7421 149.26 41.6599 148.951 42.6505V56.7234H146.635V33.997H148.812V39.4164C149.307 38.5423 149.909 37.7556 150.619 37.0563C151.361 36.3279 152.179 35.716 153.075 35.2207C154.001 34.6963 154.974 34.3029 155.993 34.0407C157.012 33.7493 158.063 33.6036 159.143 33.6036C161.769 33.6036 163.622 34.4777 164.703 36.2259C165.784 37.945 166.324 40.4216 166.324 43.6557V56.7234Z" fill="white"/>
<path d="M191.442 57.1605C189.743 57.1605 188.168 56.8545 186.716 56.2427C185.265 55.6017 183.998 54.7422 182.917 53.6641C181.867 52.5569 181.033 51.2895 180.416 49.8618C179.829 48.4341 179.535 46.9044 179.535 45.2728C179.535 43.6703 179.829 42.1698 180.416 40.7712C181.033 39.3435 181.867 38.1052 182.917 37.0563C183.967 35.9783 185.203 35.1333 186.624 34.5214C188.075 33.9096 189.635 33.6036 191.303 33.6036C193.001 33.6036 194.576 33.9241 196.028 34.5652C197.48 35.177 198.73 36.022 199.78 37.1C200.831 38.1489 201.649 39.3872 202.236 40.8149C202.823 42.2135 203.116 43.6994 203.116 45.2728C203.116 45.4185 203.116 45.6079 203.116 45.841C203.116 46.0449 203.101 46.176 203.07 46.2343H181.944C182.037 47.5454 182.361 48.7692 182.917 49.9055C183.473 51.0127 184.168 51.9742 185.002 52.79C185.867 53.6058 186.855 54.2468 187.967 54.713C189.079 55.1792 190.268 55.4123 191.534 55.4123C192.368 55.4123 193.187 55.3103 193.99 55.1064C194.793 54.8733 195.534 54.5673 196.213 54.1886C196.924 53.8098 197.541 53.3582 198.066 52.8337C198.622 52.2801 199.055 51.6828 199.363 51.0418L201.402 51.5663C201.062 52.3821 200.553 53.1397 199.873 53.8389C199.225 54.5091 198.452 55.0918 197.557 55.5871C196.692 56.0824 195.735 56.4612 194.684 56.7234C193.634 57.0148 192.553 57.1605 191.442 57.1605ZM200.892 44.4861C200.8 43.1458 200.475 41.9221 199.919 40.8149C199.394 39.7077 198.699 38.7608 197.835 37.9741C197.001 37.1583 196.028 36.5319 194.916 36.0948C193.804 35.6286 192.615 35.3955 191.349 35.3955C190.083 35.3955 188.894 35.6286 187.782 36.0948C186.67 36.5319 185.682 37.1583 184.817 37.9741C183.983 38.7608 183.303 39.7223 182.778 40.8586C182.284 41.9658 181.991 43.175 181.898 44.4861H200.892Z" fill="white"/>
<path d="M10.775 57.1605C8.92196 57.1605 7.14608 56.8691 5.44742 56.2864C3.74875 55.7037 2.26628 54.8296 1 53.6641L2.15818 52.1782C3.45534 53.2853 4.79883 54.1012 6.18865 54.6256C7.57847 55.1501 9.10727 55.4123 10.775 55.4123C12.8752 55.4123 14.5584 55.0044 15.8247 54.1886C17.1219 53.3436 17.7705 52.1782 17.7705 50.6922C17.7705 49.9929 17.6006 49.4102 17.2609 48.944C16.952 48.4487 16.4733 48.0408 15.8247 47.7203C15.1761 47.3706 14.3731 47.0647 13.4157 46.8025C12.4583 46.5402 11.3464 46.2634 10.0801 45.9721C8.72121 45.6807 7.53214 45.3893 6.51294 45.098C5.52463 44.8066 4.70618 44.457 4.0576 44.0491C3.40902 43.6411 2.91486 43.1458 2.57513 42.5631C2.26628 41.9804 2.11185 41.2374 2.11185 40.3342C2.11185 39.1978 2.34349 38.2072 2.80676 37.3622C3.27004 36.5173 3.90317 35.818 4.70618 35.2644C5.54007 34.7108 6.48206 34.3029 7.53214 34.0407C8.61311 33.7493 9.75585 33.6036 10.9604 33.6036C12.8443 33.6036 14.5121 33.9096 15.9637 34.5214C17.4153 35.1042 18.5426 35.8617 19.3456 36.7941L18.0484 37.9741C17.2454 37.1 16.1953 36.4445 14.8982 36.0074C13.6319 35.5704 12.273 35.3518 10.8214 35.3518C9.92572 35.3518 9.07638 35.4392 8.27338 35.6141C7.50126 35.7889 6.82179 36.0657 6.23498 36.4445C5.64817 36.8232 5.18489 37.3185 4.84516 37.9304C4.50543 38.5131 4.33556 39.2124 4.33556 40.0282C4.33556 40.6984 4.44366 41.2374 4.65985 41.6453C4.90693 42.0532 5.27755 42.4028 5.77171 42.6942C6.29675 42.9856 6.96077 43.2478 7.76378 43.4809C8.56678 43.6849 9.52421 43.9179 10.6361 44.1802C12.1494 44.5298 13.4929 44.8649 14.6665 45.1854C15.8402 45.5059 16.813 45.8992 17.5852 46.3654C18.3882 46.8316 18.9904 47.3852 19.3919 48.0262C19.8243 48.6672 20.0405 49.483 20.0405 50.4737C20.0405 52.5132 19.1912 54.1449 17.4925 55.3686C15.8247 56.5632 13.5856 57.1605 10.775 57.1605Z" stroke="white"/>
<path d="M31.6429 45.2728C31.6429 43.6703 31.9363 42.1552 32.5232 40.7275C33.11 39.2998 33.9284 38.0615 34.9785 37.0126C36.0286 35.9637 37.2794 35.1333 38.731 34.5214C40.1826 33.9096 41.7732 33.6036 43.5027 33.6036C45.6955 33.6036 47.6258 34.0698 49.2936 35.0022C50.9614 35.9346 52.2122 37.2311 53.0461 38.8919L50.7761 39.5912C50.0657 38.3383 49.0465 37.3623 47.7185 36.663C46.4213 35.9346 44.9852 35.5704 43.4101 35.5704C42.082 35.5704 40.8466 35.818 39.7039 36.3133C38.5611 36.8087 37.5574 37.4934 36.6926 38.3675C35.8587 39.2415 35.1947 40.2759 34.7005 41.4705C34.2064 42.6359 33.9593 43.9034 33.9593 45.2728C33.9593 46.6422 34.2064 47.9388 34.7005 49.1625C35.2256 50.3571 35.905 51.406 36.7389 52.3093C37.6037 53.1834 38.6075 53.8826 39.7502 54.4071C40.9238 54.9315 42.1592 55.1938 43.4564 55.1938C44.2903 55.1938 45.1087 55.0772 45.9117 54.8441C46.7456 54.611 47.5023 54.3051 48.1818 53.9263C48.8921 53.5476 49.4944 53.1105 49.9885 52.6152C50.5136 52.0907 50.8687 51.5517 51.0541 50.9981L53.3241 51.61C53.0152 52.3967 52.5365 53.1397 51.888 53.8389C51.2703 54.5091 50.529 55.0918 49.6642 55.5871C48.7995 56.0824 47.842 56.4612 46.792 56.7234C45.7419 57.0148 44.6609 57.1605 43.549 57.1605C41.8504 57.1605 40.2753 56.8545 38.8237 56.2427C37.3721 55.6017 36.1058 54.7422 35.0248 53.6641C33.9747 52.5569 33.1409 51.2895 32.5232 49.8618C31.9363 48.4341 31.6429 46.9044 31.6429 45.2728Z" stroke="white"/>
<path d="M103.939 1H106.302V52.2219C106.302 53.0668 106.549 53.7369 107.043 54.2323C107.568 54.7276 108.278 54.9752 109.174 54.9752C109.514 54.9752 109.915 54.9461 110.379 54.8878C110.873 54.8004 111.321 54.6839 111.722 54.5382L112.185 56.2864C111.66 56.4903 111.012 56.6506 110.24 56.7671C109.468 56.9128 108.803 56.9857 108.248 56.9857C106.95 56.9857 105.9 56.6215 105.097 55.8931C104.325 55.1355 103.939 54.1303 103.939 52.8774V1Z" stroke="white"/>
<path d="M166.324 56.7234H164.008V44.0491C164.008 41.1063 163.56 38.9648 162.664 37.6245C161.8 36.2842 160.41 35.6141 158.495 35.6141C157.476 35.6141 156.456 35.7889 155.437 36.1385C154.449 36.4882 153.522 36.9835 152.658 37.6245C151.793 38.2655 151.036 39.023 150.388 39.8971C149.739 40.7421 149.26 41.6599 148.951 42.6505V56.7234H146.635V33.997H148.812V39.4164C149.307 38.5423 149.909 37.7556 150.619 37.0563C151.361 36.3279 152.179 35.716 153.075 35.2207C154.001 34.6963 154.974 34.3029 155.993 34.0407C157.012 33.7493 158.063 33.6036 159.143 33.6036C161.769 33.6036 163.622 34.4777 164.703 36.2259C165.784 37.945 166.324 40.4216 166.324 43.6557V56.7234Z" stroke="white"/>
<path d="M191.442 57.1605C189.743 57.1605 188.168 56.8545 186.716 56.2427C185.265 55.6017 183.998 54.7422 182.917 53.6641C181.867 52.5569 181.033 51.2895 180.416 49.8618C179.829 48.4341 179.535 46.9044 179.535 45.2728C179.535 43.6703 179.829 42.1698 180.416 40.7712C181.033 39.3435 181.867 38.1052 182.917 37.0563C183.967 35.9783 185.203 35.1333 186.624 34.5214C188.075 33.9096 189.635 33.6036 191.303 33.6036C193.001 33.6036 194.576 33.9241 196.028 34.5652C197.48 35.177 198.73 36.022 199.78 37.1C200.831 38.1489 201.649 39.3872 202.236 40.8149C202.823 42.2135 203.116 43.6994 203.116 45.2728C203.116 45.4185 203.116 45.6079 203.116 45.841C203.116 46.0449 203.101 46.176 203.07 46.2343H181.944C182.037 47.5454 182.361 48.7692 182.917 49.9055C183.473 51.0127 184.168 51.9742 185.002 52.79C185.867 53.6058 186.855 54.2468 187.967 54.713C189.079 55.1792 190.268 55.4123 191.534 55.4123C192.368 55.4123 193.187 55.3103 193.99 55.1064C194.793 54.8733 195.534 54.5673 196.213 54.1886C196.924 53.8098 197.541 53.3582 198.066 52.8337C198.622 52.2801 199.055 51.6828 199.363 51.0418L201.402 51.5663C201.062 52.3821 200.553 53.1397 199.873 53.8389C199.225 54.5091 198.452 55.0918 197.557 55.5871C196.692 56.0824 195.735 56.4612 194.684 56.7234C193.634 57.0148 192.553 57.1605 191.442 57.1605ZM200.892 44.4861C200.8 43.1458 200.475 41.9221 199.919 40.8149C199.394 39.7077 198.699 38.7608 197.835 37.9741C197.001 37.1583 196.028 36.5319 194.916 36.0948C193.804 35.6286 192.615 35.3955 191.349 35.3955C190.083 35.3955 188.894 35.6286 187.782 36.0948C186.67 36.5319 185.682 37.1583 184.817 37.9741C183.983 38.7608 183.303 39.7223 182.778 40.8586C182.284 41.9658 181.991 43.175 181.898 44.4861H200.892Z" stroke="white"/>
<path d="M128.219 56.8639V40.0724H129.93V56.8639H128.219ZM128.219 36.2621V33.2913H129.93V36.2621H128.219Z" fill="white" stroke="white"/>
<path fill-rule="evenodd" clip-rule="evenodd" d="M69.5015 41.4405C69.0851 42.6456 68.877 43.9231 68.877 45.2729C68.877 45.746 68.9016 46.2105 68.9509 46.6664C69.3036 45.0492 69.4998 43.5072 69.5136 41.9666C69.5151 41.7945 69.5109 41.6189 69.5015 41.4405ZM77.7569 56.8056C78.7179 57.0422 79.7266 57.1606 80.7831 57.1606C81.8949 57.1606 82.9759 57.0149 84.026 56.7235C85.076 56.4613 86.0335 56.0825 86.8982 55.5872C87.7939 55.0919 88.566 54.5092 89.2146 53.839C89.8941 53.1398 90.4037 52.3822 90.7434 51.5664L88.705 51.0419C88.3962 51.6829 87.9638 52.2802 87.4079 52.8338C86.8828 53.3583 86.2651 53.8099 85.5548 54.1887C84.8753 54.5674 84.1341 54.8734 83.3311 55.1065C82.528 55.3104 81.7096 55.4124 80.8757 55.4124C79.6094 55.4124 78.4204 55.1793 77.3085 54.7131C77.2247 54.678 77.1417 54.6419 77.0593 54.6048C77.4392 55.2702 77.6833 56.0148 77.7569 56.8056ZM74.0611 46.2344H92.4112C92.4421 46.1761 92.4575 46.045 92.4575 45.8411V45.2729C92.4575 43.6995 92.1641 42.2136 91.5773 40.815C90.9905 39.3873 90.172 38.149 89.122 37.1001C88.0719 36.0221 86.821 35.1771 85.3695 34.5653C83.9179 33.9243 82.3427 33.6038 80.6441 33.6038C78.9763 33.6038 77.4166 33.9097 75.965 34.5216C75.884 34.5565 75.8036 34.5921 75.7237 34.6285C75.3756 35.4009 74.9278 36.469 74.5373 37.6355C75.3086 36.9829 76.1705 36.4694 77.1232 36.0949C78.2351 35.6287 79.4241 35.3956 80.6904 35.3956C81.9567 35.3956 83.1457 35.6287 84.2576 36.0949C85.3695 36.532 86.3423 37.1584 87.1762 37.9742C88.041 38.7609 88.7359 39.7078 89.2609 40.815C89.8169 41.9222 90.1412 43.1459 90.2338 44.4862H73.7785C73.8465 45.0614 73.9407 45.6429 74.0611 46.2344Z" fill="white"/>
<path d="M69.5015 41.4405L70.0008 41.4141L69.0289 41.2772L69.5015 41.4405ZM68.9509 46.6664L68.4539 46.7202L69.4395 46.7729L68.9509 46.6664ZM69.5136 41.9666L69.0136 41.9621L69.5136 41.9666ZM77.7569 56.8056L77.2591 56.8519L77.2921 57.206L77.6374 57.291L77.7569 56.8056ZM84.026 56.7235L83.9048 56.2383L83.8923 56.2417L84.026 56.7235ZM86.8982 55.5872L86.6562 55.1496L86.6497 55.1534L86.8982 55.5872ZM89.2146 53.839L88.856 53.4906L88.8553 53.4913L89.2146 53.839ZM90.7434 51.5664L91.205 51.7586L91.4268 51.2259L90.868 51.0822L90.7434 51.5664ZM88.705 51.0419L88.8296 50.5577L88.4325 50.4555L88.2546 50.8249L88.705 51.0419ZM87.4079 52.8338L87.055 52.4795L87.0545 52.4801L87.4079 52.8338ZM85.5548 54.1887L85.3195 53.7474L85.3113 53.7519L85.5548 54.1887ZM83.3311 55.1065L83.4541 55.5911L83.4623 55.589L83.4704 55.5867L83.3311 55.1065ZM77.3085 54.7131L77.1152 55.1742H77.1152L77.3085 54.7131ZM77.0593 54.6048L77.2647 54.1489L75.863 53.5174L76.6251 54.8526L77.0593 54.6048ZM92.4112 46.2344V46.7344H92.7121L92.853 46.4685L92.4112 46.2344ZM74.0611 46.2344L73.5711 46.3341L73.6526 46.7344H74.0611V46.2344ZM91.5773 40.815L91.1148 41.0051L91.1162 41.0085L91.5773 40.815ZM89.122 37.1001L88.7638 37.449L88.7686 37.4539L89.122 37.1001ZM85.3695 34.5653L85.1674 35.0227L85.1752 35.026L85.3695 34.5653ZM75.965 34.5216L75.7708 34.0608L75.7672 34.0623L75.965 34.5216ZM75.7237 34.6285L75.5162 34.1736L75.3451 34.2517L75.2679 34.4231L75.7237 34.6285ZM74.5373 37.6355L74.0632 37.4767L73.4957 39.1717L74.8602 38.0172L74.5373 37.6355ZM77.1232 36.0949L77.3062 36.5604L77.3165 36.556L77.1232 36.0949ZM84.2576 36.0949L84.0642 36.5561L84.0747 36.5603L84.2576 36.0949ZM87.1762 37.9742L86.8266 38.3316L86.833 38.338L86.8398 38.3441L87.1762 37.9742ZM89.2609 40.815L88.8091 41.0293L88.8141 41.0394L89.2609 40.815ZM90.2338 44.4862V44.9862H90.7696L90.7326 44.4517L90.2338 44.4862ZM73.7785 44.4862V43.9862H73.2159L73.2819 44.5449L73.7785 44.4862ZM69.377 45.2729C69.377 43.9754 69.5769 42.7534 69.9741 41.6038L69.0289 41.2772C68.5933 42.5379 68.377 43.8708 68.377 45.2729H69.377ZM69.448 46.6126C69.4007 46.1751 69.377 45.7286 69.377 45.2729H68.377C68.377 45.7634 68.4025 46.2458 68.4539 46.7202L69.448 46.6126ZM69.4395 46.7729C69.7981 45.1284 69.9994 43.5519 70.0136 41.9711L69.0136 41.9621C69.0002 43.4625 68.8091 44.9699 68.4624 46.5599L69.4395 46.7729ZM70.0136 41.9711C70.0152 41.7877 70.0107 41.6018 70.0008 41.4141L69.0022 41.467C69.0111 41.6359 69.0151 41.8012 69.0136 41.9621L70.0136 41.9711ZM80.7831 56.6606C79.7642 56.6606 78.7958 56.5465 77.8765 56.3201L77.6374 57.291C78.64 57.538 79.689 57.6606 80.7831 57.6606V56.6606ZM83.8923 56.2417C82.8866 56.5208 81.8507 56.6606 80.7831 56.6606V57.6606C81.9392 57.6606 83.0651 57.509 84.1596 57.2053L83.8923 56.2417ZM86.6497 55.1534C85.8281 55.624 84.9141 55.9864 83.9048 56.2384L84.1471 57.2087C85.238 56.9362 86.2388 56.5411 87.1468 56.0211L86.6497 55.1534ZM88.8553 53.4913C88.2444 54.1226 87.5128 54.676 86.6563 55.1497L87.1402 56.0248C88.075 55.5078 88.8877 54.8958 89.5739 54.1868L88.8553 53.4913ZM90.2818 51.3742C89.9687 52.1262 89.4962 52.8318 88.856 53.4906L89.5732 54.1875C90.292 53.4477 90.8387 52.6382 91.205 51.7586L90.2818 51.3742ZM88.5804 51.5262L90.6188 52.0506L90.868 51.0822L88.8296 50.5577L88.5804 51.5262ZM87.7607 53.1881C88.3526 52.5987 88.8197 51.9559 89.1555 51.259L88.2546 50.8249C87.9727 51.41 87.575 51.9618 87.055 52.4795L87.7607 53.1881ZM85.79 54.6299C86.5402 54.2299 87.1985 53.7497 87.7612 53.1876L87.0545 52.4801C86.5671 52.9669 85.9901 53.3899 85.3195 53.7475L85.79 54.6299ZM83.4704 55.5867C84.307 55.3438 85.0835 55.0238 85.7982 54.6254L85.3113 53.7519C84.6671 54.111 83.9611 54.4029 83.1917 54.6263L83.4704 55.5867ZM80.8757 55.9124C81.7508 55.9124 82.6106 55.8053 83.4541 55.5911L83.208 54.6219C82.4455 54.8155 81.6684 54.9124 80.8757 54.9124V55.9124ZM77.1152 55.1742C78.2913 55.6674 79.5464 55.9124 80.8757 55.9124V54.9124C79.6724 54.9124 78.5494 54.6912 77.5018 54.252L77.1152 55.1742ZM76.8539 55.0607C76.9403 55.0996 77.0274 55.1374 77.1152 55.1742L77.5018 54.252C77.4221 54.2186 77.3431 54.1842 77.2647 54.1489L76.8539 55.0607ZM76.6251 54.8526C76.9709 55.4585 77.1923 56.1346 77.2591 56.8519L78.2548 56.7592C78.1743 55.895 77.9074 55.082 77.4936 54.3569L76.6251 54.8526ZM92.4112 45.7344H74.0611V46.7344H92.4112V45.7344ZM91.9575 45.8411C91.9575 45.9328 91.9539 45.9952 91.9494 46.0339C91.9471 46.0529 91.9454 46.0599 91.9458 46.0582C91.9461 46.057 91.9475 46.0514 91.9506 46.0425C91.9537 46.0339 91.9595 46.019 91.9694 46.0003L92.853 46.4685C92.9139 46.3536 92.9333 46.2289 92.9425 46.1509C92.9534 46.0585 92.9575 45.9533 92.9575 45.8411H91.9575ZM91.9575 45.2729V45.8411H92.9575V45.2729H91.9575ZM91.1162 41.0085C91.6764 42.3435 91.9575 43.7634 91.9575 45.2729H92.9575C92.9575 43.6356 92.6518 42.0837 92.0384 40.6216L91.1162 41.0085ZM88.7686 37.4539C89.77 38.4541 90.5522 39.6362 91.1148 41.0051L92.0398 40.6249C91.4288 39.1385 90.5741 37.844 89.4753 36.7464L88.7686 37.4539ZM85.1752 35.026C86.5682 35.6131 87.7625 36.4211 88.7638 37.449L89.4801 36.7513C88.3812 35.6231 87.0739 34.7411 85.5637 34.1045L85.1752 35.026ZM80.6441 34.1038C82.2782 34.1038 83.7839 34.4117 85.1675 35.0227L85.5714 34.1079C84.0518 33.4368 82.4073 33.1038 80.6441 33.1038V34.1038ZM76.1592 34.9823C77.5458 34.3978 79.039 34.1038 80.6441 34.1038V33.1038C78.9136 33.1038 77.2874 33.4215 75.7708 34.0608L76.1592 34.9823ZM75.9313 35.0834C76.0078 35.0485 76.085 35.0143 76.1628 34.9808L75.7672 34.0623C75.683 34.0986 75.5993 34.1357 75.5162 34.1736L75.9313 35.0834ZM75.2679 34.4231C74.9153 35.2054 74.4606 36.2897 74.0632 37.4767L75.0114 37.7942C75.395 36.6484 75.8359 35.5965 76.1796 34.834L75.2679 34.4231ZM76.9403 35.6296C75.9374 36.0238 75.028 36.5654 74.2143 37.2538L74.8602 38.0172C75.5892 37.4004 76.4037 36.915 77.3061 36.5603L76.9403 35.6296ZM80.6904 34.8956C79.3611 34.8956 78.106 35.1407 76.9299 35.6338L77.3165 36.556C78.3641 36.1168 79.4871 35.8956 80.6904 35.8956V34.8956ZM84.4509 35.6338C83.2748 35.1407 82.0197 34.8956 80.6904 34.8956V35.8956C81.8937 35.8956 83.0167 36.1168 84.0643 36.556L84.4509 35.6338ZM87.5259 37.6168C86.643 36.7531 85.6131 36.0905 84.4405 35.6296L84.0747 36.5603C85.1258 36.9734 86.0416 37.5637 86.8266 38.3316L87.5259 37.6168ZM89.7127 40.6008C89.1611 39.4376 88.428 38.437 87.5127 37.6044L86.8398 38.3441C87.654 39.0848 88.3107 39.9781 88.8092 41.0293L89.7127 40.6008ZM90.7326 44.4517C90.6358 43.051 90.2959 41.7619 89.7078 40.5907L88.8141 41.0394C89.3379 42.0825 89.6465 43.2409 89.735 44.5207L90.7326 44.4517ZM73.7785 44.9862H90.2338V43.9862H73.7785V44.9862ZM73.2819 44.5449C73.3516 45.1346 73.4482 45.7298 73.5711 46.3341L74.5511 46.1347C74.4333 45.556 74.3413 44.9881 74.275 44.4275L73.2819 44.5449Z" fill="white"/>
<mask id="path-5-inside-1_276_34" fill="white">
<path fill-rule="evenodd" clip-rule="evenodd" d="M73.0358 33.1248C73.0358 33.9103 72.8105 34.6461 72.4175 35.2778C71.788 36.6045 70.321 39.9601 70.2761 42.5058C70.2167 45.8766 71.1952 49.2814 73.17 53.6716C73.7197 54.4812 74.0385 55.4437 74.0385 56.4765C74.0385 59.3521 71.5674 61.6833 68.5192 61.6833C65.471 61.6833 63 59.3521 63 56.4765C63 55.4951 63.2878 54.5771 63.7881 53.7936C65.4573 49.3692 66.4801 45.9337 66.5108 42.5058C66.5345 39.8616 65.0615 36.3145 64.5275 35.1171C64.1935 34.5226 64.0043 33.8446 64.0043 33.1248C64.0043 30.7721 66.0261 28.8647 68.5201 28.8647C71.014 28.8647 73.0358 30.7721 73.0358 33.1248Z"/>
</mask>
<path fill-rule="evenodd" clip-rule="evenodd" d="M73.0358 33.1248C73.0358 33.9103 72.8105 34.6461 72.4175 35.2778C71.788 36.6045 70.321 39.9601 70.2761 42.5058C70.2167 45.8766 71.1952 49.2814 73.17 53.6716C73.7197 54.4812 74.0385 55.4437 74.0385 56.4765C74.0385 59.3521 71.5674 61.6833 68.5192 61.6833C65.471 61.6833 63 59.3521 63 56.4765C63 55.4951 63.2878 54.5771 63.7881 53.7936C65.4573 49.3692 66.4801 45.9337 66.5108 42.5058C66.5345 39.8616 65.0615 36.3145 64.5275 35.1171C64.1935 34.5226 64.0043 33.8446 64.0043 33.1248C64.0043 30.7721 66.0261 28.8647 68.5201 28.8647C71.014 28.8647 73.0358 30.7721 73.0358 33.1248Z" fill="white"/>
<path d="M72.4175 35.2778L71.5684 34.7496L71.5384 34.7978L71.5141 34.8491L72.4175 35.2778ZM70.2761 42.5058L69.2762 42.4882V42.4882L70.2761 42.5058ZM73.17 53.6716L72.258 54.0819L72.2938 54.1613L72.3427 54.2334L73.17 53.6716ZM63.7881 53.7936L64.631 54.3318L64.687 54.244L64.7238 54.1466L63.7881 53.7936ZM66.5108 42.5058L67.5108 42.5148L66.5108 42.5058ZM64.5275 35.1171L65.4408 34.7098L65.422 34.6676L65.3994 34.6273L64.5275 35.1171ZM73.2667 35.806C73.7539 35.0227 74.0358 34.1051 74.0358 33.1248H72.0358C72.0358 33.7155 71.8671 34.2694 71.5684 34.7496L73.2667 35.806ZM71.2759 42.5234C71.2956 41.4064 71.6341 40.0478 72.0741 38.7574C72.5085 37.4833 73.0156 36.3501 73.321 35.7065L71.5141 34.8491C71.19 35.5322 70.6488 36.7402 70.1811 38.112C69.7189 39.4674 69.3014 41.0594 69.2762 42.4882L71.2759 42.5234ZM74.082 53.2614C72.1314 48.9252 71.2203 45.6787 71.2759 42.5234L69.2762 42.4882C69.213 46.0744 70.2589 49.6376 72.258 54.0819L74.082 53.2614ZM72.3427 54.2334C72.7855 54.8854 73.0385 55.6537 73.0385 56.4765H75.0385C75.0385 55.2337 74.654 54.0769 73.9973 53.1098L72.3427 54.2334ZM73.0385 56.4765C73.0385 58.7457 71.0708 60.6833 68.5192 60.6833V62.6833C72.064 62.6833 75.0385 59.9585 75.0385 56.4765H73.0385ZM68.5192 60.6833C65.9676 60.6833 64 58.7457 64 56.4765H62C62 59.9585 64.9745 62.6833 68.5192 62.6833V60.6833ZM64 56.4765C64 55.6943 64.2286 54.9619 64.631 54.3318L62.9453 53.2554C62.347 54.1923 62 55.2958 62 56.4765H64ZM65.5108 42.4969C65.4819 45.736 64.5164 49.0302 62.8525 53.4406L64.7238 54.1466C66.3982 49.7083 67.4784 46.1315 67.5108 42.5148L65.5108 42.4969ZM63.6142 35.5244C63.8725 36.1036 64.3582 37.2522 64.7748 38.5702C65.1969 39.906 65.5213 41.3338 65.5108 42.4969L67.5108 42.5148C67.524 41.0336 67.1237 39.3658 66.6818 37.9675C66.2343 36.5517 65.7165 35.328 65.4408 34.7098L63.6142 35.5244ZM63.0043 33.1248C63.0043 34.0226 63.2409 34.8686 63.6557 35.6069L65.3994 34.6273C65.1461 34.1766 65.0043 33.6665 65.0043 33.1248H63.0043ZM68.5201 27.8647C65.5295 27.8647 63.0043 30.1657 63.0043 33.1248H65.0043C65.0043 31.3784 66.5227 29.8647 68.5201 29.8647V27.8647ZM74.0358 33.1248C74.0358 30.1657 71.5106 27.8647 68.5201 27.8647V29.8647C70.5175 29.8647 72.0358 31.3784 72.0358 33.1248H74.0358Z" fill="white" mask="url(#path-5-inside-1_276_34)"/>
<circle cx="68.5" cy="22.1841" r="4.5" fill="white"/>
<circle cx="61.0469" cy="9.38184" r="3" fill="#08F8FF"/>
<circle cx="72.0977" cy="4.5" r="1.5" fill="#08F8FF"/>
<path d="M21.4224 72.7443C22.0568 72.136 22.7847 71.8319 23.6063 71.8319C24.4382 71.8319 25.1454 72.1066 25.7278 72.656C26.3725 73.2643 26.7001 74.054 26.7105 75.0253C26.7105 76.0064 26.3829 76.801 25.7278 77.4093C25.1246 77.9587 24.4122 78.2285 23.5907 78.2187C22.7795 78.2187 22.0568 77.9145 21.4224 77.3063V80.3819C21.4224 80.5389 21.3652 80.6714 21.2508 80.7793C21.1468 80.8872 21.0116 80.9411 20.8452 80.9411C20.6788 80.9411 20.5385 80.8872 20.4241 80.7793C20.3201 80.6714 20.2681 80.5389 20.2681 80.3819V72.4353C20.2681 72.2881 20.3201 72.1606 20.4241 72.0526C20.5385 71.9447 20.6788 71.8908 20.8452 71.8908C21.0116 71.8908 21.1468 71.9447 21.2508 72.0526C21.3652 72.1507 21.4224 72.2783 21.4224 72.4353V72.7443ZM21.4224 76.2909C22.0048 76.8991 22.6807 77.1984 23.4503 77.1885C24.4278 77.1885 25.0778 76.7814 25.4002 75.9671C25.5042 75.6924 25.551 75.3785 25.5406 75.0253C25.5406 74.3385 25.3482 73.7989 24.9634 73.4065C24.589 73.0435 24.0847 72.862 23.4503 72.862C22.6807 72.862 22.0048 73.1612 21.4224 73.7597V76.2909Z" fill="white"/>
<path d="M33.5835 71.8319C34.5715 71.8319 35.367 72.1262 35.9702 72.7149C36.5734 73.3133 36.8645 74.0835 36.8437 75.0253C36.8437 75.9769 36.5526 76.7471 35.9702 77.3357C35.367 77.9244 34.5715 78.2187 33.5835 78.2187C32.5852 78.2187 31.7948 77.9244 31.2124 77.3357C30.6093 76.7471 30.3077 75.9769 30.3077 75.0253C30.3077 74.0638 30.6093 73.2937 31.2124 72.7149C31.7948 72.1262 32.5852 71.8319 33.5835 71.8319ZM32.1484 76.7323C32.3564 76.8991 32.5852 77.0218 32.8348 77.1003C33.0947 77.1787 33.3443 77.218 33.5835 77.218C33.8227 77.218 34.0671 77.1787 34.3167 77.1003C34.5663 77.0218 34.7951 76.8942 35.003 76.7176C35.4606 76.3252 35.6894 75.7562 35.6894 75.0106C35.6894 74.2846 35.4606 73.7205 35.003 73.3182C34.6183 72.9847 34.1451 72.8228 33.5835 72.8326C32.658 72.8326 32.0184 73.225 31.6648 74.0099C31.54 74.2944 31.4776 74.6329 31.4776 75.0253C31.4776 75.4177 31.54 75.7562 31.6648 76.0407C31.7896 76.3252 31.9508 76.5558 32.1484 76.7323Z" fill="white"/>
<path d="M48.4745 72.2145C48.5369 71.9987 48.7189 71.8908 49.0205 71.8908C49.166 71.8908 49.2908 71.9447 49.3948 72.0526C49.5092 72.1507 49.5664 72.2587 49.5664 72.3764C49.5664 72.4843 49.556 72.5726 49.5352 72.6413L47.7257 77.6595C47.6737 77.7968 47.5801 77.9145 47.4449 78.0126C47.3097 78.1108 47.1538 78.1598 46.977 78.1598C46.8106 78.1598 46.6546 78.1108 46.509 78.0126C46.3738 77.9145 46.2802 77.7919 46.2282 77.6447L44.8711 73.6567L43.5139 77.6447C43.4516 77.7821 43.3528 77.9047 43.2176 78.0126C43.0824 78.1108 42.9264 78.1598 42.7496 78.1598C42.5832 78.1598 42.4324 78.1108 42.2972 78.0126C42.162 77.9145 42.0684 77.7968 42.0164 77.6595L40.2069 72.6413C40.1861 72.5726 40.1757 72.4843 40.1757 72.3764C40.1757 72.2587 40.2277 72.1507 40.3317 72.0526C40.4461 71.9447 40.5761 71.8908 40.7217 71.8908C41.0233 71.8908 41.2053 71.9987 41.2677 72.2145L42.7496 76.8648L44.2471 72.3322C44.2887 72.2047 44.3667 72.1017 44.4811 72.0232C44.5955 71.9349 44.7255 71.8908 44.8711 71.8908C45.0167 71.8908 45.1467 71.93 45.2611 72.0085C45.3754 72.087 45.4534 72.1949 45.495 72.3322L46.977 76.8648L48.4745 72.2145Z" fill="white"/>
<path d="M54.0527 75.4226C54.1255 75.9622 54.3439 76.3939 54.7079 76.7176C55.0823 77.0316 55.5919 77.1885 56.2366 77.1885C56.8918 77.1885 57.4482 77.0904 57.9057 76.8942C58.0513 76.8256 58.1813 76.7912 58.2957 76.7912C58.4101 76.7814 58.5141 76.8206 58.6077 76.9089C58.7117 76.9972 58.7637 77.0953 58.7637 77.2033C58.7637 77.4191 58.6701 77.5712 58.4829 77.6595C58.3061 77.7478 58.1449 77.8262 57.9993 77.8949C57.8537 77.9636 57.6978 78.0225 57.5314 78.0715C57.1466 78.1696 56.6994 78.2187 56.1898 78.2187C55.1395 78.2187 54.3231 77.944 53.7408 77.3946C53.1688 76.8354 52.8828 76.0456 52.8828 75.0253C52.8828 74.1423 53.1272 73.4065 53.616 72.8179C54.1671 72.1606 54.9419 71.8319 55.9402 71.8319C56.897 71.8319 57.651 72.136 58.2021 72.7443C58.7221 73.3133 58.9821 74.0246 58.9821 74.8781C58.9821 75.0253 58.9249 75.1528 58.8105 75.2607C58.7065 75.3687 58.5713 75.4226 58.4049 75.4226H54.0527ZM55.9402 72.759C55.1811 72.759 54.6299 73.0779 54.2867 73.7156C54.1619 73.9412 54.0839 74.211 54.0527 74.5249H57.8277C57.7965 73.9559 57.573 73.5046 57.157 73.1711C56.8242 72.8964 56.4186 72.759 55.9402 72.759Z" fill="white"/>
<path d="M64.0924 72.965C64.6955 72.2096 65.3663 71.8319 66.1047 71.8319H66.1671C66.3231 71.8319 66.453 71.8859 66.557 71.9938C66.6714 72.0919 66.7286 72.2194 66.7286 72.3764C66.7286 72.5334 66.6714 72.6609 66.557 72.759C66.4426 72.8473 66.3023 72.8915 66.1359 72.8915H66.0735C65.6471 72.8915 65.2675 72.9896 64.9347 73.1858C64.6019 73.382 64.3212 73.6371 64.0924 73.951V77.6153C64.0924 77.7625 64.0352 77.89 63.9208 77.9979C63.8064 78.1059 63.6712 78.1598 63.5152 78.1598C63.3592 78.1598 63.224 78.1059 63.1096 77.9979C62.9952 77.89 62.938 77.7625 62.938 77.6153V72.45C62.938 72.3028 62.99 72.1753 63.094 72.0674C63.2084 71.9496 63.3488 71.8908 63.5152 71.8908C63.6712 71.8908 63.8064 71.9447 63.9208 72.0526C64.0352 72.1606 64.0924 72.293 64.0924 72.45V72.965Z" fill="white"/>
<path d="M70.3102 72.45C70.3102 72.2832 70.3674 72.1507 70.4818 72.0526C70.5962 71.9447 70.7366 71.8908 70.903 71.8908C71.0694 71.8908 71.2046 71.9447 71.3085 72.0526C71.4125 72.1507 71.4645 72.2832 71.4645 72.45V77.6153C71.4645 77.7625 71.4125 77.89 71.3085 77.9979C71.2046 78.1059 71.0694 78.1598 70.903 78.1598C70.7366 78.1598 70.5962 78.1059 70.4818 77.9979C70.3674 77.89 70.3102 77.7625 70.3102 77.6153V72.45ZM71.5893 70.0807C71.5893 70.2573 71.5269 70.4044 71.4021 70.5222C71.2773 70.6399 71.1214 70.6988 70.9342 70.6988H70.8562C70.669 70.6988 70.513 70.6399 70.3882 70.5222C70.2738 70.4044 70.2166 70.2573 70.2166 70.0807V70.0365C70.2166 69.8599 70.279 69.7128 70.4038 69.5951C70.5286 69.4773 70.6794 69.4185 70.8562 69.4185H70.9342C71.1214 69.4185 71.2773 69.4773 71.4021 69.5951C71.5269 69.7128 71.5893 69.8599 71.5893 70.0365V70.0807Z" fill="white"/>
<path d="M79.1955 72.8473C78.4467 72.8473 77.7448 73.2348 77.0896 74.0099V77.6153C77.0896 77.7625 77.0324 77.89 76.918 77.9979C76.8036 78.1059 76.6684 78.1598 76.5124 78.1598C76.3564 78.1598 76.2212 78.1059 76.1068 77.9979C75.9925 77.89 75.9353 77.7625 75.9353 77.6153V72.45C75.9353 72.293 75.9873 72.1606 76.0912 72.0526C76.2056 71.9447 76.346 71.8908 76.5124 71.8908C76.6684 71.8908 76.8036 71.9447 76.918 72.0526C77.0324 72.1507 77.0896 72.2832 77.0896 72.45V72.9503C77.4328 72.6168 77.7292 72.3764 77.9787 72.2292C78.4571 71.9643 78.9147 71.8319 79.3515 71.8319C79.7986 71.8319 80.1626 71.8957 80.4434 72.0232C80.7242 72.1409 80.9634 72.3126 81.161 72.5383C81.5562 72.9797 81.7537 73.5291 81.7537 74.1865V77.6153C81.7537 77.7625 81.6965 77.89 81.5822 77.9979C81.4678 78.1059 81.3326 78.1598 81.1766 78.1598C81.0206 78.1598 80.8854 78.1059 80.771 77.9979C80.6566 77.89 80.5994 77.7625 80.5994 77.6153V74.3042C80.5994 73.8529 80.4902 73.4997 80.2718 73.2446C80.0534 72.9797 79.6947 72.8473 79.1955 72.8473Z" fill="white"/>
<path d="M90.9822 72.7443V72.45C90.9822 72.3028 91.0342 72.1753 91.1382 72.0674C91.2526 71.9496 91.3878 71.8908 91.5438 71.8908C91.6998 71.8908 91.835 71.9447 91.9494 72.0526C92.0742 72.1606 92.1366 72.293 92.1366 72.45V77.8361C92.1366 78.8564 91.8766 79.6363 91.3566 80.1759C90.8366 80.7253 90.0983 81 89.1415 81C88.1224 81 87.2072 80.7891 86.3961 80.3672C86.2505 80.2789 86.1777 80.1563 86.1777 79.9993C86.1777 79.8423 86.2245 79.7099 86.3181 79.602C86.4221 79.5039 86.5261 79.4548 86.6301 79.4548C86.734 79.4548 86.8276 79.4695 86.9108 79.499C87.5556 79.8031 88.2576 79.9552 89.0167 79.9552C90.327 79.9552 90.9822 79.3028 90.9822 77.9979V77.1885C90.3791 77.7968 89.6511 78.1009 88.7983 78.1009C87.9872 78.1009 87.2904 77.841 86.708 77.321C86.0321 76.7323 85.6941 75.9475 85.6941 74.9664C85.6941 73.9755 86.0321 73.1858 86.708 72.5971C87.2904 72.0772 87.9976 71.8221 88.8295 71.8319C89.6615 71.8319 90.3791 72.136 90.9822 72.7443ZM90.9822 73.7156C90.743 73.4801 90.4674 73.2741 90.1555 73.0975C89.8539 72.9209 89.5159 72.8326 89.1415 72.8326C88.7671 72.8326 88.4447 72.8767 88.1744 72.965C87.9144 73.0533 87.6856 73.1858 87.488 73.3624C87.072 73.7352 86.864 74.2699 86.864 74.9664C86.864 76.0064 87.3008 76.6735 88.1744 76.9678C88.4447 77.0561 88.7671 77.1003 89.1415 77.1003C89.7655 77.1003 90.3791 76.801 90.9822 76.2026V73.7156Z" fill="white"/>
<path d="M102.591 72.45C102.591 72.2832 102.648 72.1507 102.763 72.0526C102.877 71.9447 103.017 71.8908 103.184 71.8908C103.35 71.8908 103.485 71.9447 103.589 72.0526C103.693 72.1507 103.745 72.2832 103.745 72.45V77.6153C103.745 77.7625 103.693 77.89 103.589 77.9979C103.485 78.1059 103.35 78.1598 103.184 78.1598C103.017 78.1598 102.877 78.1059 102.763 77.9979C102.648 77.89 102.591 77.7625 102.591 77.6153V72.45ZM103.87 70.0807C103.87 70.2573 103.808 70.4044 103.683 70.5222C103.558 70.6399 103.402 70.6988 103.215 70.6988H103.137C102.95 70.6988 102.794 70.6399 102.669 70.5222C102.555 70.4044 102.498 70.2573 102.498 70.0807V70.0365C102.498 69.8599 102.56 69.7128 102.685 69.5951C102.81 69.4773 102.96 69.4185 103.137 69.4185H103.215C103.402 69.4185 103.558 69.4773 103.683 69.5951C103.808 69.7128 103.87 69.8599 103.87 70.0365V70.0807Z" fill="white"/>
<path d="M111.476 72.8473C110.728 72.8473 110.026 73.2348 109.371 74.0099V77.6153C109.371 77.7625 109.313 77.89 109.199 77.9979C109.085 78.1059 108.949 78.1598 108.793 78.1598C108.637 78.1598 108.502 78.1059 108.388 77.9979C108.273 77.89 108.216 77.7625 108.216 77.6153V72.45C108.216 72.293 108.268 72.1606 108.372 72.0526C108.487 71.9447 108.627 71.8908 108.793 71.8908C108.949 71.8908 109.085 71.9447 109.199 72.0526C109.313 72.1507 109.371 72.2832 109.371 72.45V72.9503C109.714 72.6168 110.01 72.3764 110.26 72.2292C110.738 71.9643 111.196 71.8319 111.632 71.8319C112.08 71.8319 112.444 71.8957 112.724 72.0232C113.005 72.1409 113.244 72.3126 113.442 72.5383C113.837 72.9797 114.035 73.5291 114.035 74.1865V77.6153C114.035 77.7625 113.977 77.89 113.863 77.9979C113.749 78.1059 113.613 78.1598 113.457 78.1598C113.302 78.1598 113.166 78.1059 113.052 77.9979C112.938 77.89 112.88 77.7625 112.88 77.6153V74.3042C112.88 73.8529 112.771 73.4997 112.553 73.2446C112.334 72.9797 111.976 72.8473 111.476 72.8473Z" fill="white"/>
<path d="M123.263 72.7443V72.45C123.263 72.3028 123.315 72.1753 123.419 72.0674C123.534 71.9496 123.669 71.8908 123.825 71.8908C123.981 71.8908 124.116 71.9447 124.23 72.0526C124.355 72.1606 124.417 72.293 124.417 72.45V77.8361C124.417 78.8564 124.157 79.6363 123.638 80.1759C123.118 80.7253 122.379 81 121.422 81C120.403 81 119.488 80.7891 118.677 80.3672C118.531 80.2789 118.459 80.1563 118.459 79.9993C118.459 79.8423 118.505 79.7099 118.599 79.602C118.703 79.5039 118.807 79.4548 118.911 79.4548C119.015 79.4548 119.109 79.4695 119.192 79.499C119.837 79.8031 120.538 79.9552 121.298 79.9552C122.608 79.9552 123.263 79.3028 123.263 77.9979V77.1885C122.66 77.7968 121.932 78.1009 121.079 78.1009C120.268 78.1009 119.571 77.841 118.989 77.321C118.313 76.7323 117.975 75.9475 117.975 74.9664C117.975 73.9755 118.313 73.1858 118.989 72.5971C119.571 72.0772 120.278 71.8221 121.11 71.8319C121.942 71.8319 122.66 72.136 123.263 72.7443ZM123.263 73.7156C123.024 73.4801 122.748 73.2741 122.436 73.0975C122.135 72.9209 121.797 72.8326 121.422 72.8326C121.048 72.8326 120.726 72.8767 120.455 72.965C120.195 73.0533 119.967 73.1858 119.769 73.3624C119.353 73.7352 119.145 74.2699 119.145 74.9664C119.145 76.0064 119.582 76.6735 120.455 76.9678C120.726 77.0561 121.048 77.1003 121.422 77.1003C122.046 77.1003 122.66 76.801 123.263 76.2026V73.7156Z" fill="white"/>
<path d="M129.606 75.4226C129.679 75.9622 129.897 76.3939 130.261 76.7176C130.635 77.0316 131.145 77.1885 131.79 77.1885C132.445 77.1885 133.001 77.0904 133.459 76.8942C133.604 76.8256 133.734 76.7912 133.849 76.7912C133.963 76.7814 134.067 76.8206 134.161 76.9089C134.265 76.9972 134.317 77.0953 134.317 77.2033C134.317 77.4191 134.223 77.5712 134.036 77.6595C133.859 77.7478 133.698 77.8262 133.552 77.8949C133.407 77.9636 133.251 78.0225 133.084 78.0715C132.7 78.1696 132.252 78.2187 131.743 78.2187C130.692 78.2187 129.876 77.944 129.294 77.3946C128.722 76.8354 128.436 76.0456 128.436 75.0253C128.436 74.1423 128.68 73.4065 129.169 72.8179C129.72 72.1606 130.495 71.8319 131.493 71.8319C132.45 71.8319 133.204 72.136 133.755 72.7443C134.275 73.3133 134.535 74.0246 134.535 74.8781C134.535 75.0253 134.478 75.1528 134.363 75.2607C134.26 75.3687 134.124 75.4226 133.958 75.4226H129.606ZM131.493 72.759C130.734 72.759 130.183 73.0779 129.84 73.7156C129.715 73.9412 129.637 74.211 129.606 74.5249H133.381C133.35 73.9559 133.126 73.5046 132.71 73.1711C132.377 72.8964 131.972 72.759 131.493 72.759Z" fill="white"/>
<path d="M141.751 72.8473C141.003 72.8473 140.301 73.2348 139.645 74.0099V77.6153C139.645 77.7625 139.588 77.89 139.474 77.9979C139.359 78.1059 139.224 78.1598 139.068 78.1598C138.912 78.1598 138.777 78.1059 138.663 77.9979C138.548 77.89 138.491 77.7625 138.491 77.6153V72.45C138.491 72.293 138.543 72.1606 138.647 72.0526C138.761 71.9447 138.902 71.8908 139.068 71.8908C139.224 71.8908 139.359 71.9447 139.474 72.0526C139.588 72.1507 139.645 72.2832 139.645 72.45V72.9503C139.989 72.6168 140.285 72.3764 140.535 72.2292C141.013 71.9643 141.47 71.8319 141.907 71.8319C142.354 71.8319 142.718 71.8957 142.999 72.0232C143.28 72.1409 143.519 72.3126 143.717 72.5383C144.112 72.9797 144.31 73.5291 144.31 74.1865V77.6153C144.31 77.7625 144.252 77.89 144.138 77.9979C144.024 78.1059 143.888 78.1598 143.732 78.1598C143.576 78.1598 143.441 78.1059 143.327 77.9979C143.212 77.89 143.155 77.7625 143.155 77.6153V74.3042C143.155 73.8529 143.046 73.4997 142.828 73.2446C142.609 72.9797 142.25 72.8473 141.751 72.8473Z" fill="white"/>
<path d="M151.167 77.2033C151.916 77.2033 152.618 76.8206 153.273 76.0554V72.4353C153.273 72.2881 153.325 72.1606 153.429 72.0526C153.543 71.9447 153.684 71.8908 153.85 71.8908C154.006 71.8908 154.141 71.9447 154.256 72.0526C154.37 72.1507 154.427 72.2783 154.427 72.4353V77.6006C154.427 77.7576 154.37 77.89 154.256 77.9979C154.152 78.1059 154.016 78.1598 153.85 78.1598C153.694 78.1598 153.559 78.1059 153.444 77.9979C153.33 77.89 153.273 77.7576 153.273 77.6006V77.115C152.93 77.4485 152.633 77.684 152.384 77.8213C151.905 78.0862 151.443 78.2187 150.995 78.2187C150.559 78.2187 150.195 78.1549 149.903 78.0274C149.623 77.8998 149.389 77.733 149.201 77.527C148.806 77.0855 148.609 76.5312 148.609 75.8641V72.4353C148.609 72.2881 148.661 72.1606 148.765 72.0526C148.879 71.9447 149.019 71.8908 149.186 71.8908C149.342 71.8908 149.477 71.9447 149.591 72.0526C149.706 72.1507 149.763 72.2783 149.763 72.4353V75.7317C149.763 76.1829 149.872 76.541 150.091 76.8059C150.309 77.0708 150.668 77.2033 151.167 77.2033Z" fill="white"/>
<path d="M158.882 72.45C158.882 72.2832 158.939 72.1507 159.054 72.0526C159.168 71.9447 159.309 71.8908 159.475 71.8908C159.641 71.8908 159.777 71.9447 159.881 72.0526C159.985 72.1507 160.037 72.2832 160.037 72.45V77.6153C160.037 77.7625 159.985 77.89 159.881 77.9979C159.777 78.1059 159.641 78.1598 159.475 78.1598C159.309 78.1598 159.168 78.1059 159.054 77.9979C158.939 77.89 158.882 77.7625 158.882 77.6153V72.45ZM160.161 70.0807C160.161 70.2573 160.099 70.4044 159.974 70.5222C159.849 70.6399 159.693 70.6988 159.506 70.6988H159.428C159.241 70.6988 159.085 70.6399 158.96 70.5222C158.846 70.4044 158.789 70.2573 158.789 70.0807V70.0365C158.789 69.8599 158.851 69.7128 158.976 69.5951C159.101 69.4773 159.251 69.4185 159.428 69.4185H159.506C159.693 69.4185 159.849 69.4773 159.974 69.5951C160.099 69.7128 160.161 69.8599 160.161 70.0365V70.0807Z" fill="white"/>
<path d="M166.878 77.2474C167.107 77.2474 167.268 77.2327 167.362 77.2033C167.466 77.164 167.575 77.1444 167.69 77.1444C167.804 77.1444 167.908 77.1885 168.002 77.2768C168.095 77.3553 168.142 77.478 168.142 77.6447C168.142 77.8017 168.059 77.9145 167.892 77.9832C167.528 78.1402 167.216 78.2187 166.956 78.2187C166.696 78.2187 166.457 78.204 166.239 78.1745C166.031 78.1549 165.828 78.0911 165.63 77.9832C165.162 77.7281 164.929 77.2768 164.929 76.6293V72.8915H164.024C163.868 72.8915 163.785 72.813 163.774 72.656C163.774 72.5873 163.816 72.5236 163.899 72.4647L165.63 70.8606C165.703 70.792 165.776 70.7576 165.849 70.7576C165.922 70.7478 165.979 70.7674 166.02 70.8165C166.062 70.8655 166.083 70.9244 166.083 70.9931V71.9496H167.534C167.679 71.9496 167.799 71.9938 167.892 72.0821C167.986 72.1704 168.033 72.2832 168.033 72.4205C168.033 72.5579 167.986 72.6707 167.892 72.759C167.799 72.8473 167.679 72.8915 167.534 72.8915H166.083V76.541C166.083 76.8452 166.182 77.0512 166.379 77.1591C166.483 77.218 166.65 77.2474 166.878 77.2474Z" fill="white"/>
<path d="M176.715 71.8908C176.882 71.8908 177.017 71.9447 177.121 72.0526C177.235 72.1606 177.292 72.2734 177.292 72.3911C177.292 72.5088 177.277 72.5971 177.246 72.656L173.767 80.5585C173.663 80.8136 173.486 80.9411 173.237 80.9411C173.091 80.9411 172.961 80.8872 172.847 80.7793C172.743 80.6714 172.691 80.5634 172.691 80.4555C172.691 80.3574 172.701 80.274 172.722 80.2053L173.549 78.1892L171.146 72.6707C171.115 72.5922 171.1 72.499 171.1 72.3911C171.1 72.2734 171.152 72.1606 171.256 72.0526C171.37 71.9447 171.495 71.8908 171.63 71.8908C171.911 71.8908 172.103 72.0036 172.207 72.2292L174.173 76.8354L176.185 72.2439C176.289 71.9987 176.466 71.8809 176.715 71.8908Z" fill="white"/>
</svg>
