<?xml version="1.0" encoding="utf-8"?>
<!-- Generator: Adobe Illustrator 16.0.2, SVG Export Plug-In . SVG Version: 6.00 Build 0)  -->
<!DOCTYPE svg PUBLIC "-//W3C//DTD SVG 1.1//EN" "http://www.w3.org/Graphics/SVG/1.1/DTD/svg11.dtd">
<svg version="1.1" id="Слой_1" xmlns="http://www.w3.org/2000/svg" xmlns:xlink="http://www.w3.org/1999/xlink" x="0px" y="0px"
	 width="990px" height="761px" viewBox="0 0 990 761" enable-background="new 0 0 990 761" xml:space="preserve">
<path opacity="0.5" fill="#FFFFFF" d="M990,0.001H0V760h990V0.001z M792.5,68.5c8.423,0,15.25,6.828,15.25,15.25
	c0,8.422-6.827,15.25-15.25,15.25s-15.25-6.828-15.25-15.25C777.25,75.328,784.077,68.5,792.5,68.5z M762,215
	c26.786,0,48.5,21.714,48.5,48.5S788.786,312,762,312s-48.5-21.714-48.5-48.5S735.214,215,762,215z M676.75,163.5
	c-17.812,0-32.25-14.438-32.25-32.25c0-17.811,14.438-32.25,32.25-32.25S709,113.44,709,131.25
	C709,149.062,694.561,163.5,676.75,163.5z M761.997,631c-27.491,0-49.778-21.027-49.778-46.96c0-8.854,2.596-17.13,7.109-24.199
	c15.054-39.907,24.278-70.89,24.556-101.808c0.212-23.85-13.072-55.845-17.89-66.644c-3.01-5.36-4.717-11.476-4.717-17.967
	c0-21.22,18.235-38.423,40.729-38.423c22.495,0,40.73,17.203,40.73,38.423c0,7.084-2.031,13.72-5.578,19.419
	c-5.679,11.965-18.909,42.229-19.314,65.191c-0.536,30.401,8.293,61.107,26.099,100.709c4.964,7.301,7.838,15.981,7.838,25.298
	C811.78,609.973,789.489,631,761.997,631z"/>
</svg>
