<svg width="34" height="40" viewBox="0 0 34 40" fill="none" xmlns="http://www.w3.org/2000/svg">
<path d="M19.7265 11.1109C20.1579 11.1109 20.5077 10.761 20.5077 10.3296V7.97391H25.0106C25.8346 9.27555 27.305 10.093 28.8855 10.093C31.3777 10.093 33.4053 8.06477 33.4053 5.57164C33.4053 3.07852 31.3777 1.05023 28.8855 1.05023C28.3208 1.05023 27.7634 1.15578 27.2424 1.35883C26.5111 0.507109 25.4339 0 24.2908 0C22.7264 0 21.3499 0.913047 20.7348 2.31477C20.008 2.53242 19.3591 2.97242 18.8855 3.56555C18.7202 3.535 18.5514 3.51969 18.38 3.51969C17.6643 3.51969 16.9543 3.855 16.4319 4.43961C15.9605 4.96727 15.6811 5.64875 15.6141 6.41133H11.9981C11.5667 6.41133 11.2169 6.76117 11.2169 7.19258V10.3295C11.2169 10.7609 11.5667 11.1108 11.9981 11.1108H12.6098V17.1546L0.431323 35.7098C0.426791 35.7166 0.422494 35.7235 0.418198 35.7305C-0.119302 36.6084 -0.139849 37.6687 0.363354 38.5666C0.866166 39.4641 1.78054 40 2.80914 40H28.9155C29.9442 40 30.8586 39.4641 31.3615 38.5665C31.8646 37.6685 31.8441 36.6084 31.3066 35.7305C31.3023 35.7234 31.2979 35.7165 31.2934 35.7096L19.16 17.2284V11.1108H19.7265V11.1109ZM17.5973 5.48055C17.8202 5.23109 18.1128 5.08211 18.3801 5.08211C18.5565 5.08211 18.7262 5.11914 18.8844 5.19203C19.2588 5.36438 19.7026 5.21656 19.8985 4.8543C20.2149 4.26953 20.7932 3.85711 21.4454 3.75109C21.7394 3.70336 21.9805 3.49266 22.0673 3.20797C22.3676 2.22375 23.2611 1.5625 24.2908 1.5625C25.1226 1.5625 25.8966 2.01203 26.3102 2.7357C26.414 2.91719 26.5862 3.04961 26.7883 3.10313C26.9904 3.1568 27.2055 3.12703 27.3856 3.02078C27.8379 2.75383 28.3566 2.61266 28.8855 2.61266C30.5162 2.61266 31.8428 3.94 31.8428 5.57156C31.8428 7.20312 30.5162 8.53047 28.8855 8.53047C27.7468 8.53047 26.6566 7.85641 26.1726 6.85313C26.0423 6.58297 25.7688 6.41133 25.4689 6.41133H17.1869C17.2413 6.04266 17.3804 5.72344 17.5973 5.48055ZM12.7794 7.97383H18.9452V9.54828H12.7794V7.97383ZM17.7257 17.8907L29.9797 36.5557C30.2123 36.9427 30.2194 37.4081 29.9984 37.8028C29.7757 38.2002 29.3709 38.4375 28.9156 38.4375H2.80914C2.35382 38.4375 1.94906 38.2002 1.72648 37.8028C1.50531 37.4081 1.51249 36.9427 1.74515 36.5555L14.0444 17.8169C14.1279 17.6895 14.1725 17.5405 14.1725 17.3882V11.1109H17.5976V17.462C17.5975 17.6143 17.6421 17.7633 17.7257 17.8907Z" fill="#2F8FFF"/>
<path d="M13.9007 22.8772L5.43115 35.7811H26.2941L17.8224 22.8772H13.9007Z" fill="#08F8FF"/>
<path d="M23.9793 15.2644C25.0535 15.2644 25.9243 14.3936 25.9243 13.3193C25.9243 12.2451 25.0535 11.3743 23.9793 11.3743C22.905 11.3743 22.0342 12.2451 22.0342 13.3193C22.0342 14.3936 22.905 15.2644 23.9793 15.2644Z" fill="#08F8FF"/>
</svg>
