<svg width="40" height="40" viewBox="0 0 40 40" fill="none" xmlns="http://www.w3.org/2000/svg">
<path fill-rule="evenodd" clip-rule="evenodd" d="M20.0095 27.8027C24.3123 27.8027 27.8217 24.2933 27.8217 19.9905C27.4221 9.64202 12.5953 9.6449 12.1973 19.9906C12.1973 24.2933 15.7066 27.8027 20.0095 27.8027Z" fill="#08F8FF"/>
<path d="M24.0997 18.5448C24.9776 17.9965 24.2313 16.7056 23.3185 17.1917L22.3648 17.7423L20.7904 16.8334V15.7218C20.7519 14.6864 19.266 14.6872 19.2279 15.7218V16.8334L17.6623 17.7372L16.691 17.1765C15.7772 16.6903 15.0324 17.9821 15.9098 18.5296L16.8842 19.0922V20.8861L15.901 21.4538C15.5273 21.6696 15.3993 22.1473 15.6151 22.521C15.832 22.8981 16.3152 23.0207 16.6822 22.8069L17.6598 22.2425L19.2103 23.1376V24.2767C19.2487 25.3121 20.7347 25.3113 20.7727 24.2767V23.158L22.3319 22.2578L23.3096 22.8222C23.6766 23.036 24.1598 22.9134 24.3767 22.5363C24.5925 22.1626 24.4645 21.6849 24.0908 21.4691L23.134 20.9167V19.1023L24.0997 18.5448ZM18.4467 19.0885L20.0091 18.1864L21.5716 19.0885V20.8927L20.0091 21.7948L18.4467 20.8927V19.0885Z" fill="#2F8FFF"/>
<path d="M37.2616 7.52934C35.5209 4.46125 33.0315 1.89626 30.0624 0.111559C29.8148 -0.0371862 29.5051 -0.0371862 29.2575 0.111559C25.991 2.07501 23.3535 4.92623 21.602 8.3801C11.7132 6.98772 4.72185 18.1122 10.1956 26.3881L0.853469 35.1517C0.316144 35.6557 0.0136551 36.3475 0.00162432 37.0995C-0.0540768 38.6697 1.33095 40.0543 2.90058 39.9984C3.65267 39.9864 4.34452 39.6839 4.84848 39.1467L13.612 29.8045C16.4406 31.729 20.5364 32.2653 23.8262 31.0709C25.2569 32.8823 26.9532 34.4124 28.8788 35.6287V39.2174C28.9172 40.2528 30.4032 40.252 30.4413 39.2174V35.6286C39.7213 29.9315 42.7323 16.8809 37.2616 7.52934ZM3.70899 38.0776C3.49705 38.3037 3.20112 38.4308 2.87574 38.4361C2.52521 38.4415 2.18522 38.3045 1.94046 38.0598C1.69563 37.8149 1.55837 37.474 1.56391 37.1244C1.56907 36.7991 1.69649 36.5032 1.92249 36.2911L8.84772 29.7948L10.2053 31.1524L3.70899 38.0776ZM11.2748 30.0122L9.98783 28.7252L11.1416 27.6429C11.5168 28.0771 11.9231 28.4834 12.3572 28.8585L11.2748 30.0122ZM9.85354 19.9906C9.85354 14.3906 14.4095 9.83465 20.0094 9.83465C33.464 10.3453 33.4604 29.638 20.0093 30.1465C14.4095 30.1465 9.85354 25.5907 9.85354 19.9906ZM25.3207 30.4347C26.6812 29.74 27.8889 28.7872 28.8788 27.6413V33.7483C27.5585 32.8099 26.3673 31.7008 25.3207 30.4347ZM30.4413 33.7471V30.1261L34.6139 25.9535C34.919 25.6484 34.919 25.1537 34.6139 24.8486C34.3088 24.5435 33.8142 24.5436 33.509 24.8486L30.4413 27.9164V25.3261C30.818 24.5923 31.1197 23.814 31.3359 23.0011L36.3201 18.0169C36.6252 17.7119 36.6252 17.2172 36.3201 16.9121C36.015 16.6071 35.5204 16.6071 35.2152 16.9121L31.7205 20.4068C31.7751 18.9243 31.5382 17.435 31.0636 16.0987L34.6139 12.5483C34.919 12.2432 34.919 11.7486 34.6139 11.4434C34.3088 11.1384 33.8142 11.1384 33.509 11.4434L30.4413 14.5112V7.17904C30.4028 6.14361 28.9169 6.14439 28.8788 7.17904V12.3399C27.3979 10.6255 25.4296 9.34334 23.1912 8.7111C24.7318 5.82995 26.9488 3.42543 29.6599 1.69978C40.9386 8.67743 41.3332 26.2162 30.4413 33.7471Z" fill="#2F8FFF"/>
</svg>
