<svg width="42" height="42" viewBox="0 0 42 42" fill="none" xmlns="http://www.w3.org/2000/svg">
<path d="M20.8828 4.7561L20.8827 4.75612C20.523 4.91346 20.3591 5.33265 20.5164 5.69229L20.5164 5.69231C21.1047 7.03677 21.4031 8.47337 21.4031 9.96294V10.9777C21.266 11.0622 21.1309 11.1429 20.9968 11.218C20.8334 11.128 20.6668 11.0303 20.4964 10.9278V9.96294C20.4964 7.35923 19.4821 4.91075 17.6411 3.06972L17.6411 3.0697L17.6393 3.06791C17.4662 2.90185 17.4662 2.59649 17.6393 2.43042L17.6393 2.4305L17.6429 2.42676C17.809 2.25365 18.1144 2.25364 18.2805 2.42676L18.2805 2.42678L18.2823 2.42862C18.6149 2.76122 18.9277 3.11746 19.212 3.48736L19.3111 3.41118L19.212 3.48737C19.4513 3.79859 19.8974 3.85698 20.2087 3.61778C20.52 3.37862 20.5784 2.93232 20.3392 2.62103L20.3392 2.62101C20.0173 2.20223 19.6635 1.79934 19.2875 1.42327L19.2875 1.42326C18.5564 0.692244 17.367 0.692252 16.6358 1.42325L16.6358 1.42327C15.9047 2.15444 15.9047 3.34374 16.6358 4.07498L16.6358 4.075C18.2088 5.64786 19.0747 7.73844 19.0747 9.96294V10.0771C17.769 9.34401 16.1293 8.65022 13.7755 8.65022C10.0513 8.65022 6.70456 10.1385 4.35607 12.8433C2.10868 15.4315 0.875 18.9835 0.875 22.8414C0.875 28.9627 4.43427 33.6303 6.54798 35.8625C8.01126 37.4078 9.64921 38.7212 11.206 39.6489C12.759 40.5745 14.2456 41.125 15.4033 41.125C16.7007 41.125 17.6451 40.914 18.3739 40.6227C19.1008 40.3322 19.6076 39.9638 20.0267 39.6592L20.0289 39.6576C20.5022 39.3135 20.7247 39.1685 20.9982 39.1685C21.2734 39.1685 21.4969 39.3058 21.969 39.6281L21.9708 39.6293C22.4063 39.9266 22.9323 40.2856 23.6967 40.5686C24.4623 40.8521 25.4617 41.0574 26.8475 41.0574C28.0538 41.0574 29.5416 40.521 31.0812 39.6023C32.6237 38.6818 34.2305 37.3704 35.6772 35.8032C37.7061 33.6055 41.1214 29.0106 41.1214 22.9833C41.1215 19.1169 39.8888 15.5413 37.6438 12.9181C35.2881 10.1655 31.9403 8.65022 28.2211 8.65022C25.7031 8.65022 24.0835 9.35423 22.8247 10.091V9.96294C22.8247 8.27674 22.4863 6.64788 21.8188 5.12235L21.7043 5.17245L21.8188 5.12233C21.6613 4.76258 21.2421 4.59909 20.8828 4.7561ZM20.6833 12.6583L20.6834 12.6583C20.882 12.7564 21.1148 12.7564 21.3133 12.6583L21.3134 12.6583C21.724 12.4552 22.1086 12.2167 22.5007 11.9671C22.5663 11.9256 22.6316 11.8841 22.6968 11.8427C23.3634 11.4194 24.0201 11.0023 24.8263 10.6782C25.7088 10.3234 26.7735 10.0792 28.2214 10.0718C34.8626 10.072 39.7 15.4845 39.7 22.9833C39.6999 28.5184 36.5298 32.7838 34.6328 34.8389C33.175 36.4181 31.6392 37.6194 30.2595 38.4252C28.8758 39.2333 27.6625 39.6358 26.8477 39.6358C25.6676 39.6358 24.8419 39.4707 24.2173 39.2427C23.5925 39.0146 23.1628 38.7217 22.7706 38.4539L22.761 38.4473C22.2509 38.099 21.7351 37.7468 20.9983 37.7468C20.2395 37.7468 19.718 38.1261 19.2033 38.5004L19.1932 38.5078C18.8197 38.7792 18.4115 39.0755 17.8284 39.3062C17.2458 39.5366 16.4828 39.7034 15.4035 39.7034C14.6339 39.7034 13.426 39.2916 12.0273 38.4749C10.6338 37.6612 9.06626 36.4543 7.58035 34.8851C5.6018 32.7956 2.29671 28.4606 2.29671 22.8414C2.29671 15.4261 7.13297 10.0718 13.7755 10.0718C16.3743 10.0718 17.9395 11.0301 19.3399 11.8884L19.3418 11.8895C19.7966 12.1682 20.2319 12.4351 20.6833 12.6583Z" fill="#2F8FFF" stroke="#2F8FFF" stroke-width="0.25"/>
<mask id="path-2-inside-1_2_651" fill="white">
<path d="M35.7683 14.5232C33.8622 12.2959 31.2523 11.1187 28.2208 11.1187C26.1192 11.1187 22.1219 13.3157 20.995 13.9599C19.7964 13.2874 15.7754 11.1187 13.7752 11.1187C10.7313 11.1187 8.11852 12.2747 6.21954 14.4618C4.36461 16.5981 3.34303 19.5741 3.34303 22.8415C3.13432 27.2248 6.40169 32.3401 8.34004 34.1657C11.2412 37.2296 14.2698 38.6569 15.4032 38.6569C17.2077 38.6569 17.904 38.1508 18.5775 37.6612C19.1665 37.2331 19.8994 36.7003 20.998 36.7003C22.0577 36.7003 22.78 37.1934 23.3605 37.5897C24.0805 38.0812 24.825 38.5893 26.8474 38.5893C27.839 38.5893 29.9477 37.6879 32.2348 35.7087C32.4794 35.497 32.5061 35.1271 32.2944 34.8824C32.0827 34.6376 31.7126 34.611 31.468 34.8228C29.3999 36.6126 27.521 37.4177 26.8474 37.4177C25.1868 37.4177 24.6466 37.049 24.0209 36.6219C23.4817 36.2538 22.708 35.7281 21.6228 35.574V20.7747C21.6228 20.4511 21.3605 20.1889 21.037 20.1889C20.7135 20.1889 20.4512 20.4511 20.4512 20.7747V23.655L8.73347 13.7741C10.1622 12.7982 11.8717 12.2903 13.7752 12.2903C15.3101 12.2903 18.8972 14.1258 20.4513 14.9984V18.0133C20.4513 18.3369 20.7136 18.5991 21.0371 18.5991C21.3606 18.5991 21.6229 18.3369 21.6229 18.0133V14.9499C23.1773 14.0619 26.6103 12.2903 28.2208 12.2903C30.8994 12.2903 33.2015 13.3259 34.8781 15.2851C36.5568 17.2464 37.4813 19.9805 37.4813 22.9835C37.4813 27.5419 34.8912 31.185 33.3472 32.9508C33.1342 33.1944 33.159 33.5645 33.4026 33.7775C33.646 33.9903 34.0162 33.9656 34.2292 33.722C35.8813 31.8325 38.653 27.9246 38.653 22.9835C38.653 19.7014 37.6286 16.6968 35.7683 14.5232ZM17.8884 36.7137C17.2721 37.1617 16.8269 37.4854 15.4032 37.4854C14.8267 37.4854 12.7541 36.628 10.4378 34.5689L13.9456 31.61C14.1929 31.4015 14.2242 31.0319 14.0157 30.7846C13.8069 30.5372 13.4375 30.5058 13.1901 30.7146L9.5804 33.7595C9.45074 33.6298 9.32085 33.4975 9.1908 33.3602C7.77062 31.8603 5.56803 29.0545 4.79468 25.4475H19.4341L15.313 28.9239C15.0657 29.1324 15.0343 29.502 15.2429 29.7493C15.4524 29.9975 15.8224 30.0271 16.0684 29.8193L20.4513 26.1222V35.5626C19.2717 35.7087 18.454 36.3025 17.8884 36.7137ZM19.3701 24.2758H4.60097C4.54575 23.8087 4.51474 23.3306 4.51474 22.8415C4.51474 19.8563 5.43439 17.1531 7.10428 15.2299C7.32439 14.9764 7.55582 14.7391 7.79749 14.5174L19.3701 24.2758Z"/>
</mask>
<path d="M35.7683 14.5232C33.8622 12.2959 31.2523 11.1187 28.2208 11.1187C26.1192 11.1187 22.1219 13.3157 20.995 13.9599C19.7964 13.2874 15.7754 11.1187 13.7752 11.1187C10.7313 11.1187 8.11852 12.2747 6.21954 14.4618C4.36461 16.5981 3.34303 19.5741 3.34303 22.8415C3.13432 27.2248 6.40169 32.3401 8.34004 34.1657C11.2412 37.2296 14.2698 38.6569 15.4032 38.6569C17.2077 38.6569 17.904 38.1508 18.5775 37.6612C19.1665 37.2331 19.8994 36.7003 20.998 36.7003C22.0577 36.7003 22.78 37.1934 23.3605 37.5897C24.0805 38.0812 24.825 38.5893 26.8474 38.5893C27.839 38.5893 29.9477 37.6879 32.2348 35.7087C32.4794 35.497 32.5061 35.1271 32.2944 34.8824C32.0827 34.6376 31.7126 34.611 31.468 34.8228C29.3999 36.6126 27.521 37.4177 26.8474 37.4177C25.1868 37.4177 24.6466 37.049 24.0209 36.6219C23.4817 36.2538 22.708 35.7281 21.6228 35.574V20.7747C21.6228 20.4511 21.3605 20.1889 21.037 20.1889C20.7135 20.1889 20.4512 20.4511 20.4512 20.7747V23.655L8.73347 13.7741C10.1622 12.7982 11.8717 12.2903 13.7752 12.2903C15.3101 12.2903 18.8972 14.1258 20.4513 14.9984V18.0133C20.4513 18.3369 20.7136 18.5991 21.0371 18.5991C21.3606 18.5991 21.6229 18.3369 21.6229 18.0133V14.9499C23.1773 14.0619 26.6103 12.2903 28.2208 12.2903C30.8994 12.2903 33.2015 13.3259 34.8781 15.2851C36.5568 17.2464 37.4813 19.9805 37.4813 22.9835C37.4813 27.5419 34.8912 31.185 33.3472 32.9508C33.1342 33.1944 33.159 33.5645 33.4026 33.7775C33.646 33.9903 34.0162 33.9656 34.2292 33.722C35.8813 31.8325 38.653 27.9246 38.653 22.9835C38.653 19.7014 37.6286 16.6968 35.7683 14.5232ZM17.8884 36.7137C17.2721 37.1617 16.8269 37.4854 15.4032 37.4854C14.8267 37.4854 12.7541 36.628 10.4378 34.5689L13.9456 31.61C14.1929 31.4015 14.2242 31.0319 14.0157 30.7846C13.8069 30.5372 13.4375 30.5058 13.1901 30.7146L9.5804 33.7595C9.45074 33.6298 9.32085 33.4975 9.1908 33.3602C7.77062 31.8603 5.56803 29.0545 4.79468 25.4475H19.4341L15.313 28.9239C15.0657 29.1324 15.0343 29.502 15.2429 29.7493C15.4524 29.9975 15.8224 30.0271 16.0684 29.8193L20.4513 26.1222V35.5626C19.2717 35.7087 18.454 36.3025 17.8884 36.7137ZM19.3701 24.2758H4.60097C4.54575 23.8087 4.51474 23.3306 4.51474 22.8415C4.51474 19.8563 5.43439 17.1531 7.10428 15.2299C7.32439 14.9764 7.55582 14.7391 7.79749 14.5174L19.3701 24.2758Z" fill="#08F8FF"/>
<path d="M20.995 13.9599L20.0164 15.7041L21.0042 16.2583L21.9875 15.6962L20.995 13.9599ZM6.21954 14.4618L7.72972 15.773L7.72973 15.773L6.21954 14.4618ZM3.34303 22.8415L5.34077 22.9367L5.34303 22.8891V22.8415H3.34303ZM8.34004 34.1657L9.79228 32.7905L9.75293 32.749L9.71126 32.7097L8.34004 34.1657ZM18.5775 37.6612L17.4017 36.0433L17.4015 36.0435L18.5775 37.6612ZM23.3605 37.5897L22.2328 39.2415L22.233 39.2416L23.3605 37.5897ZM32.2348 35.7087L30.9261 34.1963L30.926 34.1964L32.2348 35.7087ZM32.2944 34.8824L30.7815 36.1906L30.782 36.1911L32.2944 34.8824ZM31.468 34.8228L32.7768 36.3351L32.7775 36.3345L31.468 34.8228ZM24.0209 36.6219L22.8933 38.2738L22.8934 38.2739L24.0209 36.6219ZM21.6228 35.574H19.6228V37.31L21.3416 37.5541L21.6228 35.574ZM20.4512 23.655L19.1619 25.1839L22.4512 27.9576V23.655H20.4512ZM8.73347 13.7741L7.60539 12.1226L5.43257 13.6068L7.44418 15.3031L8.73347 13.7741ZM20.4513 14.9984H22.4513V13.8276L21.4304 13.2545L20.4513 14.9984ZM21.6229 14.9499L20.6308 13.2133L19.6229 13.7891V14.9499H21.6229ZM34.8781 15.2851L33.3586 16.5854L33.3587 16.5855L34.8781 15.2851ZM33.3472 32.9508L34.8526 34.2675L34.8528 34.2673L33.3472 32.9508ZM33.4026 33.7775L32.0859 35.2829L32.0862 35.2832L33.4026 33.7775ZM34.2292 33.722L32.7236 32.4055L32.7235 32.4056L34.2292 33.722ZM38.653 22.9835L36.653 22.9835V22.9835H38.653ZM17.8884 36.7137L19.0643 38.3315L19.0644 38.3314L17.8884 36.7137ZM10.4378 34.5689L9.14826 33.0402L7.3829 34.5293L9.10905 36.0637L10.4378 34.5689ZM13.9456 31.61L12.6562 30.0811L12.656 30.0813L13.9456 31.61ZM14.0157 30.7846L15.5445 29.4952L15.5443 29.4949L14.0157 30.7846ZM13.1901 30.7146L14.4797 32.2433L14.4801 32.243L13.1901 30.7146ZM9.5804 33.7595L8.16576 35.1733L9.46503 36.4733L10.87 35.2882L9.5804 33.7595ZM9.1908 33.3602L7.7385 34.7353L7.7387 34.7355L9.1908 33.3602ZM4.79468 25.4475V23.4475H2.32042L2.83912 25.8668L4.79468 25.4475ZM19.4341 25.4475L20.7237 26.9762L24.9069 23.4475H19.4341V25.4475ZM15.313 28.9239L16.6023 30.4528L16.6025 30.4526L15.313 28.9239ZM15.2429 29.7493L13.714 31.0387L13.7144 31.0392L15.2429 29.7493ZM16.0684 29.8193L14.7789 28.2905L14.7778 28.2915L16.0684 29.8193ZM20.4513 26.1222H22.4513V21.8186L19.1618 24.5934L20.4513 26.1222ZM20.4513 35.5626L20.6972 37.5474L22.4513 37.3301V35.5626H20.4513ZM19.3701 24.2758V26.2758H24.8444L20.6594 22.7468L19.3701 24.2758ZM4.60097 24.2758L2.6148 24.5106L2.8235 26.2758H4.60097V24.2758ZM7.10428 15.2299L5.59421 13.9185L5.59411 13.9186L7.10428 15.2299ZM7.79749 14.5174L9.08677 12.9884L7.7417 11.8542L6.44531 13.0438L7.79749 14.5174ZM37.2878 13.2228C34.9872 10.5344 31.8138 9.11865 28.2208 9.11865V13.1187C30.6908 13.1187 32.7373 14.0574 34.2488 15.8236L37.2878 13.2228ZM28.2208 9.11865C27.3952 9.11865 26.5247 9.3251 25.7644 9.56389C24.9761 9.81147 24.1668 10.1393 23.4233 10.4731C21.9356 11.1409 20.5911 11.887 20.0024 12.2235L21.9875 15.6962C22.5257 15.3885 23.7433 14.714 25.0615 14.1223C25.7209 13.8263 26.3754 13.5646 26.9629 13.3801C27.5783 13.1868 27.9956 13.1187 28.2208 13.1187V9.11865ZM21.9736 12.2156C21.3508 11.8662 19.9855 11.1224 18.4999 10.4603C17.7577 10.1295 16.9553 9.80547 16.181 9.5609C15.4385 9.32639 14.5814 9.11865 13.7752 9.11865V13.1187C13.9691 13.1187 14.3647 13.182 14.9762 13.3752C15.5559 13.5582 16.2087 13.8184 16.8715 14.1139C18.1961 14.7042 19.4406 15.3811 20.0164 15.7041L21.9736 12.2156ZM13.7752 9.11865C10.1855 9.11865 7.0097 10.5012 4.70935 13.1506L7.72973 15.773C9.22734 14.0482 11.277 13.1187 13.7752 13.1187V9.11865ZM4.70936 13.1505C2.49027 15.7063 1.34303 19.1714 1.34303 22.8415H5.34303C5.34303 19.9768 6.23895 17.49 7.72972 15.773L4.70936 13.1505ZM1.34529 22.7464C1.21785 25.4229 2.14098 28.156 3.24948 30.361C4.36219 32.5744 5.79295 34.5141 6.96882 35.6216L9.71126 32.7097C8.94878 31.9916 7.77668 30.4609 6.8233 28.5644C5.8657 26.6596 5.2595 24.6433 5.34077 22.9367L1.34529 22.7464ZM6.88779 35.5408C8.46687 37.2084 10.0973 38.4494 11.5228 39.2854C12.2347 39.703 12.9156 40.0313 13.5324 40.2606C14.1101 40.4754 14.7718 40.6569 15.4032 40.6569V36.6569C15.4679 36.6569 15.326 36.66 14.9264 36.5114C14.5659 36.3774 14.0959 36.1574 13.5463 35.8351C12.4488 35.1914 11.1144 34.1868 9.79228 32.7905L6.88779 35.5408ZM15.4032 40.6569C16.4975 40.6569 17.3768 40.5025 18.1379 40.2072C18.8901 39.9154 19.4196 39.5217 19.7536 39.2789L17.4015 36.0435C17.0619 36.2904 16.9065 36.3945 16.691 36.4781C16.4845 36.5583 16.1134 36.6569 15.4032 36.6569V40.6569ZM19.7533 39.279C20.3476 38.8471 20.6094 38.7003 20.998 38.7003V34.7003C19.1893 34.7003 17.9853 35.6192 17.4017 36.0433L19.7533 39.279ZM20.998 38.7003C21.3831 38.7003 21.6492 38.843 22.2328 39.2415L24.4882 35.938C23.9108 35.5437 22.7322 34.7003 20.998 34.7003V38.7003ZM22.233 39.2416C22.5956 39.4891 23.1487 39.8743 23.9442 40.1578C24.7387 40.4409 25.6675 40.5893 26.8474 40.5893V36.5893C26.0049 36.5893 25.5502 36.4837 25.2869 36.3899C25.0246 36.2964 24.8454 36.1818 24.488 35.9378L22.233 39.2416ZM26.8474 40.5893C27.813 40.5893 28.9254 40.1969 29.9562 39.6768C31.0534 39.1232 32.2878 38.3077 33.5435 37.221L30.926 34.1964C29.8946 35.0889 28.9312 35.7137 28.1544 36.1056C27.7658 36.3017 27.4417 36.4305 27.1944 36.507C26.9296 36.589 26.8229 36.5893 26.8474 36.5893V40.5893ZM33.5434 37.2211C34.6235 36.2865 34.7411 34.6535 33.8067 33.5737L30.782 36.1911C30.2711 35.6007 30.3352 34.7075 30.9261 34.1963L33.5434 37.2211ZM33.8072 33.5742C32.8725 32.4933 31.2384 32.3757 30.1586 33.311L32.7775 36.3345C32.1868 36.8462 31.2929 36.7819 30.7815 36.1906L33.8072 33.5742ZM30.1593 33.3105C29.2357 34.1097 28.3762 34.6696 27.7077 35.0193C27.3724 35.1946 27.1045 35.3071 26.9168 35.3711C26.69 35.4485 26.6904 35.4177 26.8474 35.4177V39.4177C27.3411 39.4177 27.829 39.2863 28.2085 39.1568C28.6272 39.0139 29.0846 38.8132 29.5618 38.5636C30.5182 38.0633 31.6322 37.3257 32.7768 36.3351L30.1593 33.3105ZM26.8474 35.4177C26.1604 35.4177 25.8467 35.3406 25.6998 35.2898C25.559 35.2411 25.4645 35.1858 25.1484 34.97L22.8934 38.2739C23.203 38.4851 23.6914 38.8277 24.3922 39.0701C25.0871 39.3104 25.8737 39.4177 26.8474 39.4177V35.4177ZM25.1485 34.9701C24.6003 34.5959 23.4902 33.8191 21.904 33.5938L21.3416 37.5541C21.9257 37.637 22.363 37.9118 22.8933 38.2738L25.1485 34.9701ZM23.6228 35.574V20.7747H19.6228V35.574H23.6228ZM23.6228 20.7747C23.6228 19.3463 22.4649 18.1889 21.037 18.1889V22.1889C20.2561 22.1889 19.6228 21.5558 19.6228 20.7747H23.6228ZM21.037 18.1889C19.6091 18.1889 18.4512 19.3463 18.4512 20.7747H22.4512C22.4512 21.5558 21.8179 22.1889 21.037 22.1889V18.1889ZM18.4512 20.7747V23.655H22.4512V20.7747H18.4512ZM21.7405 22.126L10.0228 12.2451L7.44418 15.3031L19.1619 25.1839L21.7405 22.126ZM9.86155 15.4256C10.9291 14.6964 12.2379 14.2903 13.7752 14.2903V10.2903C11.5055 10.2903 9.39525 10.9 7.60539 12.1226L9.86155 15.4256ZM13.7752 14.2903C13.7739 14.2903 13.7947 14.2903 13.8418 14.2961C13.888 14.3018 13.9501 14.3119 14.0294 14.3285C14.1903 14.3621 14.3922 14.4164 14.634 14.4944C15.1197 14.6508 15.6909 14.8778 16.2964 15.1459C17.506 15.6814 18.7331 16.3274 19.4721 16.7423L21.4304 13.2545C20.6154 12.7969 19.272 12.0888 17.9157 11.4883C17.2384 11.1885 16.5278 10.902 15.8607 10.6871C15.2364 10.4859 14.4814 10.2903 13.7752 10.2903V14.2903ZM18.4513 14.9984V18.0133H22.4513V14.9984H18.4513ZM18.4513 18.0133C18.4513 19.4417 19.6092 20.5991 21.0371 20.5991V16.5991C21.8179 16.5991 22.4513 17.2322 22.4513 18.0133H18.4513ZM21.0371 20.5991C22.465 20.5991 23.6229 19.4417 23.6229 18.0133H19.6229C19.6229 17.2322 20.2562 16.5991 21.0371 16.5991V20.5991ZM23.6229 18.0133V14.9499H19.6229V18.0133H23.6229ZM22.615 16.6865C23.3515 16.2657 24.5352 15.635 25.709 15.1165C26.2962 14.8571 26.8514 14.639 27.3287 14.489C27.8401 14.3282 28.1252 14.2903 28.2208 14.2903V10.2903C27.5112 10.2903 26.7632 10.4738 26.1294 10.673C25.4614 10.8829 24.7592 11.1632 24.0926 11.4576C22.7587 12.0469 21.4487 12.746 20.6308 13.2133L22.615 16.6865ZM28.2208 14.2903C30.341 14.2903 32.0785 15.0896 33.3586 16.5854L36.3977 13.9847C34.3245 11.5621 31.4579 10.2903 28.2208 10.2903V14.2903ZM33.3587 16.5855C34.6777 18.1267 35.4813 20.3752 35.4813 22.9835H39.4813C39.4813 19.5858 38.436 16.3662 36.3976 13.9846L33.3587 16.5855ZM35.4813 22.9835C35.4813 26.8119 33.2781 29.9913 31.8415 31.6344L34.8528 34.2673C36.5042 32.3786 39.4813 28.2718 39.4813 22.9835H35.4813ZM31.8417 31.6342C30.9012 32.7095 31.0113 34.3431 32.0859 35.2829L34.7192 32.272C35.3067 32.7858 35.3671 33.6792 34.8526 34.2675L31.8417 31.6342ZM32.0862 35.2832C33.1609 36.2227 34.7945 36.1139 35.7348 35.0384L32.7235 32.4056C33.2378 31.8173 34.1312 31.7579 34.7189 32.2717L32.0862 35.2832ZM35.7348 35.0385C37.4997 33.02 40.653 28.6499 40.653 22.9835H36.653C36.653 27.1993 34.263 30.6449 32.7236 32.4055L35.7348 35.0385ZM40.653 22.9836C40.653 19.299 39.5034 15.8115 37.2878 13.2227L34.2488 15.8236C35.7538 17.5821 36.653 20.1038 36.653 22.9835L40.653 22.9836ZM16.7124 35.0959C16.3863 35.333 16.3252 35.3654 16.2483 35.3941C16.1789 35.42 15.9686 35.4854 15.4032 35.4854V39.4854C16.2614 39.4854 16.9856 39.3888 17.6488 39.1409C18.3045 38.8958 18.7741 38.5424 19.0643 38.3315L16.7124 35.0959ZM15.4032 35.4854C15.6225 35.4854 15.6566 35.5347 15.3894 35.4382C15.1856 35.3646 14.8894 35.2358 14.518 35.0367C13.7781 34.6399 12.8094 34.0011 11.7666 33.0741L9.10905 36.0637C10.3826 37.1958 11.6083 38.0152 12.6278 38.5619C13.1362 38.8345 13.611 39.0487 14.0303 39.2002C14.3862 39.3288 14.8956 39.4854 15.4032 39.4854V35.4854ZM11.7273 36.0977L15.2351 33.1388L12.656 30.0813L9.14826 33.0402L11.7273 36.0977ZM15.235 33.1389C16.3271 32.2179 16.4648 30.5864 15.5445 29.4952L12.4868 32.0739C11.9836 31.4773 12.0587 30.585 12.6562 30.0811L15.235 33.1389ZM15.5443 29.4949C14.6236 28.4036 12.9922 28.2645 11.9001 29.1862L14.4801 32.243C13.8828 32.7471 12.9903 32.6708 12.487 32.0743L15.5443 29.4949ZM11.9006 29.1858L8.29086 32.2307L10.87 35.2882L14.4797 32.2433L11.9006 29.1858ZM10.995 32.3457C10.8734 32.224 10.7568 32.1052 10.6429 31.9849L7.7387 34.7355C7.8849 34.8899 8.02812 35.0356 8.16576 35.1733L10.995 32.3457ZM10.6431 31.9851C9.33201 30.6004 7.41237 28.1164 6.75024 25.0282L2.83912 25.8668C3.7237 29.9925 6.20924 33.1201 7.7385 34.7353L10.6431 31.9851ZM4.79468 27.4475H19.4341V23.4475H4.79468V27.4475ZM18.1446 23.9187L14.0234 27.3951L16.6025 30.4526L20.7237 26.9762L18.1446 23.9187ZM14.0236 27.395C12.9315 28.316 12.7937 29.9474 13.714 31.0387L16.7718 28.4599C17.275 29.0566 17.1999 29.9488 16.6023 30.4528L14.0236 27.395ZM13.7144 31.0392C14.6392 32.135 16.2721 32.2654 17.3591 31.3471L14.7778 28.2915C15.3727 27.7889 16.2656 27.8601 16.7713 28.4594L13.7144 31.0392ZM17.358 31.348L21.7409 27.6509L19.1618 24.5934L14.7789 28.2905L17.358 31.348ZM18.4513 26.1222V35.5626H22.4513V26.1222H18.4513ZM20.2054 33.5777C18.4688 33.7929 17.2848 34.6799 16.7123 35.096L19.0644 38.3314C19.6233 37.9251 20.0747 37.6245 20.6972 37.5474L20.2054 33.5777ZM19.3701 22.2758H4.60097V26.2758H19.3701V22.2758ZM6.58714 24.0409C6.54036 23.6453 6.51474 23.2458 6.51474 22.8415H2.51474C2.51474 23.4153 2.55113 23.972 2.6148 24.5106L6.58714 24.0409ZM6.51474 22.8415C6.51474 20.2506 7.31347 18.0395 8.61444 16.5412L5.59411 13.9186C3.55531 16.2667 2.51474 19.462 2.51474 22.8415H6.51474ZM8.61435 16.5413C8.78448 16.3454 8.96314 16.1622 9.14968 15.991L6.44531 13.0438C6.14851 13.3161 5.8643 13.6075 5.59421 13.9185L8.61435 16.5413ZM6.50822 16.0464L18.0808 25.8047L20.6594 22.7468L9.08677 12.9884L6.50822 16.0464Z" fill="#08F8FF" mask="url(#path-2-inside-1_2_651)"/>
<path d="M24.669 22.012C24.3671 22.012 24.079 22.1419 23.8787 22.3683C23.3841 22.9275 22.7944 23.814 22.7944 24.8614C22.7944 25.9089 23.3841 26.7954 23.8787 27.3545C24.079 27.581 24.3671 27.7109 24.669 27.7109C24.971 27.7109 25.2591 27.581 25.4593 27.3546C25.954 26.7954 26.5436 25.9089 26.5436 24.8614C26.5436 23.814 25.954 22.9275 25.4593 22.3684C25.2591 22.1419 24.971 22.012 24.669 22.012ZM24.669 26.4763C24.3731 26.1198 23.9661 25.5111 23.9661 24.8614C23.9661 24.2117 24.373 23.6031 24.669 23.2464C24.965 23.603 25.372 24.2117 25.372 24.8614C25.372 25.5111 24.9651 26.1197 24.669 26.4763Z" fill="#2F8FFF"/>
</svg>
