<svg width="50" height="50" viewBox="0 0 50 50" fill="none" xmlns="http://www.w3.org/2000/svg">
<g clip-path="url(#clip0_2_1321)">
<path d="M46.2468 5.66875H3.75401C1.68401 5.66875 0 7.35276 0 9.42226V28.231C0 30.3005 1.68401 31.985 3.75401 31.985H14.086C15.7905 34.6458 15.7725 38.0399 14.0137 40.6781L12.5309 42.9022C12.2619 43.3052 12.3708 43.8493 12.7739 44.1184C12.924 44.2183 13.0926 44.266 13.2598 44.266C13.5434 44.266 13.8214 44.1289 13.9906 43.8755L15.4733 41.6514C17.4173 38.7366 17.6236 35.0644 16.1033 31.985H25.4895C27.1941 34.6463 27.1761 38.0404 25.4173 40.6781L23.9345 42.9022C23.665 43.3052 23.7744 43.8493 24.1775 44.1189C24.3275 44.2183 24.4962 44.266 24.6633 44.266C24.9469 44.266 25.225 44.1289 25.3942 43.8755L26.8769 41.6514C28.8204 38.7371 29.0272 35.0649 27.5063 31.985H36.8926C38.5972 34.6463 38.5796 38.0404 36.8209 40.6786L35.3376 42.9022C35.0686 43.3057 35.1775 43.8498 35.5811 44.1189C35.7311 44.2188 35.8998 44.2665 36.0669 44.2665C36.35 44.2665 36.6286 44.1294 36.7973 43.8755L38.2805 41.6519C40.224 38.7371 40.4308 35.0649 38.9099 31.9855H46.2463C48.3158 31.9855 49.9998 30.301 49.9998 28.2315V9.42226C50.0008 7.35276 48.3163 5.66875 46.2468 5.66875ZM48.246 28.231C48.246 29.3332 47.3496 30.2302 46.2468 30.2302H37.9111C37.2892 29.0752 36.9453 27.7963 36.9453 26.4737V23.2126H39.4656C39.7617 23.2126 40.0378 23.063 40.1994 22.8155C40.3615 22.5681 40.3881 22.2554 40.2692 21.9843L37.0096 14.5285C36.87 14.2088 36.5548 14.0025 36.206 14.0025C35.8576 14.0025 35.5424 14.2088 35.4029 14.528L32.1423 21.9838C32.0233 22.2554 32.0499 22.5681 32.2115 22.8155C32.3737 23.063 32.6492 23.2126 32.9454 23.2126H35.191V26.4737C35.191 27.7752 35.4551 29.0466 35.9535 30.2302H26.5075C25.8851 29.0752 25.5412 27.7963 25.5412 26.4737V23.2126H28.0615C28.3581 23.2126 28.6337 23.063 28.7958 22.8155C28.958 22.5681 28.9841 22.2554 28.8651 21.9843L25.606 14.5285C25.4665 14.2088 25.1512 14.0025 24.8024 14.0025C24.454 14.0025 24.1388 14.2088 23.9988 14.528L20.7387 21.9838C20.6197 22.2554 20.6463 22.5681 20.8079 22.8155C20.9696 23.063 21.2456 23.2126 21.5418 23.2126H23.787V26.4737C23.787 27.7752 24.0515 29.0466 24.5499 30.2302H15.1039C14.4815 29.0752 14.1377 27.7963 14.1377 26.4737V23.2126H16.6579C16.9545 23.2126 17.2301 23.063 17.3922 22.8155C17.5544 22.5681 17.5805 22.2554 17.4615 21.9843L14.2024 14.5285C14.0629 14.2088 13.7476 14.0025 13.3988 14.0025C13.05 14.0025 12.7352 14.2088 12.5952 14.528L9.33509 21.9838C9.21613 22.2554 9.24223 22.5681 9.40436 22.8155C9.56598 23.063 9.84205 23.2126 10.1382 23.2126H12.3834V26.4737C12.3834 27.7752 12.6479 29.0466 13.1458 30.2302H3.75401C2.65125 30.2302 1.75428 29.3332 1.75428 28.231V9.42226C1.75428 8.32 2.65125 7.42303 3.75401 7.42303H46.2468C47.3496 7.42303 48.246 8.32 48.246 9.42226V28.231ZM34.2866 21.4583L36.206 17.0693L38.1249 21.4583H34.2866ZM22.883 21.4583L24.8024 17.0693L26.7213 21.4583H22.883ZM11.4789 21.4583L13.3988 17.0693L15.3177 21.4583H11.4789Z" fill="#2F8FFF"/>
</g>
<defs>
<clipPath id="clip0_2_1321">
<rect width="50" height="50" fill="white"/>
</clipPath>
</defs>
</svg>
