<svg width="51" height="51" viewBox="0 0 51 51" fill="none" xmlns="http://www.w3.org/2000/svg">
<g clip-path="url(#clip0_2_693)">
<path d="M3.8538 44.432L46.3466 44.432C48.4166 44.432 50.1006 42.7479 50.1006 40.6784L50.1006 21.8697C50.1006 19.8002 48.4166 18.1157 46.3466 18.1157L36.0146 18.1157C34.31 15.4549 34.3281 12.0608 36.0869 9.42261L37.5696 7.19852C37.8387 6.79546 37.7298 6.25136 37.3267 5.98231C37.1766 5.88243 37.008 5.83475 36.8408 5.83475C36.5572 5.83475 36.2792 5.97177 36.11 6.22525L34.6273 8.44935C32.6833 11.3641 32.477 15.0363 33.9973 18.1157L24.611 18.1157C22.9065 15.4544 22.9245 12.0603 24.6833 9.42261L26.1661 7.19851C26.4356 6.79546 26.3262 6.25136 25.9231 5.98181C25.773 5.88243 25.6044 5.83475 25.4372 5.83475C25.1536 5.83475 24.8756 5.97177 24.7064 6.22525L23.2237 8.44935C21.2802 11.3636 21.0734 15.0358 22.5943 18.1157L13.208 18.1157C11.5034 15.4544 11.5209 12.0603 13.2797 9.42211L14.763 7.19851C15.032 6.79495 14.9231 6.25085 14.5195 5.98181C14.3695 5.88192 14.2008 5.83424 14.0337 5.83424C13.7506 5.83424 13.472 5.97127 13.3033 6.22525L11.8201 8.44885C9.87658 11.3636 9.66978 15.0358 11.1907 18.1152L3.8543 18.1152C1.7848 18.1152 0.10079 19.7997 0.10079 21.8692L0.100788 40.6784C0.099785 42.7479 1.7843 44.432 3.8538 44.432ZM1.85457 21.8697C1.85457 20.7675 2.75104 19.8705 3.8538 19.8705L12.1895 19.8705C12.8114 21.0255 13.1553 22.3044 13.1553 23.627L13.1553 26.8881L10.635 26.8881C10.3389 26.8881 10.0628 27.0377 9.90118 27.2852C9.73905 27.5326 9.71245 27.8453 9.83141 28.1164L13.091 35.5722C13.2305 35.8919 13.5458 36.0982 13.8946 36.0982C14.243 36.0982 14.5582 35.8919 14.6977 35.5727L17.9583 28.1169C18.0773 27.8453 18.0507 27.5326 17.8891 27.2852C17.7269 27.0377 17.4514 26.8881 17.1552 26.8881L14.9095 26.8881L14.9095 23.627C14.9095 22.3255 14.6455 21.0541 14.1471 19.8705L23.5931 19.8705C24.2155 21.0255 24.5593 22.3044 24.5593 23.627L24.5593 26.8881L22.0391 26.8881C21.7425 26.8881 21.4669 27.0377 21.3048 27.2852C21.1426 27.5326 21.1165 27.8453 21.2355 28.1164L24.4946 35.5722C24.6341 35.8919 24.9494 36.0982 25.2982 36.0982C25.6465 36.0982 25.9618 35.8919 26.1018 35.5727L29.3619 28.1169C29.4809 27.8453 29.4543 27.5326 29.2926 27.2852C29.131 27.0377 28.855 26.8881 28.5588 26.8881L26.3136 26.8881L26.3136 23.627C26.3136 22.3255 26.0491 21.0541 25.5507 19.8705L34.9967 19.8705C35.6191 21.0255 35.9629 22.3044 35.9629 23.627L35.9629 26.8881L33.4427 26.8881C33.146 26.8881 32.8705 27.0377 32.7083 27.2852C32.5462 27.5326 32.5201 27.8453 32.6391 28.1164L35.8982 35.5722C36.0377 35.8919 36.3529 36.0982 36.7018 36.0982C37.0506 36.0982 37.3654 35.8919 37.5054 35.5727L40.7655 28.1169C40.8845 27.8453 40.8584 27.5326 40.6962 27.2852C40.5346 27.0377 40.2585 26.8881 39.9624 26.8881L37.7172 26.8881L37.7172 23.627C37.7172 22.3255 37.4527 21.0541 36.9548 19.8705L46.3466 19.8705C47.4493 19.8705 48.3463 20.7675 48.3463 21.8697L48.3463 40.6784C48.3463 41.7807 47.4493 42.6777 46.3466 42.6777L3.8538 42.6777C2.75103 42.6777 1.85457 41.7807 1.85457 40.6784L1.85457 21.8697ZM15.814 28.6424L13.8946 33.0314L11.9757 28.6424L15.814 28.6424ZM27.2176 28.6424L25.2982 33.0314L23.3793 28.6424L27.2176 28.6424ZM38.6217 28.6424L36.7018 33.0314L34.7829 28.6424L38.6217 28.6424Z" fill="#2F8FFF"/>
</g>
<defs>
<clipPath id="clip0_2_693">
<rect width="50" height="50" fill="white" transform="translate(50.1006 50.1007) rotate(-180)"/>
</clipPath>
</defs>
</svg>
