<svg width="60" height="50" viewBox="0 0 60 50" fill="none" xmlns="http://www.w3.org/2000/svg">
<path d="M55.787 15.7407H53.0966C54.9363 14.0869 56.0958 11.6905 56.0958 9.02778C56.0958 4.04977 52.0459 0 47.0681 0C42.0902 0 38.0403 4.04977 38.0403 9.02778C38.0403 11.6905 39.1998 14.0869 41.0395 15.7407H34.8374C34.1981 15.7407 33.68 16.259 33.68 16.8981C33.68 17.5373 34.1981 18.0556 34.8374 18.0556H55.787C56.4252 18.0556 56.9444 18.5748 56.9444 19.213C56.9444 19.8512 56.4252 20.3704 55.787 20.3704H3.47222C2.83403 20.3704 2.31481 19.8512 2.31481 19.213C2.31481 18.5748 2.83403 18.0556 3.47222 18.0556H24.4207C25.06 18.0556 25.5781 17.5373 25.5781 16.8981C25.5781 16.259 25.06 15.7407 24.4207 15.7407H18.2197C20.0594 14.0869 21.2189 11.6905 21.2189 9.02778C21.2189 4.04977 17.169 0 12.1911 0C7.21319 0 3.16331 4.04977 3.16331 9.02778C3.16331 11.6905 4.3228 14.0869 6.1625 15.7407H3.47222C1.55764 15.7407 0 17.2984 0 19.213C0 21.1275 1.55764 22.6852 3.47222 22.6852H27.6024L12.5093 48.2543C12.298 48.612 12.2948 49.0557 12.5009 49.4164C12.7069 49.7773 13.0905 50 13.506 50H45.7534C46.1689 50 46.5524 49.7773 46.7584 49.4164C46.9645 49.0557 46.9612 48.612 46.7501 48.2543L31.6568 22.6852H55.787C57.7016 22.6852 59.2593 21.1275 59.2593 19.213C59.2593 17.2984 57.7016 15.7407 55.787 15.7407ZM40.3551 9.02778C40.3551 5.32627 43.3666 2.31481 47.0681 2.31481C50.7696 2.31481 53.781 5.32627 53.781 9.02778C53.781 12.7293 50.7696 15.7407 47.0681 15.7407C43.3666 15.7407 40.3551 12.7293 40.3551 9.02778ZM5.47824 9.02778C5.47824 5.32627 8.4897 2.31481 12.1912 2.31481C15.8927 2.31481 18.9042 5.32627 18.9042 9.02778C18.9042 12.7293 15.8927 15.7407 12.1912 15.7407C8.4897 15.7407 5.47824 12.7293 5.47824 9.02778ZM15.5332 47.6852L29.6296 23.8046L43.726 47.6852H15.5332Z" fill="#2F8FFF"/>
</svg>
