<svg width="44" height="50" viewBox="0 0 44 50" fill="none" xmlns="http://www.w3.org/2000/svg">
<path d="M31.8739 49.9643C34.5022 49.9643 36.355 48.7034 37.0535 46.4954C39.6019 46.1787 41.5199 44.0121 41.5228 41.4401V21.9706H42.4611C42.982 21.9706 43.4023 21.5473 43.4023 21.0323C43.4023 20.5114 42.982 20.0911 42.4611 20.0911H37.3702V8.81427C37.3702 4.76527 34.5495 3.31793 31.8739 3.31793H27.3069V0.938255C27.3069 0.420291 26.8866 0 26.3657 0H11.7828C11.2648 0 10.8446 0.420291 10.8446 0.938255V3.29721H6.27759C3.61673 3.29721 0.78125 4.74751 0.78125 8.79651V44.5005C0.78125 48.5525 3.59897 49.9998 6.27759 49.9998L31.8739 49.9643ZM36.429 44.6633C34.662 44.6811 33.2058 43.2752 33.1673 41.5052V32.4837H39.6078V41.4697C39.593 43.2189 38.1812 44.6367 36.429 44.6633ZM39.6433 30.5688H33.1673V21.9706H39.6078L39.6433 30.5688ZM12.724 1.87947H25.4275V7.67475H12.724V1.87947ZM2.66072 44.465V8.76099C2.66072 5.7716 4.62306 5.14116 6.27759 5.14116H10.8446V8.61596C10.8446 9.13689 11.2648 9.55422 11.7828 9.55422H26.3657C26.8866 9.55422 27.3069 9.13689 27.3069 8.61596V5.17668H31.8739C33.5255 5.17668 35.4908 5.80712 35.4908 8.79651V20.0733H30.2282C29.7132 20.0733 29.287 20.4936 29.287 21.0116C29.287 21.5295 29.7132 21.9528 30.2282 21.9528H31.2878V41.4401C31.2938 43.7339 32.8329 45.7466 35.0468 46.3563C34.4459 47.5284 33.188 48.2121 31.8739 48.0848H6.27759C4.62306 48.0848 2.66072 47.4544 2.66072 44.465Z" fill="#2F8FFF"/>
<path d="M11.1228 18.3211H27.0258C27.5438 18.3211 27.9641 17.9038 27.9641 17.3829C27.9641 16.8679 27.5438 16.4417 27.0258 16.4417H11.1228C10.6078 16.4417 10.1846 16.8679 10.1846 17.3829C10.1846 17.9038 10.6078 18.3211 11.1228 18.3211Z" fill="#2F8FFF"/>
<path d="M11.1228 23.5777H27.0258C27.5438 23.5777 27.9641 23.1545 27.9641 22.6365C27.9641 22.1185 27.5438 21.6982 27.0258 21.6982H11.1228C10.6078 21.6982 10.1846 22.1185 10.1846 22.6365C10.1846 23.1545 10.6078 23.5777 11.1228 23.5777Z" fill="#2F8FFF"/>
<path d="M11.1228 28.8225H27.0258C27.5438 28.8225 27.9641 28.3963 27.9641 27.8812C27.9641 27.3633 27.5438 26.943 27.0258 26.943H11.1228C10.6078 26.943 10.1846 27.3633 10.1846 27.8812C10.1846 28.3963 10.6078 28.8225 11.1228 28.8225Z" fill="#2F8FFF"/>
<path d="M11.1228 34.0613H27.0258C27.5438 34.0613 27.9641 33.641 27.9641 33.123C27.9641 32.6051 27.5438 32.1818 27.0258 32.1818H11.1228C10.6078 32.1818 10.1846 32.6051 10.1846 33.123C10.1846 33.641 10.6078 34.0613 11.1228 34.0613Z" fill="#2F8FFF"/>
<path d="M11.1228 39.3179H27.0258C27.5438 39.3179 27.9641 38.8976 27.9641 38.3767C27.9641 37.8587 27.5438 37.4384 27.0258 37.4384H11.1228C10.6078 37.4384 10.1846 37.8587 10.1846 38.3767C10.1846 38.8976 10.6078 39.3179 11.1228 39.3179Z" fill="#2F8FFF"/>
</svg>
