<svg width="65" height="51" viewBox="0 0 65 51" fill="none" xmlns="http://www.w3.org/2000/svg">
<path d="M64.5817 43.9254V0.180176H0V43.9254H24.9936V48.0953H13.5393V50.1802H24.9936H39.5754H51.0297V48.0953H39.5754V43.9254H64.5817ZM2.08492 2.25239H62.4968V33.5008H2.08492V2.25239ZM37.5032 48.0953H27.0786V43.9254H37.5032V48.0953ZM24.9936 41.8405H2.08492V35.5857H62.4968V41.8405H39.5881H24.9936Z" fill="#2F8FFF"/>
<path d="M33.3333 37.6707H31.2484V39.7556H33.3333V37.6707Z" fill="#2F8FFF"/>
<path d="M37.5031 37.6707H35.4182V39.7556H37.5031V37.6707Z" fill="#2F8FFF"/>
<path d="M29.1635 37.6707H27.0786V39.7556H29.1635V37.6707Z" fill="#2F8FFF"/>
<path d="M51.0297 6.42224C49.0211 6.42224 47.3811 8.06221 47.3811 10.0709C47.3811 10.8336 47.6227 11.5456 48.0168 12.1304L37.9481 22.199C37.6303 22.11 37.3125 22.0464 36.9692 22.0464C36.626 22.0464 36.3081 22.11 35.9903 22.199L28.2863 14.495C28.8202 13.8593 29.1635 13.0457 29.1635 12.1558C29.1635 10.1471 27.5235 8.50716 25.5148 8.50716C23.5062 8.50716 21.8662 10.1471 21.8662 12.1558C21.8662 13.0457 22.1968 13.8593 22.7434 14.495L15.7767 21.4617C15.2555 21.182 14.6834 21.004 14.0605 21.004C12.0518 21.004 10.4119 22.644 10.4119 24.6526C10.4119 26.6612 12.0518 28.3012 14.0605 28.3012C16.0691 28.3012 17.7091 26.6612 17.7091 24.6526C17.7091 24.0297 17.5311 23.4449 17.2514 22.9364L24.5359 15.6518C24.8538 15.7408 25.1716 15.8044 25.5148 15.8044C25.8581 15.8044 26.1759 15.7408 26.4937 15.6518L34.1978 23.3559C33.6638 23.9915 33.3206 24.8052 33.3206 25.6951C33.3206 27.7037 34.9606 29.3437 36.9692 29.3437C38.9778 29.3437 40.6178 27.7037 40.6178 25.6951C40.6178 24.8052 40.2873 23.9915 39.7406 23.3559L49.6567 13.4398C50.0762 13.6178 50.5466 13.7195 51.0297 13.7195C53.0384 13.7195 54.6783 12.0795 54.6783 10.0709C54.6783 8.06221 53.0384 6.42224 51.0297 6.42224ZM14.0605 26.2163C13.196 26.2163 12.4968 25.5171 12.4968 24.6526C12.4968 23.7881 13.196 23.0889 14.0605 23.0889C14.925 23.0889 15.6242 23.7881 15.6242 24.6526C15.6242 25.5171 14.925 26.2163 14.0605 26.2163ZM25.5148 13.7195C24.6504 13.7195 23.9511 13.0203 23.9511 12.1558C23.9639 11.2913 24.6631 10.5921 25.5148 10.5921C26.3793 10.5921 27.0785 11.2913 27.0785 12.1558C27.0785 13.0203 26.3793 13.7195 25.5148 13.7195ZM36.9819 27.2588C36.1174 27.2588 35.4182 26.5595 35.4182 25.6951C35.4182 24.8306 36.1174 24.1314 36.9819 24.1314C37.8464 24.1314 38.5456 24.8306 38.5456 25.6951C38.5456 26.5595 37.8464 27.2588 36.9819 27.2588ZM51.0424 11.6345C50.1779 11.6345 49.4787 10.9353 49.4787 10.0709C49.4787 9.20638 50.1779 8.50716 51.0424 8.50716C51.9069 8.50716 52.6061 9.20638 52.6061 10.0709C52.6061 10.9353 51.9069 11.6345 51.0424 11.6345Z" fill="#2F8FFF"/>
</svg>
