<svg width="1415" height="298" viewBox="0 0 1415 298" fill="none" xmlns="http://www.w3.org/2000/svg">
<path opacity="0.6" fill-rule="evenodd" clip-rule="evenodd" d="M10 0C4.47715 0 0 4.47716 0 10V288C0 293.523 4.47716 298 10 298H1405C1410.52 298 1415 293.523 1415 288V189.626C1415 185.369 1412.31 181.569 1408.27 180.22C1380.97 171.099 1357.57 165.754 1334.21 165.545C1310.48 165.333 1278.66 178.544 1267.91 183.338C1262.58 186.338 1256.49 188.037 1250.03 188.037C1228.92 188.037 1211.8 169.895 1211.8 147.517C1211.8 125.138 1228.92 106.997 1250.03 106.997C1257.08 106.997 1263.68 109.018 1269.34 112.542C1281.25 118.189 1311.36 131.357 1334.21 131.759C1357.55 132.171 1381.07 127.037 1408.69 116.528C1412.51 115.075 1415 111.385 1415 107.297V10C1415 4.47715 1410.52 0 1405 0H10ZM993.46 101.955C1000.89 101.955 1006.92 107.981 1006.92 115.414C1006.92 122.848 1000.89 128.874 993.46 128.874C986.026 128.874 980 122.848 980 115.414C980 107.981 986.026 101.955 993.46 101.955ZM1037.26 187.653C1052.13 187.653 1064.18 199.705 1064.18 214.572C1064.18 229.439 1052.13 241.491 1037.26 241.491C1022.4 241.491 1010.34 229.439 1010.34 214.572C1010.34 199.705 1022.4 187.653 1037.26 187.653ZM1192.52 147.695C1192.52 125.395 1174.44 107.317 1152.14 107.317C1129.84 107.317 1111.76 125.395 1111.76 147.695C1111.76 169.996 1129.84 188.074 1152.14 188.074C1174.44 188.074 1192.52 169.996 1192.52 147.695Z" fill="url(#paint0_linear_427_2141)"/>
<defs>
<linearGradient id="paint0_linear_427_2141" x1="356" y1="182" x2="1456" y2="174" gradientUnits="userSpaceOnUse">
<stop stop-opacity="0.88"/>
<stop offset="1" stop-opacity="0"/>
</linearGradient>
</defs>
</svg>
