<svg width="340" height="752" viewBox="0 0 340 752" fill="none" xmlns="http://www.w3.org/2000/svg">
<path opacity="0.5" fill-rule="evenodd" clip-rule="evenodd" d="M10 0C4.47754 0 0 4.47705 0 10V742C0 747.523 4.47754 752 10 752H182.272C191.334 726.223 196.721 704.799 196.912 683.414C197.088 663.766 186.146 637.411 182.174 628.502C179.688 624.082 178.28 619.039 178.28 613.686C178.28 596.197 193.309 582.021 211.846 582.021C230.384 582.021 245.411 596.197 245.411 613.686C245.411 619.522 243.737 624.99 240.818 629.685C236.14 639.543 225.232 664.489 224.898 683.414C224.524 704.657 229.695 726.083 240.226 752H330C335.522 752 340 747.523 340 742V10C340 4.47705 335.522 0 330 0H10ZM238.438 412.299C244.597 412.299 249.588 407.308 249.588 401.15C249.588 394.992 244.597 390 238.438 390C232.281 390 227.289 394.992 227.289 401.15C227.289 407.308 232.281 412.299 238.438 412.299ZM178.598 437.437C178.598 449.752 168.614 459.735 156.299 459.735C143.983 459.735 134 449.752 134 437.437C134 425.121 143.983 415.138 156.299 415.138C168.614 415.138 178.598 425.121 178.598 437.437ZM211.698 566.044C230.171 566.044 245.146 551.068 245.146 532.595C245.146 514.122 230.171 499.147 211.698 499.147C193.225 499.147 178.25 514.122 178.25 532.595C178.25 551.068 193.225 566.044 211.698 566.044Z" fill="url(#paint0_linear_427_2227)"/>
<defs>
<linearGradient id="paint0_linear_427_2227" x1="172.849" y1="167.434" x2="1343.86" y2="184.209" gradientUnits="userSpaceOnUse">
<stop stop-color="white" stop-opacity="0.88"/>
<stop offset="1" stop-color="white" stop-opacity="0"/>
</linearGradient>
</defs>
</svg>
