<svg width="24" height="70" viewBox="0 0 24 70" fill="none" xmlns="http://www.w3.org/2000/svg">
<path fill-rule="evenodd" clip-rule="evenodd" d="M21.4058 9.08653C21.4058 10.7618 20.9252 12.3312 20.0871 13.6787C18.7444 16.5083 15.6152 23.6657 15.5194 29.0956C15.3927 36.2852 17.4798 43.5475 21.692 52.9116C22.8646 54.6383 23.5444 56.6914 23.5444 58.8942C23.5444 65.0278 18.2738 70 11.7722 70C5.27059 70 0 65.0278 0 58.8942C0 56.801 0.613849 54.8431 1.68099 53.1718C5.24133 43.7349 7.42289 36.4072 7.48833 29.0956C7.5388 23.4555 4.39687 15.8894 3.25805 13.3357C2.54568 12.0677 2.1422 10.6216 2.1422 9.08653C2.1422 4.06818 6.4545 0 11.774 0C17.0935 0 21.4058 4.06818 21.4058 9.08653Z" fill="#2F8FFF"/>
</svg>
