<svg width="27" height="27" viewBox="0 0 27 27" fill="none" xmlns="http://www.w3.org/2000/svg">
<path d="M25.4042 25.2009L18.3908 17.9071C20.1796 16.113 21.2879 13.6397 21.2879 10.912C21.2879 5.44625 16.8417 1 11.3759 1C5.91012 1 1.46387 5.44625 1.46387 10.912C1.46387 16.3778 5.91012 20.824 11.3759 20.824C13.7751 20.824 15.977 19.9664 17.6931 18.5433L24.7236 25.8551C24.8161 25.9519 24.9398 26 25.0639 26C25.1819 26 25.2994 25.9561 25.391 25.8683C25.5789 25.6875 25.5845 25.3888 25.4042 25.2009ZM11.3759 19.88C6.43073 19.88 2.40787 15.8572 2.40787 10.912C2.40787 5.96687 6.43073 1.944 11.3759 1.944C16.321 1.944 20.3439 5.96687 20.3439 10.912C20.3439 15.8572 16.3206 19.88 11.3759 19.88Z" fill="#2F8FFF" stroke="#07EAF2"/>
</svg>
