<svg width="20" height="16" viewBox="0 0 20 16" fill="none" xmlns="http://www.w3.org/2000/svg">
<path d="M4.12 8.36C5.13333 8.46667 5.96 8.86666 6.6 9.56C7.24 10.2 7.56 11.0533 7.56 12.12C7.56 13.24 7.21333 14.1733 6.52 14.92C5.82667 15.6133 4.97333 15.96 3.96 15.96C2.78667 15.96 1.85333 15.5067 1.16 14.6C0.466667 13.6933 0.12 12.3067 0.12 10.44C0.12 6.70667 1.29333 3.53333 3.64 0.919997C4.12 0.386664 4.65333 0.119998 5.24 0.119998C5.72 0.119998 6.14667 0.306664 6.52 0.679996C6.89333 0.999998 7.08 1.4 7.08 1.88C7.08 2.25333 6.86667 2.70666 6.44 3.24C5.10667 4.62666 4.33333 6.33333 4.12 8.36ZM16.44 8.36C17.4533 8.46667 18.28 8.86666 18.92 9.56C19.56 10.2 19.88 11.0533 19.88 12.12C19.88 13.24 19.5333 14.1733 18.84 14.92C18.1467 15.6133 17.2933 15.96 16.28 15.96C15.1067 15.96 14.1733 15.5067 13.48 14.6C12.7867 13.6933 12.44 12.3067 12.44 10.44C12.44 6.70667 13.6133 3.53333 15.96 0.919997C16.44 0.386664 16.9733 0.119998 17.56 0.119998C18.04 0.119998 18.4667 0.306664 18.84 0.679996C19.2133 0.999998 19.4 1.4 19.4 1.88C19.4 2.25333 19.1867 2.70666 18.76 3.24C17.4267 4.62666 16.6533 6.33333 16.44 8.36Z" fill="white"/>
</svg>
