<svg width="55" height="51" viewBox="0 0 55 51" fill="none" xmlns="http://www.w3.org/2000/svg">
<path fill-rule="evenodd" clip-rule="evenodd" d="M5.37109 14.7576H49.6291V44.8357H5.37109V14.7576Z" fill="#08F8FF"/>
<path d="M51.7774 0.792969H3.22265C1.44568 0.792969 0 2.23865 0 4.01551V46.9843C0 48.7612 1.44568 50.2069 3.22265 50.2069H51.7774C53.5543 50.2069 55 48.7612 55 46.9843V4.01551C55 2.23865 53.5543 0.792969 51.7774 0.792969ZM3.22265 2.9414H51.7774C52.3697 2.9414 52.8516 3.42319 52.8516 4.01551V5.08984H18.2617C17.6684 5.08984 17.1875 5.57087 17.1875 6.16405C17.1875 7.94102 15.7418 9.3867 13.9648 9.3867H2.14843V4.01551C2.14843 3.42319 2.63033 2.9414 3.22265 2.9414ZM51.7774 48.0585H3.22265C2.63033 48.0585 2.14843 47.5766 2.14843 46.9843V11.5351H13.9648C16.5586 11.5351 18.7289 9.68684 19.228 7.23827H52.8517V46.9843C52.8516 47.5765 52.3698 48.0585 51.7774 48.0585Z" fill="#2F8FFF"/>
<path d="M13.9653 7.2384C14.5586 7.2384 15.0395 6.75737 15.0395 6.16418C14.9869 4.74074 12.9428 4.74095 12.8906 6.16418C12.8907 6.75737 13.372 7.2384 13.9653 7.2384Z" fill="#2F8FFF"/>
<path d="M9.66815 7.2384C10.2614 7.2384 10.7424 6.75737 10.7424 6.16418C10.6897 4.74074 8.64571 4.74095 8.59351 6.16418C8.59351 6.75737 9.07486 7.2384 9.66815 7.2384Z" fill="#2F8FFF"/>
<path d="M5.37104 7.2384C5.96433 7.2384 6.44525 6.75737 6.44525 6.16418C6.39262 4.74074 4.34859 4.74095 4.29639 6.16418C4.29649 6.75737 4.77785 7.2384 5.37104 7.2384Z" fill="#2F8FFF"/>
<path d="M45.7618 31.3314C45.8097 28.7362 42.8841 26.9662 40.6148 28.1947L35.5475 23.1273C36.7758 20.8576 35.0061 17.9324 32.4108 17.9803C29.8161 17.9323 28.0453 20.8579 29.2741 23.1272L24.2068 28.1946C22.9862 27.5224 21.2618 27.7482 20.2606 28.6811L16.2039 26.2472C16.7416 24.0767 15.0098 21.8791 12.7679 21.9088C8.72832 21.9909 7.91288 27.5258 11.6937 28.8008V39.4647H10.3127C8.90019 39.5123 8.87967 41.5571 10.3127 41.6131H44.6876C46.1002 41.5654 46.1205 39.5208 44.6876 39.4647H43.3064V34.6938C44.729 34.2383 45.7618 32.9032 45.7618 31.3314ZM43.6134 31.3314C43.6134 32.093 42.9937 32.7125 42.2322 32.7125C40.4024 32.6431 40.4028 30.0194 42.2322 29.9502C42.9939 29.9502 43.6134 30.5698 43.6134 31.3314ZM23.6636 34.6938C25.6773 34.0968 26.7522 31.6044 25.7261 29.714L30.7934 24.6467C30.9667 24.7364 31.1482 24.8121 31.3366 24.8725V39.4647H23.6636V34.6938ZM32.4109 20.1289C33.1724 20.1289 33.792 20.7485 33.792 21.5099C33.7225 23.3398 31.0989 23.3394 31.0297 21.5099C31.0297 20.7484 31.6492 20.1289 32.4109 20.1289ZM22.5895 29.9502C23.351 29.9502 23.9706 30.5698 23.9706 31.3312C23.9012 33.1611 21.2776 33.1605 21.2084 31.3312C21.2084 30.5698 21.8279 29.9502 22.5895 29.9502ZM12.768 24.0574C13.5295 24.0574 14.1491 24.677 14.1491 25.4385C14.0798 27.2683 11.456 27.2678 11.3869 25.4385C11.3868 24.677 12.0065 24.0574 12.768 24.0574ZM13.8422 28.801C14.3103 28.6512 14.7361 28.406 15.0969 28.0886L19.1535 30.5226C18.7082 32.298 19.8259 34.185 21.5153 34.6938V39.4647H13.8423V28.801H13.8422ZM33.4851 39.4647V24.8725C33.6735 24.8121 33.855 24.7364 34.0283 24.6467L39.0955 29.714C38.0692 31.6049 39.1445 34.097 41.158 34.6938V39.4647H33.4851Z" fill="#2F8FFF"/>
</svg>
