<svg width="56" height="51" viewBox="0 0 56 51" fill="none" xmlns="http://www.w3.org/2000/svg">
<g clip-path="url(#clip0_2_1153)">
<path fill-rule="evenodd" clip-rule="evenodd" d="M48.0006 29.0779H37.9372L32.5173 36.7867C31.3155 38.1442 32.3648 40.2128 34.3385 40.2128H51.5974C53.449 40.2145 54.5964 38.3013 53.5011 36.8928L48.0006 29.0779Z" fill="#08F8FF"/>
<path fill-rule="evenodd" clip-rule="evenodd" d="M37.2681 45.1694H5.70214V6.7066H0.00244141V50.3244H37.2681V45.1694Z" fill="#08F8FF"/>
<path d="M53.5298 36.354L46.4646 26.316V21.4262C47.9027 21.4021 47.9232 19.5329 46.4864 19.4831H43.1764V9.48195C43.1764 9.22429 43.0631 8.97721 42.8617 8.79495L34.0933 0.864499C33.8919 0.682329 33.6187 0.579926 33.3337 0.579926H4.83643C4.24313 0.579926 3.76221 1.015 3.76221 1.5515V45.1693C3.76221 45.7058 4.24313 46.1409 4.83643 46.1409H42.1021C42.6954 46.1409 43.1764 45.7058 43.1764 45.1693V41.1842H50.7343C53.4267 41.2147 55.0971 38.3437 53.5298 36.354ZM34.118 3.63484L39.7986 8.7726H34.118V3.63484ZM41.0279 44.1977H5.91064V2.52307H31.9696V9.74417C31.9696 10.2807 32.4505 10.7157 33.0438 10.7157H41.0279V19.483H37.7179C36.2807 19.533 36.3019 21.4022 37.7399 21.4261V26.3167L30.7739 36.2246C29.0494 38.1915 30.6841 41.2223 33.473 41.1842H41.028V44.1977H41.0279ZM51.8422 38.6222C51.6194 39.0098 51.2053 39.2412 50.7332 39.2412H33.4728C32.268 39.2114 31.9099 38.0201 32.4903 37.3939C32.5676 37.2995 39.6495 27.2223 39.7206 27.1206C39.8301 26.9649 39.8883 26.7841 39.8883 26.5994V21.4261H44.3162V26.5989C44.3162 26.7837 44.3744 26.9648 44.4842 27.1206C44.5277 27.1783 51.7183 37.4036 51.757 37.4515C52.1503 37.9575 51.9476 38.4387 51.8422 38.6222Z" fill="#2F8FFF"/>
<path d="M28.4924 24.665C28.3258 24.5143 28.1456 24.3831 27.9555 24.2714L28.9637 20.6237C30.6025 20.533 32.0255 19.1598 31.9848 17.6464C32.0089 15.0126 28.3889 13.6567 26.342 15.5324C24.859 16.8252 25.1339 19.168 26.8788 20.154L25.8705 23.8018C24.6358 23.8705 23.414 24.716 23.0271 25.8074L16.6588 25.8073C15.8941 23.7361 12.8957 23.1009 11.1958 24.665C9.46633 26.2021 10.1691 28.915 12.4589 29.6059V35.3676C10.1687 36.0591 9.46654 38.7712 11.1958 40.3085C12.4261 41.4683 14.6402 41.4684 15.8705 40.3085C17.6002 38.7707 16.8969 36.0586 14.6074 35.3676V29.6059C15.5326 29.3366 16.3612 28.5871 16.6589 27.7504L23.0272 27.7505C23.7975 29.8235 26.7923 30.4561 28.4924 28.8928C29.7747 27.7801 29.7747 25.7778 28.4924 24.665ZM27.8613 16.9065C28.5707 16.2491 29.8506 16.7285 29.8364 17.6465C29.8504 18.5643 28.5708 19.044 27.8613 18.3864C27.4125 17.9969 27.4123 17.296 27.8613 16.9065ZM14.3514 38.9347C14.3513 38.9347 14.3513 38.9347 14.3514 38.9347C13.6464 39.5937 12.3596 39.1114 12.3763 38.1947C12.3574 37.6337 12.9267 37.1317 13.5333 37.1489C14.5448 37.1367 15.0822 38.2876 14.3514 38.9347ZM14.3513 27.5189C13.9003 27.9269 13.1663 27.9269 12.7151 27.5189C11.6686 26.5061 13.2324 25.0927 14.3514 26.0391C14.8025 26.4471 14.8025 27.1109 14.3513 27.5189ZM26.9732 27.5189C26.9731 27.5189 26.9731 27.5189 26.9732 27.5189C26.2682 28.1779 24.9814 27.6956 24.998 26.7789C24.9791 26.218 25.5485 25.7159 26.1551 25.7331C27.1667 25.721 27.704 26.8719 26.9732 27.5189Z" fill="#2F8FFF"/>
<path d="M11.3017 7.67819H26.4478C27.0411 7.67819 27.5221 7.24312 27.5221 6.70662C27.5221 6.17012 27.0411 5.73505 26.4478 5.73505H11.3017C9.88253 5.78081 9.87469 7.62942 11.3017 7.67819Z" fill="#2F8FFF"/>
<path d="M11.3017 12.2608H26.4478C27.0411 12.2608 27.5221 11.8257 27.5221 11.2892C27.5221 10.7527 27.0411 10.3176 26.4478 10.3176H11.3017C9.88253 10.3634 9.87469 12.212 11.3017 12.2608Z" fill="#2F8FFF"/>
<path d="M11.3019 16.8435H18.875C20.2963 16.7968 20.3 14.9485 18.875 14.9004H11.302C10.7087 14.9004 10.2278 15.3355 10.2278 15.872C10.2278 16.4085 10.7086 16.8435 11.3019 16.8435Z" fill="#2F8FFF"/>
<path d="M11.3019 21.4261H18.875C20.2963 21.3794 20.3 19.5311 18.875 19.483H11.302C10.7087 19.483 10.2278 19.9181 10.2278 20.4546C10.2278 20.9911 10.7086 21.4261 11.3019 21.4261Z" fill="#2F8FFF"/>
</g>
<defs>
<clipPath id="clip0_2_1153">
<rect width="55" height="49.7444" fill="white" transform="translate(0.00146484 0.579926)"/>
</clipPath>
</defs>
</svg>
