<svg width="990" height="760" viewBox="0 0 990 760" fill="none" xmlns="http://www.w3.org/2000/svg">
<path opacity="0.5" fill-rule="evenodd" clip-rule="evenodd" d="M990 0H0V760H990V0ZM389.581 97.0834C398.165 97.0834 405.123 90.1251 405.123 81.5417C405.123 72.9583 398.165 66 389.581 66C380.998 66 374.039 72.9583 374.039 81.5417C374.039 90.1251 380.998 97.0834 389.581 97.0834ZM306.167 132.123C306.167 149.29 292.25 163.206 275.083 163.206C257.917 163.206 244 149.29 244 132.123C244 114.956 257.917 101.04 275.083 101.04C292.25 101.04 306.167 114.956 306.167 132.123ZM352.306 311.394C378.057 311.394 398.931 290.519 398.931 264.769C398.931 239.019 378.057 218.144 352.306 218.144C326.556 218.144 305.681 239.019 305.681 264.769C305.681 290.519 326.556 311.394 352.306 311.394ZM392.901 400.099C396.969 393.556 399.301 385.936 399.301 377.803C399.301 353.425 378.353 333.664 352.513 333.664C326.672 333.664 305.724 353.425 305.724 377.803C305.724 385.265 307.687 392.295 311.152 398.457C316.689 410.875 331.941 447.612 331.696 475.001C331.378 510.516 320.782 546.109 303.489 591.947C298.302 600.067 295.318 609.581 295.318 619.752C295.318 649.547 320.921 673.7 352.504 673.7C384.086 673.7 409.689 649.547 409.689 619.752C409.689 609.054 406.388 599.083 400.695 590.696C380.232 545.206 370.093 509.927 370.708 475.001C371.173 448.617 386.382 413.837 392.901 400.099Z" fill="white"/>
</svg>
