<svg width="55" height="55" viewBox="0 0 55 55" fill="none" xmlns="http://www.w3.org/2000/svg">
<path fill-rule="evenodd" clip-rule="evenodd" d="M47.9991 31.5085H37.9357L32.5159 40.0318C31.314 41.5327 32.3633 43.82 34.337 43.82H51.596C53.4476 43.8218 54.595 41.7064 53.4997 40.1491L47.9991 31.5085Z" fill="#08F8FF"/>
<path fill-rule="evenodd" clip-rule="evenodd" d="M37.2666 49.3001H5.70068V6.77368H0.000976562V54.9998H37.2666V49.3001Z" fill="#08F8FF"/>
<path d="M53.5283 39.5534L46.4631 28.4548V23.0485C47.9013 23.0218 47.9218 20.9552 46.4849 20.9001H43.1749V9.84229C43.1749 9.5574 43.0617 9.28423 42.8603 9.08271L34.0918 0.314395C33.8904 0.112979 33.6173 -0.000244141 33.3323 -0.000244141H4.83496C4.24167 -0.000244141 3.76074 0.480791 3.76074 1.07397V49.3001C3.76074 49.8932 4.24167 50.3743 4.83496 50.3743H42.1007C42.694 50.3743 43.1749 49.8932 43.1749 49.3001V44.8939H50.7328C53.4252 44.9277 55.0956 41.7533 53.5283 39.5534ZM34.1166 3.37742L39.7971 9.058H34.1166V3.37742ZM41.0265 48.2258H5.90918V2.14819H31.9681V10.1322C31.9681 10.7254 32.449 11.2064 33.0423 11.2064H41.0265V20.9H37.7165C36.2793 20.9553 36.3004 23.0219 37.7384 23.0484V28.4556L30.7724 39.4104C29.048 41.585 30.6826 44.936 33.4715 44.8939H41.0266V48.2258H41.0265ZM51.8407 42.0612C51.6179 42.4898 51.2038 42.7456 50.7317 42.7456H33.4714C32.2665 42.7127 31.9084 41.3955 32.4888 40.7032C32.5661 40.5988 39.648 29.457 39.7191 29.3445C39.8286 29.1723 39.8868 28.9724 39.8868 28.7682V23.0484H44.3148V28.7677C44.3148 28.972 44.373 29.1722 44.4828 29.3445C44.5263 29.4083 51.7169 40.7139 51.7556 40.7669C52.1488 41.3263 51.9461 41.8584 51.8407 42.0612Z" fill="#001B50"/>
<path d="M28.4909 26.6294C28.3243 26.4628 28.1441 26.3178 27.954 26.1942L28.9623 22.1611C30.601 22.0609 32.024 20.5426 31.9833 18.8692C32.0075 15.9573 28.3875 14.4581 26.3405 16.532C24.8576 17.9613 25.1325 20.5516 26.8773 21.6418L25.8691 25.675C24.6343 25.751 23.4125 26.6858 23.0256 27.8925L16.6573 27.8924C15.8927 25.6023 12.8942 24.9 11.1944 26.6294C9.46486 28.3289 10.1676 31.3285 12.4574 32.0923V38.4628C10.1672 39.2273 9.46508 42.226 11.1944 43.9256C12.4247 45.208 14.6387 45.2081 15.869 43.9256C17.5987 42.2253 16.8955 39.2268 14.606 38.4628V32.0923C15.5311 31.7946 16.3597 30.9659 16.6574 30.0408L23.0257 30.0409C23.796 32.3329 26.7908 33.0324 28.4909 31.3039C29.7732 30.0737 29.7732 27.8598 28.4909 26.6294ZM27.8598 18.0512C28.5692 17.3243 29.8491 17.8544 29.835 18.8694C29.8489 19.8842 28.5693 20.4145 27.8598 19.6875C27.411 19.2568 27.4109 18.4819 27.8598 18.0512ZM14.35 42.4067C14.3499 42.4067 14.3499 42.4067 14.35 42.4067C13.645 43.1353 12.3582 42.6021 12.3748 41.5885C12.3559 40.9683 12.9252 40.4132 13.5319 40.4323C14.5433 40.4187 15.0808 41.6912 14.35 42.4067ZM14.3499 29.7848C13.8988 30.2359 13.1648 30.2359 12.7136 29.7848C11.6671 28.665 13.231 27.1023 14.35 28.1487C14.801 28.5997 14.801 29.3337 14.3499 29.7848ZM26.9717 29.7848C26.9716 29.7848 26.9716 29.7848 26.9717 29.7848C26.2667 30.5135 24.9799 29.9802 24.9966 28.9667C24.9777 28.3464 25.547 27.7914 26.1536 27.8104C27.1652 27.797 27.7025 29.0695 26.9717 29.7848Z" fill="#001B50"/>
<path d="M11.3002 7.8479H26.4464C27.0397 7.8479 27.5206 7.36686 27.5206 6.77368C27.5206 6.1805 27.0397 5.69946 26.4464 5.69946H11.3002C9.88107 5.75006 9.87322 7.79397 11.3002 7.8479Z" fill="#001B50"/>
<path d="M11.3002 12.9148H26.4464C27.0397 12.9148 27.5206 12.4338 27.5206 11.8406C27.5206 11.2474 27.0397 10.7664 26.4464 10.7664H11.3002C9.88107 10.817 9.87322 12.8609 11.3002 12.9148Z" fill="#001B50"/>
<path d="M11.3004 17.9817H18.8736C20.2949 17.93 20.2985 15.8864 18.8736 15.8333H11.3005C10.7072 15.8333 10.2263 16.3143 10.2263 16.9075C10.2263 17.5007 10.7071 17.9817 11.3004 17.9817Z" fill="#001B50"/>
<path d="M11.3004 23.0483H18.8736C20.2949 22.9967 20.2985 20.9531 18.8736 20.8999H11.3005C10.7072 20.8999 10.2263 21.3809 10.2263 21.9741C10.2263 22.5673 10.7071 23.0483 11.3004 23.0483Z" fill="#001B50"/>
</svg>
