<svg width="55" height="49" viewBox="0 0 55 49" fill="none" xmlns="http://www.w3.org/2000/svg">
<path d="M51.7775 0.866943H3.22265C1.44568 0.866943 0 2.31262 0 4.08959V36.3162C0 38.0932 1.44568 39.5388 3.22265 39.5388H21.9576L20.2305 45.9845H18.9062C17.4878 46.0347 17.4787 48.0788 18.9062 48.1329H36.0937C37.5122 48.0825 37.5212 46.0386 36.0937 45.9845H34.7695L33.0425 39.5388H51.7775C53.5544 39.5388 55.0001 38.0932 55.0001 36.3162V4.08959C55 2.31262 53.5544 0.866943 51.7775 0.866943ZM3.22265 3.01538H51.7775C52.3698 3.01538 52.8517 3.49727 52.8517 4.08959V33.0935H2.14843V4.08959C2.14843 3.49727 2.63033 3.01538 3.22265 3.01538ZM32.5453 45.9845H22.4548L24.1818 39.5388H30.8182L32.5453 45.9845ZM51.7775 37.3904H3.22265C2.63033 37.3904 2.14843 36.9085 2.14843 36.3162V35.242H52.8516V36.3162C52.8516 36.9084 52.3698 37.3904 51.7775 37.3904Z" fill="#2F8FFF"/>
<path d="M21.5103 19.103H29.0041C29.5974 19.103 30.0783 18.622 30.0783 18.0288C30.0783 13.3044 26.2347 9.46069 21.5103 9.46069C20.917 9.46069 20.436 9.94173 20.436 10.5349V18.0288C20.436 18.622 20.917 19.103 21.5103 19.103ZM22.5845 11.699C25.2653 12.1526 27.3865 14.2738 27.84 16.9545H22.5845V11.699Z" fill="#2F8FFF"/>
<path d="M17.1617 30.9452C21.8862 30.9452 25.7298 27.1017 25.7298 22.3772C25.7298 21.784 25.2489 21.3029 24.6556 21.3029H18.236V14.8833C18.236 14.2901 17.755 13.8091 17.1617 13.8091C5.81015 14.2396 5.81445 30.5168 17.1617 30.9452ZM12.2201 26.4706L16.7686 23.8445L19.3962 28.3956C16.9205 29.378 13.8106 28.4909 12.2201 26.4706ZM21.2552 27.3187L19.0224 23.4514H23.4915C23.2299 24.9975 22.4136 26.3574 21.2552 27.3187ZM16.0875 16.0474V21.7569L11.1432 24.6115C9.69581 20.9174 12.2382 16.6255 16.0875 16.0474Z" fill="#2F8FFF"/>
<path d="M33.838 30.9453H45.3322C45.9254 30.9453 46.4064 30.4643 46.4064 29.8711V25.5742C46.4064 24.981 45.9254 24.5 45.3322 24.5H33.838C33.2447 24.5 32.7638 24.981 32.7638 25.5742V29.8711C32.7638 30.4643 33.2447 30.9453 33.838 30.9453ZM34.9122 26.6484H44.2579V28.7969H34.9122V26.6484Z" fill="#2F8FFF"/>
<path d="M33.8381 21.6353H45.3322C46.7524 21.5841 46.7581 19.5404 45.3322 19.4868H33.8381C32.4178 19.5379 32.4121 21.5817 33.8381 21.6353Z" fill="#2F8FFF"/>
<path d="M33.8381 16.6223H45.3322C46.7524 16.5712 46.7581 14.5275 45.3322 14.4739H33.8381C32.4178 14.525 32.4121 16.5687 33.8381 16.6223Z" fill="#2F8FFF"/>
<path d="M33.8381 11.6094H45.3322C46.7524 11.5582 46.7581 9.51454 45.3322 9.46094H33.8381C32.4178 9.51207 32.4121 11.5558 33.8381 11.6094Z" fill="#2F8FFF"/>
</svg>
