<svg width="56" height="51" viewBox="0 0 56 51" fill="none" xmlns="http://www.w3.org/2000/svg">
<g clip-path="url(#clip0_2_1167)">
<path fill-rule="evenodd" clip-rule="evenodd" d="M8.59302 12.5873V18.4152C11.4398 18.5107 11.4377 22.2059 8.59302 22.3005V28.1285C11.4398 28.2239 11.4377 31.9191 8.59302 32.0137V37.8417C11.4398 37.9371 11.4377 41.6323 8.59302 41.7269V45.2238H39.7373V5.20538H8.59302V8.70214C11.4398 8.79762 11.4377 12.4927 8.59302 12.5873Z" fill="#08F8FF"/>
<path d="M41.8853 0.349304H3.22329C2.63026 0.349304 2.14935 0.784165 2.14935 1.32062V9.44077H1.07541C0.482376 9.44077 0.00146484 9.87563 0.00146484 10.4121C0.00146484 10.9486 0.482376 11.3834 1.07541 11.3834H2.14935V19.154H1.07541C0.482376 19.154 0.00146484 19.5888 0.00146484 20.1253C0.00146484 20.6618 0.482376 21.0966 1.07541 21.0966H2.14935V28.8672H1.07541C0.482376 28.8672 0.00146484 29.302 0.00146484 29.8385C0.00146484 30.375 0.482376 30.8098 1.07541 30.8098H2.14935V38.5804H1.07541C0.482376 38.5804 0.00146484 39.0153 0.00146484 39.5517C0.00146484 40.0882 0.482376 40.523 1.07541 40.523H2.14935V49.1097C2.14935 49.6462 2.63026 50.081 3.22329 50.081H41.8853C43.6617 50.081 45.107 48.7738 45.107 47.1671V3.26336C45.107 1.65651 43.6617 0.349304 41.8853 0.349304ZM42.9591 47.167C42.9591 47.7025 42.4775 48.1383 41.8853 48.1383H4.29723V40.5229H5.47599C6.49248 43.7813 11.7287 43.2073 11.8149 39.7848C11.7769 36.6466 7.09313 35.7708 5.65964 38.5803H4.29723V30.8097H5.47599C6.49258 34.068 11.7287 33.494 11.8149 30.0716C11.7769 26.9334 7.09313 26.0577 5.65964 28.8671H4.29723V21.0965H5.47599C6.49248 24.3549 11.7287 23.7809 11.8149 20.3584C11.7769 17.2202 7.09313 16.3444 5.65964 19.1539H4.29723V11.3833H5.47599C6.49258 14.6416 11.7287 14.0676 11.8149 10.6452C11.7769 7.50697 7.09313 6.63132 5.65964 9.44067H4.29723V2.29195H41.8853C42.4775 2.29195 42.9591 2.72768 42.9591 3.26327V47.167ZM8.59311 38.8135C9.18528 38.8135 9.66705 39.2492 9.66705 39.7848C9.61303 41.0716 7.57297 41.0712 7.51917 39.7848C7.51917 39.2493 8.00094 38.8135 8.59311 38.8135ZM8.59311 29.1004C9.18528 29.1004 9.66705 29.5361 9.66705 30.0717C9.61303 31.3585 7.57297 31.3581 7.51917 30.0717C7.51917 29.5361 8.00094 29.1004 8.59311 29.1004ZM8.59311 19.3872C9.18528 19.3872 9.66705 19.8229 9.66705 20.3585C9.61303 21.6453 7.57297 21.6449 7.51917 20.3585C7.51917 19.8229 8.00094 19.3872 8.59311 19.3872ZM8.59311 9.67398C9.18528 9.67398 9.66705 10.1097 9.66705 10.6453C9.61303 11.9321 7.57297 11.9317 7.51917 10.6453C7.51917 10.1097 8.00094 9.67398 8.59311 9.67398Z" fill="#2F8FFF"/>
<path d="M53.9138 4.81665H49.081C48.488 4.81665 48.0071 5.25151 48.0071 5.78797V40.1476C48.0071 40.2948 48.0441 40.44 48.1152 40.5724L50.5316 45.0657C50.9025 45.7826 52.0903 45.7909 52.4632 45.0657C52.4983 44.9348 55.2187 40.1431 54.9877 40.1477V5.78807C54.9877 5.25151 54.5068 4.81665 53.9138 4.81665ZM52.8398 6.75929V9.67325H50.155V6.75929H52.8398ZM51.4974 42.4201L50.155 39.9239V11.6159H52.8398V39.9239L51.4974 42.4201Z" fill="#2F8FFF"/>
<path d="M27.5334 9.67334C26.9404 9.67334 26.4595 10.1082 26.4595 10.6447V17.7972C26.4595 18.3336 26.9404 18.7685 27.5334 18.7685H35.4416C36.0346 18.7685 36.5155 18.3336 36.5155 17.7972C36.5155 13.3176 32.4861 9.67334 27.5334 9.67334ZM28.6074 16.8259V11.6922C31.5176 12.1093 33.8222 14.1937 34.2833 16.8259H28.6074Z" fill="#2F8FFF"/>
<path d="M22.9449 30.0711C27.8976 30.0711 31.9271 26.4268 31.9271 21.9473C31.9271 21.4108 31.4462 20.976 30.8531 20.976H24.0189V14.7949C24.0189 14.2584 23.538 13.8235 22.9449 13.8235C11.0447 14.2318 11.0493 29.6648 22.9449 30.0711ZM17.6393 25.8394L22.5519 23.2741L25.3898 27.7197C22.7209 28.7084 19.3385 27.8361 17.6393 25.8394ZM27.2482 26.7459L24.805 22.9186H29.6948C29.4255 24.4553 28.5279 25.8054 27.2482 26.7459ZM21.871 15.8424V21.3865L16.5627 24.1584C14.9597 20.5717 17.7083 16.3669 21.871 15.8424Z" fill="#2F8FFF"/>
<path d="M35.4417 38.8128H34.3677V31.4833C34.3677 30.9468 33.8868 30.512 33.2937 30.512C32.7007 30.512 32.2198 30.9468 32.2198 31.4833V38.8128H28.998V34.9315C28.998 34.395 28.517 33.9602 27.924 33.9602C27.331 33.9602 26.8501 34.395 26.8501 34.9315V38.8128H23.6283V33.9602C23.6283 33.4237 23.1473 32.9888 22.5543 32.9888C21.9613 32.9888 21.4804 33.4237 21.4804 33.9602V38.8128H18.2587V37.3558C18.2587 36.8193 17.7777 36.3845 17.1847 36.3845C16.5917 36.3845 16.1108 36.8193 16.1108 37.3558V38.8128H15.0367C13.6186 38.8583 13.6096 40.7065 15.0367 40.7554H35.4417C36.8577 40.7108 36.8708 38.8624 35.4417 38.8128Z" fill="#2F8FFF"/>
</g>
<defs>
<clipPath id="clip0_2_1167">
<rect width="55" height="49.7444" fill="white" transform="translate(0.00146484 0.342224)"/>
</clipPath>
</defs>
</svg>
