<svg width="56" height="50" viewBox="0 0 56 50" fill="none" xmlns="http://www.w3.org/2000/svg">
<g clip-path="url(#clip0_2_1178)">
<path fill-rule="evenodd" clip-rule="evenodd" d="M27.5171 34.5844C33.4343 34.5844 38.2603 30.2195 38.2603 24.8678C37.7108 11.9966 17.3213 12.0001 16.7739 24.8679C16.7739 30.2195 21.6 34.5844 27.5171 34.5844Z" fill="#08F8FF"/>
<path d="M53.9333 37.4236H42.9187L39.6412 34.4592C40.8909 33.1685 41.8935 31.6773 42.5811 30.0466C44.2081 30.5033 45.3786 30.3168 47.1887 29.4041C55.5751 25.334 58.3926 11.2039 49.6751 6.70048C51.0221 5.35813 51.8204 3.61525 51.8558 1.79542C51.8628 1.4361 51.6499 1.10263 51.3024 0.928408C48.7753 -0.338059 45.6134 -0.293751 43.0513 1.04423C41.4474 1.88171 40.2114 3.15663 39.4987 4.63395C38.9486 3.67336 38.1335 2.92323 37.0571 2.39008C36.5369 2.1324 35.8838 2.30487 35.5988 2.77564C35.3138 3.24631 35.5046 3.83679 36.025 4.09458C36.8605 4.50841 37.942 5.30041 38.1624 7.44439C35.6707 7.09828 32.8948 5.62368 30.4641 6.16471C28.1477 6.67668 26.2168 8.19879 24.9813 10.473C21.9213 10.9123 19.1454 12.1333 16.9124 13.9021L13.2055 10.5493C14.5725 8.34706 12.7062 5.49649 9.89816 5.53157C7.82493 5.53157 6.13803 7.05718 6.13803 8.93239C6.09957 11.4719 9.25099 13.1603 11.686 11.9236L15.393 15.2763C13.1303 17.613 11.6782 20.6072 11.4378 23.896H7.36749C7.19183 23.3601 6.87029 22.8692 6.42112 22.4629C4.9551 21.137 2.56957 21.137 1.10355 22.4629C1.10344 22.4629 1.10344 22.4629 1.10344 22.4629C-0.362581 23.7889 -0.362581 25.9465 1.10344 27.2725C2.50306 28.5917 5.0216 28.5918 6.42101 27.2725C6.87029 26.8662 7.19183 26.3752 7.36749 25.8393H11.4377C11.6782 29.1282 13.1303 32.1224 15.393 34.4592L13.8609 35.845L12.9513 35.0223C12.5412 34.6514 11.8794 34.6418 11.4566 35.0007L1.17413 43.7246C0.435211 44.3515 0.0192334 45.2119 0.0026888 46.1472C-0.014178 47.1051 0.403733 48.0414 1.14953 48.7158C1.89468 49.3902 2.9315 49.7684 3.98928 49.7529C5.02364 49.738 5.97495 49.3618 6.6681 48.6936L16.3137 39.3938C16.7105 39.0111 16.7 38.4128 16.2898 38.0419L15.3803 37.2193L16.9124 35.8335C22.6279 40.6003 32.4074 40.5993 38.1218 35.8335L41.7141 39.0825C41.9156 39.2647 42.1888 39.3671 42.4737 39.3671H53.9333C55.3572 39.3191 55.3561 37.471 53.9333 37.4236ZM5.10099 47.3639C4.80942 47.6449 4.40247 47.8032 3.95501 47.8097C3.4735 47.8174 3.00542 47.6461 2.66883 47.3417C2.33203 47.0372 2.14338 46.6131 2.15112 46.1783C2.15821 45.7737 2.33332 45.4057 2.64423 45.142L12.1677 37.0621L14.0346 38.7505L5.10099 47.3639ZM44.1256 2.72725C45.838 1.83293 47.9013 1.70895 49.6575 2.3654C49.4081 4.06931 48.2575 5.62329 46.545 6.51752C44.8325 7.41174 42.7694 7.53582 41.0131 6.87936C41.2626 5.17555 42.4132 3.62147 44.1256 2.72725ZM30.9742 8.05265C31.9529 7.83636 33.3055 8.22288 34.7377 8.63234C37.0722 9.34545 39.363 9.81602 41.9506 9.13032C43.8888 9.42289 45.8795 9.10535 47.6194 8.20054C47.679 8.16944 47.7381 8.13767 47.7968 8.10531C50.8343 8.90732 52.8591 12.2341 52.8591 16.4718C52.8591 21.0735 50.1455 25.5959 46.1067 27.7253C44.7484 28.4413 43.9519 28.4291 43.2088 28.193C45.6477 19.2542 37.7795 10.2077 27.5822 10.2929C28.4827 9.12371 29.6503 8.34531 30.9742 8.05265ZM8.28668 8.93249C8.28668 8.12883 9.00959 7.47499 9.89816 7.47499C12.033 7.54826 12.0325 10.317 9.89816 10.39C9.00959 10.39 8.28668 9.73615 8.28668 8.93249ZM4.90181 25.8984C4.30202 26.4638 3.22265 26.4638 2.62285 25.8984C1.99448 25.3302 1.99448 24.4055 2.62285 23.8372H2.62274C3.25112 23.2691 4.27344 23.269 4.90181 23.8372C5.52707 24.3797 5.52696 25.3559 4.90181 25.8984ZM27.5171 37.4994C20.1776 37.4994 14.1423 32.3523 13.5919 25.8394H20.2174C21.6414 25.7916 21.6403 23.9434 20.2174 23.8961H13.5919C13.8246 21.1424 15.0378 18.6329 16.9156 16.6533L21.5959 20.8864C22.0155 21.2658 22.6957 21.2658 23.1153 20.8864C23.5348 20.507 23.5348 19.8917 23.1153 19.5122L18.435 15.2791C31.8095 5.50038 48.9265 20.998 38.1189 33.0821L33.4387 28.8491C33.0191 28.4696 32.339 28.4696 31.9193 28.8491C31.4998 29.2285 31.4998 29.8438 31.9193 30.2233L36.5996 34.4564C34.1557 36.3525 30.9817 37.4994 27.5171 37.4994Z" fill="#2F8FFF"/>
<path d="M53.9333 41.3104H42.4738C41.0499 41.3582 41.0509 43.2064 42.4738 43.2537H53.9333C55.3573 43.2059 55.3562 41.3578 53.9333 41.3104Z" fill="#2F8FFF"/>
<path d="M48.2036 45.1971H42.4738C41.0499 45.2449 41.0509 47.0931 42.4738 47.1404H48.2036C49.6275 47.0926 49.6264 45.2444 48.2036 45.1971Z" fill="#2F8FFF"/>
<path d="M34.3539 22.8067C34.7735 22.4272 34.7735 21.812 34.3539 21.4325C33.9343 21.0532 33.2543 21.0531 32.8345 21.4325C32.2923 21.923 31.6742 21.9946 30.7687 21.9269C30.6937 21.1081 30.7729 20.5489 31.3152 20.0584C31.7348 19.679 31.7348 19.0637 31.3152 18.6843C30.8956 18.3048 30.2156 18.3048 29.7958 18.6843C28.752 19.6283 28.5612 20.7139 28.6031 21.7278C25.9206 21.5377 23.8349 23.4272 24.0451 25.8502C22.924 25.8122 21.7237 25.985 20.6799 26.929C20.2604 27.3085 20.2604 27.9237 20.6799 28.3032C21.0995 28.6827 21.7797 28.6827 22.1993 28.3032C22.7415 27.8126 23.3598 27.741 24.2652 27.8088C24.3402 28.6276 24.261 29.1868 23.7186 29.6774C23.2991 30.0568 23.2991 30.6721 23.7186 31.0515C24.1382 31.431 24.8184 31.431 25.238 31.0515C26.2819 30.1074 26.4727 29.0219 26.4308 28.0079C29.1132 28.1979 31.199 26.3086 30.9889 23.8855C32.1099 23.9234 33.3101 23.7507 34.3539 22.8067ZM28.2767 25.5549C27.7344 26.0454 27.1161 26.1169 26.2108 26.0492C26.1358 25.2304 26.2151 24.6713 26.7574 24.1808C27.2997 23.6902 27.9179 23.6186 28.8233 23.6864C28.8983 24.5052 28.8191 25.0643 28.2767 25.5549Z" fill="#2F8FFF"/>
</g>
<defs>
<clipPath id="clip0_2_1178">
<rect width="55" height="49.7444" fill="white" transform="translate(0.00146484 0.0088501)"/>
</clipPath>
</defs>
</svg>
