<svg width="45" height="55" viewBox="0 0 45 55" fill="none" xmlns="http://www.w3.org/2000/svg">
<path fill-rule="evenodd" clip-rule="evenodd" d="M39.2581 44.0429V9.9521H34.6771V5.37109H11.3284V44.0429H39.2581Z" fill="#08F8FF"/>
<path d="M44.3144 8.90826L35.7207 0.314531C35.5192 0.113222 35.246 0 34.9611 0H7.03145C6.43816 0 5.95724 0.480927 5.95724 1.07422V5.58614H1.44531C0.852021 5.58614 0.371094 6.06707 0.371094 6.66036V53.9259C0.371094 54.5192 0.852021 55.0001 1.44531 55.0001H37.9687C38.562 55.0001 39.0429 54.5192 39.0429 53.9259V49.414H43.5548C44.1481 49.414 44.629 48.933 44.629 48.3397V9.66795C44.629 9.38296 44.5158 9.10979 44.3144 8.90826ZM35.7512 3.38346L41.2456 8.87786H35.7512V3.38346ZM36.8945 52.8516H2.51953V7.73447H5.95724V48.3397C5.95724 48.933 6.43816 49.414 7.03145 49.414H36.8945V52.8516ZM8.10567 47.2655V2.14843H33.6027V9.95208C33.6027 10.5454 34.0837 11.0263 34.677 11.0263H42.4806V47.2655H8.10567Z" fill="#2F8FFF"/>
<path d="M27.4673 20.6687H34.9611C35.5544 20.6687 36.0354 20.1877 36.0354 19.5944C36.0354 14.87 32.1918 11.0264 27.4673 11.0264C26.874 11.0264 26.3931 11.5073 26.3931 12.1006V19.5944C26.3931 20.1877 26.874 20.6687 27.4673 20.6687ZM28.5415 13.2647C31.2222 13.7183 33.3435 15.8395 33.797 18.5202H28.5415V13.2647Z" fill="#2F8FFF"/>
<path d="M23.119 32.5107C27.8434 32.5107 31.6871 28.6671 31.6871 23.9426C31.6871 23.3493 31.2062 22.8684 30.6129 22.8684H24.1932V16.4487C24.1932 15.8554 23.7123 15.3745 23.119 15.3745C11.7674 15.8051 11.7717 32.0822 23.119 32.5107ZM18.1774 28.036L22.7259 25.41L25.3534 29.961C22.8777 30.9434 19.7679 30.0563 18.1774 28.036ZM27.2124 28.8841L24.9797 25.0168H29.4487C29.1872 26.5629 28.3709 27.9228 27.2124 28.8841ZM22.0448 17.6129V23.3223L17.1004 26.177C15.653 22.4829 18.1953 18.1909 22.0448 17.6129Z" fill="#2F8FFF"/>
<path d="M15.6252 11.0264H23.1191C24.5405 10.9747 24.544 8.9311 23.1191 8.87793H15.6252C15.032 8.87793 14.551 9.35886 14.551 9.95215C14.551 10.5454 15.032 11.0264 15.6252 11.0264Z" fill="#2F8FFF"/>
<path d="M23.1189 38.6719H15.625C14.2036 38.7235 14.2001 40.7671 15.625 40.8203H23.1189C23.7122 40.8203 24.1931 40.3394 24.1931 39.7461C24.1931 39.1528 23.7122 38.6719 23.1189 38.6719Z" fill="#2F8FFF"/>
<path d="M23.1189 34.375H15.625C14.2036 34.4267 14.2001 36.4703 15.625 36.5234H23.1189C23.7122 36.5234 24.1931 36.0425 24.1931 35.4492C24.1931 34.8559 23.7122 34.375 23.1189 34.375Z" fill="#2F8FFF"/>
<path d="M34.9612 38.6719H27.4673C26.0459 38.7235 26.0423 40.7671 27.4673 40.8203H34.9612C35.5544 40.8203 36.0354 40.3394 36.0354 39.7461C36.0354 39.1528 35.5544 38.6719 34.9612 38.6719Z" fill="#2F8FFF"/>
<path d="M34.9612 34.375H27.4673C26.0459 34.4267 26.0423 36.4703 27.4673 36.5234H34.9612C35.5544 36.5234 36.0354 36.0425 36.0354 35.4492C36.0354 34.8559 35.5544 34.375 34.9612 34.375Z" fill="#2F8FFF"/>
</svg>
