<svg width="376" height="489" viewBox="0 0 376 489" fill="none" xmlns="http://www.w3.org/2000/svg">
<path opacity="0.5" fill-rule="evenodd" clip-rule="evenodd" d="M0 1.63919e-05L2.13526e-05 488.49L375.003 488.49L375.003 0L0 1.63919e-05ZM218.854 291.774C215.625 289.767 211.865 288.616 207.852 288.616C195.823 288.616 186.072 298.952 186.072 311.703C186.072 324.453 195.823 334.789 207.852 334.789C211.533 334.789 215.001 333.821 218.042 332.111C224.168 329.38 242.297 321.853 255.811 321.974C273.336 322.131 290.899 327.36 313.516 335.893C317.523 338.452 322.217 339.924 327.235 339.924C341.937 339.924 353.855 327.291 353.855 311.707C353.855 296.123 341.937 283.49 327.235 283.49C321.956 283.49 317.036 285.119 312.898 287.929C290.452 298.026 273.045 303.028 255.811 302.725C242.794 302.495 225.634 294.992 218.854 291.774ZM175.083 311.804C175.083 299.098 164.783 288.798 152.077 288.798C139.372 288.798 129.072 299.098 129.072 311.804C129.072 324.51 139.372 334.81 152.077 334.81C164.783 334.81 175.083 324.51 175.083 311.804ZM86.6268 334.57C95.0973 334.57 101.964 341.437 101.964 349.908C101.964 358.378 95.0973 365.245 86.6268 365.245C78.1562 365.245 71.2895 358.378 71.2895 349.908C71.2895 341.437 78.1562 334.57 86.6268 334.57ZM69.3373 293.412C69.3373 289.176 65.904 285.743 61.6687 285.743C57.4334 285.743 54 289.176 54 293.412C54 297.647 57.4334 301.08 61.6687 301.08C65.904 301.08 69.3373 297.647 69.3373 293.412Z" fill="white"/>
</svg>
